<svg width="860" height="57" viewBox="0 0 860 57" fill="none" xmlns="http://www.w3.org/2000/svg">
<path d="M0 55.0884L23.7304 1.9116H35.8998L59.7062 55.0884H46.7762L27.3051 8.14088H32.1729L12.6258 55.0884H0ZM11.8652 43.6934L15.1357 34.3494H42.5169L45.8635 43.6934H11.8652Z" fill="#F0F0F0"/>
<path d="M65.23 55.0884V1.9116H91.2422C97.9354 1.9116 102.955 3.17771 106.302 5.70994C109.699 8.24217 111.398 11.5847 111.398 15.7376C111.398 18.523 110.713 20.954 109.344 23.0304C107.975 25.0562 106.099 26.6262 103.716 27.7403C101.333 28.8545 98.5945 29.4116 95.5015 29.4116L96.9466 26.297C100.293 26.297 103.259 26.8541 105.845 27.9682C108.431 29.0318 110.434 30.6271 111.854 32.7541C113.325 34.8812 114.06 37.4894 114.06 40.5787C114.06 45.1367 112.26 48.7072 108.66 51.2901C105.06 53.8223 99.7608 55.0884 92.7634 55.0884H65.23ZM77.4755 45.8204H91.8506C95.0451 45.8204 97.4537 45.314 99.0762 44.3011C100.75 43.2376 101.586 41.5663 101.586 39.2873C101.586 37.0589 100.75 35.413 99.0762 34.3494C97.4537 33.2353 95.0451 32.6782 91.8506 32.6782H76.5628V23.7141H89.721C92.7126 23.7141 94.9944 23.2076 96.5663 22.1948C98.1889 21.1312 99.0002 19.5359 99.0002 17.4088C99.0002 15.3324 98.1889 13.7878 96.5663 12.7749C94.9944 11.7113 92.7126 11.1796 89.721 11.1796H77.4755V45.8204Z" fill="#F0F0F0"/>
<path d="M149.248 56C145.04 56 141.135 55.3163 137.535 53.9489C133.986 52.5815 130.893 50.657 128.256 48.1754C125.67 45.6938 123.642 42.7818 122.171 39.4392C120.752 36.0967 120.042 32.4503 120.042 28.5C120.042 24.5497 120.752 20.9033 122.171 17.5608C123.642 14.2182 125.695 11.3062 128.332 8.82458C130.969 6.343 134.062 4.41851 137.611 3.0511C141.161 1.6837 145.014 1 149.172 1C153.381 1 157.235 1.6837 160.733 3.0511C164.283 4.41851 167.35 6.343 169.936 8.82458C172.573 11.3062 174.627 14.2182 176.097 17.5608C177.568 20.8527 178.303 24.4991 178.303 28.5C178.303 32.4503 177.568 36.122 176.097 39.5152C174.627 42.8577 172.573 45.7698 169.936 48.2514C167.35 50.6823 164.283 52.5815 160.733 53.9489C157.235 55.3163 153.406 56 149.248 56ZM149.172 45.5166C151.556 45.5166 153.736 45.1114 155.713 44.3011C157.742 43.4908 159.516 42.326 161.038 40.8066C162.559 39.2873 163.725 37.4894 164.536 35.413C165.398 33.3366 165.829 31.0322 165.829 28.5C165.829 25.9678 165.398 23.6634 164.536 21.587C163.725 19.5106 162.559 17.7127 161.038 16.1934C159.567 14.674 157.818 13.5092 155.789 12.6989C153.761 11.8886 151.556 11.4834 149.172 11.4834C146.789 11.4834 144.583 11.8886 142.555 12.6989C140.578 13.5092 138.828 14.674 137.307 16.1934C135.786 17.7127 134.594 19.5106 133.732 21.587C132.921 23.6634 132.515 25.9678 132.515 28.5C132.515 30.9816 132.921 33.2859 133.732 35.413C134.594 37.4894 135.761 39.2873 137.231 40.8066C138.752 42.326 140.527 43.4908 142.555 44.3011C144.583 45.1114 146.789 45.5166 149.172 45.5166Z" fill="#F0F0F0"/>
<path d="M211.217 56C203.662 56 197.755 53.8983 193.496 49.6948C189.236 45.4913 187.107 39.4899 187.107 31.6906V1.9116H199.428V31.2348C199.428 36.2993 200.468 39.9457 202.547 42.174C204.626 44.4024 207.541 45.5166 211.293 45.5166C215.046 45.5166 217.961 44.4024 220.04 42.174C222.119 39.9457 223.159 36.2993 223.159 31.2348V1.9116H235.328V31.6906C235.328 39.4899 233.198 45.4913 228.939 49.6948C224.68 53.8983 218.773 56 211.217 56Z" fill="#F0F0F0"/>
<path d="M257.641 55.0884V11.9392H240.604V1.9116H287V11.9392H269.963V55.0884H257.641Z" fill="#F0F0F0"/>
<g filter="url(#filter0_b_1319_1834)">
<mask id="path-2-outside-1_1319_1834" maskUnits="userSpaceOnUse" x="329" y="0" width="531" height="57" fill="black">
<rect fill="white" x="329" width="531" height="57"/>
<path d="M359.278 56C355.059 56 351.145 55.3163 347.536 53.9489C343.978 52.5815 340.878 50.657 338.234 48.1754C335.642 45.6938 333.609 42.7818 332.135 39.4392C330.712 36.0967 330 32.4503 330 28.5C330 24.5497 330.712 20.9033 332.135 17.5608C333.609 14.2182 335.668 11.3062 338.311 8.82458C340.954 6.343 344.054 4.41851 347.613 3.0511C351.171 1.6837 355.034 1 359.202 1C363.421 1 367.284 1.6837 370.791 3.0511C374.349 4.41851 377.424 6.343 380.017 8.82458C382.66 11.3062 384.718 14.2182 386.192 17.5608C387.666 20.8527 388.403 24.4991 388.403 28.5C388.403 32.4503 387.666 36.122 386.192 39.5152C384.718 42.8577 382.66 45.7698 380.017 48.2514C377.424 50.6823 374.349 52.5815 370.791 53.9489C367.284 55.3163 363.446 56 359.278 56ZM359.202 45.5166C361.591 45.5166 363.776 45.1114 365.759 44.3011C367.792 43.4908 369.571 42.326 371.096 40.8066C372.621 39.2873 373.79 37.4894 374.603 35.413C375.467 33.3366 375.899 31.0322 375.899 28.5C375.899 25.9678 375.467 23.6634 374.603 21.587C373.79 19.5106 372.621 17.7127 371.096 16.1934C369.622 14.674 367.868 13.5092 365.835 12.6989C363.802 11.8886 361.591 11.4834 359.202 11.4834C356.813 11.4834 354.602 11.8886 352.568 12.6989C350.586 13.5092 348.832 14.674 347.308 16.1934C345.783 17.7127 344.588 19.5106 343.724 21.587C342.911 23.6634 342.504 25.9678 342.504 28.5C342.504 30.9816 342.911 33.2859 343.724 35.413C344.588 37.4894 345.757 39.2873 347.231 40.8066C348.756 42.326 350.535 43.4908 352.568 44.3011C354.602 45.1114 356.813 45.5166 359.202 45.5166Z"/>
<path d="M421.398 56C413.825 56 407.903 53.8983 403.633 49.6948C399.364 45.4913 397.229 39.4899 397.229 31.6906V1.9116H409.58V31.2348C409.58 36.2993 410.622 39.9457 412.706 42.174C414.79 44.4024 417.713 45.5166 421.475 45.5166C425.236 45.5166 428.159 44.4024 430.243 42.174C432.327 39.9457 433.369 36.2993 433.369 31.2348V1.9116H445.568V31.6906C445.568 39.4899 443.433 45.4913 439.163 49.6948C434.894 53.8983 428.972 56 421.398 56Z"/>
<path d="M467.936 55.0884V11.9392H450.857V1.9116H497.366V11.9392H480.287V55.0884H467.936Z"/>
<path d="M528.809 56C524.692 56 520.854 55.3416 517.296 54.0249C513.789 52.6575 510.739 50.733 508.147 48.2514C505.555 45.7698 503.521 42.8577 502.047 39.5152C500.624 36.1727 499.913 32.5009 499.913 28.5C499.913 24.4991 500.624 20.8273 502.047 17.4848C503.521 14.1423 505.555 11.2302 508.147 8.74862C510.79 6.26703 513.865 4.36786 517.373 3.0511C520.88 1.6837 524.717 1 528.885 1C533.511 1 537.679 1.81031 541.39 3.43094C545.151 5.00092 548.302 7.33057 550.844 10.4199L542.915 17.7127C541.085 15.6363 539.051 14.0916 536.815 13.0787C534.578 12.0152 532.139 11.4834 529.495 11.4834C527.005 11.4834 524.717 11.8886 522.633 12.6989C520.549 13.5092 518.745 14.674 517.22 16.1934C515.695 17.7127 514.501 19.5106 513.637 21.587C512.823 23.6634 512.417 25.9678 512.417 28.5C512.417 31.0322 512.823 33.3366 513.637 35.413C514.501 37.4894 515.695 39.2873 517.22 40.8066C518.745 42.326 520.549 43.4908 522.633 44.3011C524.717 45.1114 527.005 45.5166 529.495 45.5166C532.139 45.5166 534.578 45.0101 536.815 43.9972C539.051 42.9337 541.085 41.3384 542.915 39.2113L550.844 46.5041C548.302 49.5935 545.151 51.9484 541.39 53.5691C537.679 55.1897 533.486 56 528.809 56Z"/>
<path d="M551.203 55.0884L574.991 1.9116H587.19L611.055 55.0884H598.093L578.574 8.14088H583.454L563.859 55.0884H551.203ZM563.097 43.6934L566.375 34.3494H593.823L597.178 43.6934H563.097Z"/>
<path d="M634.128 56C629.858 56 625.767 55.4429 621.853 54.3287C617.939 53.1639 614.787 51.6699 612.398 49.8467L616.592 40.5787C618.879 42.1994 621.573 43.5414 624.674 44.605C627.825 45.6179 631.002 46.1243 634.204 46.1243C636.644 46.1243 638.601 45.8964 640.075 45.4406C641.6 44.9342 642.718 44.2505 643.43 43.3895C644.142 42.5285 644.497 41.541 644.497 40.4268C644.497 39.0088 643.938 37.8946 642.82 37.0843C641.702 36.2233 640.228 35.5396 638.398 35.0332C636.568 34.4761 634.535 33.9696 632.298 33.5138C630.113 33.0074 627.902 32.3996 625.665 31.6906C623.479 30.9816 621.472 30.07 619.642 28.9558C617.812 27.8416 616.312 26.3729 615.143 24.5497C614.025 22.7265 613.466 20.3969 613.466 17.5608C613.466 14.5221 614.279 11.762 615.906 9.28039C617.583 6.74816 620.074 4.7477 623.378 3.279C626.732 1.75967 630.926 1 635.958 1C639.313 1 642.617 1.40516 645.87 2.21547C649.123 2.97514 651.995 4.13996 654.486 5.70994L650.673 15.0539C648.183 13.6358 645.692 12.5976 643.201 11.9392C640.711 11.2302 638.271 10.8757 635.882 10.8757C633.493 10.8757 631.536 11.1542 630.011 11.7113C628.486 12.2684 627.393 13.0028 626.732 13.9144C626.072 14.7753 625.741 15.7882 625.741 16.953C625.741 18.3204 626.3 19.4346 627.419 20.2956C628.537 21.1059 630.011 21.7643 631.841 22.2707C633.671 22.7772 635.678 23.2836 637.864 23.7901C640.101 24.2965 642.312 24.8789 644.497 25.5373C646.734 26.1957 648.767 27.082 650.597 28.1961C652.427 29.3103 653.901 30.779 655.019 32.6022C656.188 34.4254 656.773 36.7297 656.773 39.5152C656.773 42.5032 655.934 45.238 654.257 47.7196C652.579 50.2012 650.063 52.2017 646.709 53.721C643.405 55.2403 639.211 56 634.128 56Z"/>
<path d="M675.524 55.0884V11.9392H658.445V1.9116H704.954V11.9392H687.875V55.0884H675.524Z"/>
<path d="M722.96 23.3343H748.655V32.9061H722.96V23.3343ZM723.875 45.2127H752.925V55.0884H711.6V1.9116H751.933V11.7873H723.875V45.2127Z"/>
<path d="M762.752 55.0884V1.9116H785.855C790.633 1.9116 794.75 2.69659 798.206 4.26657C801.663 5.78591 804.331 7.98895 806.212 10.8757C808.093 13.7624 809.033 17.2063 809.033 21.2072C809.033 25.1575 808.093 28.576 806.212 31.4627C804.331 34.2988 801.663 36.4765 798.206 37.9959C794.75 39.5152 790.633 40.2749 785.855 40.2749H769.614L775.104 34.8812V55.0884H762.752ZM796.681 55.0884L783.338 35.7928H796.529L810.024 55.0884H796.681ZM775.104 36.2486L769.614 30.4751H785.168C788.981 30.4751 791.827 29.6648 793.708 28.0442C795.588 26.3729 796.529 24.0939 796.529 21.2072C796.529 18.2698 795.588 15.9908 793.708 14.3702C791.827 12.7495 788.981 11.9392 785.168 11.9392H769.614L775.104 6.08978V36.2486Z"/>
<path d="M836.355 56C832.086 56 827.994 55.4429 824.08 54.3287C820.166 53.1639 817.015 51.6699 814.626 49.8467L818.819 40.5787C821.106 42.1994 823.8 43.5414 826.901 44.605C830.052 45.6179 833.229 46.1243 836.432 46.1243C838.871 46.1243 840.828 45.8964 842.302 45.4406C843.827 44.9342 844.946 44.2505 845.657 43.3895C846.369 42.5285 846.725 41.541 846.725 40.4268C846.725 39.0088 846.165 37.8946 845.047 37.0843C843.929 36.2233 842.455 35.5396 840.625 35.0332C838.795 34.4761 836.762 33.9696 834.525 33.5138C832.34 33.0074 830.129 32.3996 827.892 31.6906C825.707 30.9816 823.699 30.07 821.869 28.9558C820.039 27.8416 818.54 26.3729 817.37 24.5497C816.252 22.7265 815.693 20.3969 815.693 17.5608C815.693 14.5221 816.506 11.762 818.133 9.28039C819.81 6.74816 822.301 4.7477 825.605 3.279C828.96 1.75967 833.153 1 838.185 1C841.54 1 844.844 1.40516 848.097 2.21547C851.35 2.97514 854.222 4.13996 856.713 5.70994L852.9 15.0539C850.41 13.6358 847.919 12.5976 845.428 11.9392C842.938 11.2302 840.498 10.8757 838.109 10.8757C835.72 10.8757 833.763 11.1542 832.238 11.7113C830.713 12.2684 829.62 13.0028 828.96 13.9144C828.299 14.7753 827.968 15.7882 827.968 16.953C827.968 18.3204 828.528 19.4346 829.646 20.2956C830.764 21.1059 832.238 21.7643 834.068 22.2707C835.898 22.7772 837.906 23.2836 840.091 23.7901C842.328 24.2965 844.539 24.8789 846.725 25.5373C848.961 26.1957 850.994 27.082 852.824 28.1961C854.654 29.3103 856.128 30.779 857.246 32.6022C858.415 34.4254 859 36.7297 859 39.5152C859 42.5032 858.161 45.238 856.484 47.7196C854.807 50.2012 852.29 52.2017 848.936 53.721C845.632 55.2403 841.438 56 836.355 56Z"/>
</mask>
<path d="M359.278 56C355.059 56 351.145 55.3163 347.536 53.9489C343.978 52.5815 340.878 50.657 338.234 48.1754C335.642 45.6938 333.609 42.7818 332.135 39.4392C330.712 36.0967 330 32.4503 330 28.5C330 24.5497 330.712 20.9033 332.135 17.5608C333.609 14.2182 335.668 11.3062 338.311 8.82458C340.954 6.343 344.054 4.41851 347.613 3.0511C351.171 1.6837 355.034 1 359.202 1C363.421 1 367.284 1.6837 370.791 3.0511C374.349 4.41851 377.424 6.343 380.017 8.82458C382.66 11.3062 384.718 14.2182 386.192 17.5608C387.666 20.8527 388.403 24.4991 388.403 28.5C388.403 32.4503 387.666 36.122 386.192 39.5152C384.718 42.8577 382.66 45.7698 380.017 48.2514C377.424 50.6823 374.349 52.5815 370.791 53.9489C367.284 55.3163 363.446 56 359.278 56ZM359.202 45.5166C361.591 45.5166 363.776 45.1114 365.759 44.3011C367.792 43.4908 369.571 42.326 371.096 40.8066C372.621 39.2873 373.79 37.4894 374.603 35.413C375.467 33.3366 375.899 31.0322 375.899 28.5C375.899 25.9678 375.467 23.6634 374.603 21.587C373.79 19.5106 372.621 17.7127 371.096 16.1934C369.622 14.674 367.868 13.5092 365.835 12.6989C363.802 11.8886 361.591 11.4834 359.202 11.4834C356.813 11.4834 354.602 11.8886 352.568 12.6989C350.586 13.5092 348.832 14.674 347.308 16.1934C345.783 17.7127 344.588 19.5106 343.724 21.587C342.911 23.6634 342.504 25.9678 342.504 28.5C342.504 30.9816 342.911 33.2859 343.724 35.413C344.588 37.4894 345.757 39.2873 347.231 40.8066C348.756 42.326 350.535 43.4908 352.568 44.3011C354.602 45.1114 356.813 45.5166 359.202 45.5166Z" fill="#F0F0F0" fill-opacity="0.05"/>
<path d="M421.398 56C413.825 56 407.903 53.8983 403.633 49.6948C399.364 45.4913 397.229 39.4899 397.229 31.6906V1.9116H409.58V31.2348C409.58 36.2993 410.622 39.9457 412.706 42.174C414.79 44.4024 417.713 45.5166 421.475 45.5166C425.236 45.5166 428.159 44.4024 430.243 42.174C432.327 39.9457 433.369 36.2993 433.369 31.2348V1.9116H445.568V31.6906C445.568 39.4899 443.433 45.4913 439.163 49.6948C434.894 53.8983 428.972 56 421.398 56Z" fill="#F0F0F0" fill-opacity="0.05"/>
<path d="M467.936 55.0884V11.9392H450.857V1.9116H497.366V11.9392H480.287V55.0884H467.936Z" fill="#F0F0F0" fill-opacity="0.05"/>
<path d="M528.809 56C524.692 56 520.854 55.3416 517.296 54.0249C513.789 52.6575 510.739 50.733 508.147 48.2514C505.555 45.7698 503.521 42.8577 502.047 39.5152C500.624 36.1727 499.913 32.5009 499.913 28.5C499.913 24.4991 500.624 20.8273 502.047 17.4848C503.521 14.1423 505.555 11.2302 508.147 8.74862C510.79 6.26703 513.865 4.36786 517.373 3.0511C520.88 1.6837 524.717 1 528.885 1C533.511 1 537.679 1.81031 541.39 3.43094C545.151 5.00092 548.302 7.33057 550.844 10.4199L542.915 17.7127C541.085 15.6363 539.051 14.0916 536.815 13.0787C534.578 12.0152 532.139 11.4834 529.495 11.4834C527.005 11.4834 524.717 11.8886 522.633 12.6989C520.549 13.5092 518.745 14.674 517.22 16.1934C515.695 17.7127 514.501 19.5106 513.637 21.587C512.823 23.6634 512.417 25.9678 512.417 28.5C512.417 31.0322 512.823 33.3366 513.637 35.413C514.501 37.4894 515.695 39.2873 517.22 40.8066C518.745 42.326 520.549 43.4908 522.633 44.3011C524.717 45.1114 527.005 45.5166 529.495 45.5166C532.139 45.5166 534.578 45.0101 536.815 43.9972C539.051 42.9337 541.085 41.3384 542.915 39.2113L550.844 46.5041C548.302 49.5935 545.151 51.9484 541.39 53.5691C537.679 55.1897 533.486 56 528.809 56Z" fill="#F0F0F0" fill-opacity="0.05"/>
<path d="M551.203 55.0884L574.991 1.9116H587.19L611.055 55.0884H598.093L578.574 8.14088H583.454L563.859 55.0884H551.203ZM563.097 43.6934L566.375 34.3494H593.823L597.178 43.6934H563.097Z" fill="#F0F0F0" fill-opacity="0.05"/>
<path d="M634.128 56C629.858 56 625.767 55.4429 621.853 54.3287C617.939 53.1639 614.787 51.6699 612.398 49.8467L616.592 40.5787C618.879 42.1994 621.573 43.5414 624.674 44.605C627.825 45.6179 631.002 46.1243 634.204 46.1243C636.644 46.1243 638.601 45.8964 640.075 45.4406C641.6 44.9342 642.718 44.2505 643.43 43.3895C644.142 42.5285 644.497 41.541 644.497 40.4268C644.497 39.0088 643.938 37.8946 642.82 37.0843C641.702 36.2233 640.228 35.5396 638.398 35.0332C636.568 34.4761 634.535 33.9696 632.298 33.5138C630.113 33.0074 627.902 32.3996 625.665 31.6906C623.479 30.9816 621.472 30.07 619.642 28.9558C617.812 27.8416 616.312 26.3729 615.143 24.5497C614.025 22.7265 613.466 20.3969 613.466 17.5608C613.466 14.5221 614.279 11.762 615.906 9.28039C617.583 6.74816 620.074 4.7477 623.378 3.279C626.732 1.75967 630.926 1 635.958 1C639.313 1 642.617 1.40516 645.87 2.21547C649.123 2.97514 651.995 4.13996 654.486 5.70994L650.673 15.0539C648.183 13.6358 645.692 12.5976 643.201 11.9392C640.711 11.2302 638.271 10.8757 635.882 10.8757C633.493 10.8757 631.536 11.1542 630.011 11.7113C628.486 12.2684 627.393 13.0028 626.732 13.9144C626.072 14.7753 625.741 15.7882 625.741 16.953C625.741 18.3204 626.3 19.4346 627.419 20.2956C628.537 21.1059 630.011 21.7643 631.841 22.2707C633.671 22.7772 635.678 23.2836 637.864 23.7901C640.101 24.2965 642.312 24.8789 644.497 25.5373C646.734 26.1957 648.767 27.082 650.597 28.1961C652.427 29.3103 653.901 30.779 655.019 32.6022C656.188 34.4254 656.773 36.7297 656.773 39.5152C656.773 42.5032 655.934 45.238 654.257 47.7196C652.579 50.2012 650.063 52.2017 646.709 53.721C643.405 55.2403 639.211 56 634.128 56Z" fill="#F0F0F0" fill-opacity="0.05"/>
<path d="M675.524 55.0884V11.9392H658.445V1.9116H704.954V11.9392H687.875V55.0884H675.524Z" fill="#F0F0F0" fill-opacity="0.05"/>
<path d="M722.96 23.3343H748.655V32.9061H722.96V23.3343ZM723.875 45.2127H752.925V55.0884H711.6V1.9116H751.933V11.7873H723.875V45.2127Z" fill="#F0F0F0" fill-opacity="0.05"/>
<path d="M762.752 55.0884V1.9116H785.855C790.633 1.9116 794.75 2.69659 798.206 4.26657C801.663 5.78591 804.331 7.98895 806.212 10.8757C808.093 13.7624 809.033 17.2063 809.033 21.2072C809.033 25.1575 808.093 28.576 806.212 31.4627C804.331 34.2988 801.663 36.4765 798.206 37.9959C794.75 39.5152 790.633 40.2749 785.855 40.2749H769.614L775.104 34.8812V55.0884H762.752ZM796.681 55.0884L783.338 35.7928H796.529L810.024 55.0884H796.681ZM775.104 36.2486L769.614 30.4751H785.168C788.981 30.4751 791.827 29.6648 793.708 28.0442C795.588 26.3729 796.529 24.0939 796.529 21.2072C796.529 18.2698 795.588 15.9908 793.708 14.3702C791.827 12.7495 788.981 11.9392 785.168 11.9392H769.614L775.104 6.08978V36.2486Z" fill="#F0F0F0" fill-opacity="0.05"/>
<path d="M836.355 56C832.086 56 827.994 55.4429 824.08 54.3287C820.166 53.1639 817.015 51.6699 814.626 49.8467L818.819 40.5787C821.106 42.1994 823.8 43.5414 826.901 44.605C830.052 45.6179 833.229 46.1243 836.432 46.1243C838.871 46.1243 840.828 45.8964 842.302 45.4406C843.827 44.9342 844.946 44.2505 845.657 43.3895C846.369 42.5285 846.725 41.541 846.725 40.4268C846.725 39.0088 846.165 37.8946 845.047 37.0843C843.929 36.2233 842.455 35.5396 840.625 35.0332C838.795 34.4761 836.762 33.9696 834.525 33.5138C832.34 33.0074 830.129 32.3996 827.892 31.6906C825.707 30.9816 823.699 30.07 821.869 28.9558C820.039 27.8416 818.54 26.3729 817.37 24.5497C816.252 22.7265 815.693 20.3969 815.693 17.5608C815.693 14.5221 816.506 11.762 818.133 9.28039C819.81 6.74816 822.301 4.7477 825.605 3.279C828.96 1.75967 833.153 1 838.185 1C841.54 1 844.844 1.40516 848.097 2.21547C851.35 2.97514 854.222 4.13996 856.713 5.70994L852.9 15.0539C850.41 13.6358 847.919 12.5976 845.428 11.9392C842.938 11.2302 840.498 10.8757 838.109 10.8757C835.72 10.8757 833.763 11.1542 832.238 11.7113C830.713 12.2684 829.62 13.0028 828.96 13.9144C828.299 14.7753 827.968 15.7882 827.968 16.953C827.968 18.3204 828.528 19.4346 829.646 20.2956C830.764 21.1059 832.238 21.7643 834.068 22.2707C835.898 22.7772 837.906 23.2836 840.091 23.7901C842.328 24.2965 844.539 24.8789 846.725 25.5373C848.961 26.1957 850.994 27.082 852.824 28.1961C854.654 29.3103 856.128 30.779 857.246 32.6022C858.415 34.4254 859 36.7297 859 39.5152C859 42.5032 858.161 45.238 856.484 47.7196C854.807 50.2012 852.29 52.2017 848.936 53.721C845.632 55.2403 841.438 56 836.355 56Z" fill="#F0F0F0" fill-opacity="0.05"/>
<path d="M359.278 56C355.059 56 351.145 55.3163 347.536 53.9489C343.978 52.5815 340.878 50.657 338.234 48.1754C335.642 45.6938 333.609 42.7818 332.135 39.4392C330.712 36.0967 330 32.4503 330 28.5C330 24.5497 330.712 20.9033 332.135 17.5608C333.609 14.2182 335.668 11.3062 338.311 8.82458C340.954 6.343 344.054 4.41851 347.613 3.0511C351.171 1.6837 355.034 1 359.202 1C363.421 1 367.284 1.6837 370.791 3.0511C374.349 4.41851 377.424 6.343 380.017 8.82458C382.66 11.3062 384.718 14.2182 386.192 17.5608C387.666 20.8527 388.403 24.4991 388.403 28.5C388.403 32.4503 387.666 36.122 386.192 39.5152C384.718 42.8577 382.66 45.7698 380.017 48.2514C377.424 50.6823 374.349 52.5815 370.791 53.9489C367.284 55.3163 363.446 56 359.278 56ZM359.202 45.5166C361.591 45.5166 363.776 45.1114 365.759 44.3011C367.792 43.4908 369.571 42.326 371.096 40.8066C372.621 39.2873 373.79 37.4894 374.603 35.413C375.467 33.3366 375.899 31.0322 375.899 28.5C375.899 25.9678 375.467 23.6634 374.603 21.587C373.79 19.5106 372.621 17.7127 371.096 16.1934C369.622 14.674 367.868 13.5092 365.835 12.6989C363.802 11.8886 361.591 11.4834 359.202 11.4834C356.813 11.4834 354.602 11.8886 352.568 12.6989C350.586 13.5092 348.832 14.674 347.308 16.1934C345.783 17.7127 344.588 19.5106 343.724 21.587C342.911 23.6634 342.504 25.9678 342.504 28.5C342.504 30.9816 342.911 33.2859 343.724 35.413C344.588 37.4894 345.757 39.2873 347.231 40.8066C348.756 42.326 350.535 43.4908 352.568 44.3011C354.602 45.1114 356.813 45.5166 359.202 45.5166Z" stroke="url(#paint0_linear_1319_1834)" stroke-width="2" mask="url(#path-2-outside-1_1319_1834)"/>
<path d="M421.398 56C413.825 56 407.903 53.8983 403.633 49.6948C399.364 45.4913 397.229 39.4899 397.229 31.6906V1.9116H409.58V31.2348C409.58 36.2993 410.622 39.9457 412.706 42.174C414.79 44.4024 417.713 45.5166 421.475 45.5166C425.236 45.5166 428.159 44.4024 430.243 42.174C432.327 39.9457 433.369 36.2993 433.369 31.2348V1.9116H445.568V31.6906C445.568 39.4899 443.433 45.4913 439.163 49.6948C434.894 53.8983 428.972 56 421.398 56Z" stroke="url(#paint1_linear_1319_1834)" stroke-width="2" mask="url(#path-2-outside-1_1319_1834)"/>
<path d="M467.936 55.0884V11.9392H450.857V1.9116H497.366V11.9392H480.287V55.0884H467.936Z" stroke="url(#paint2_linear_1319_1834)" stroke-width="2" mask="url(#path-2-outside-1_1319_1834)"/>
<path d="M528.809 56C524.692 56 520.854 55.3416 517.296 54.0249C513.789 52.6575 510.739 50.733 508.147 48.2514C505.555 45.7698 503.521 42.8577 502.047 39.5152C500.624 36.1727 499.913 32.5009 499.913 28.5C499.913 24.4991 500.624 20.8273 502.047 17.4848C503.521 14.1423 505.555 11.2302 508.147 8.74862C510.79 6.26703 513.865 4.36786 517.373 3.0511C520.88 1.6837 524.717 1 528.885 1C533.511 1 537.679 1.81031 541.39 3.43094C545.151 5.00092 548.302 7.33057 550.844 10.4199L542.915 17.7127C541.085 15.6363 539.051 14.0916 536.815 13.0787C534.578 12.0152 532.139 11.4834 529.495 11.4834C527.005 11.4834 524.717 11.8886 522.633 12.6989C520.549 13.5092 518.745 14.674 517.22 16.1934C515.695 17.7127 514.501 19.5106 513.637 21.587C512.823 23.6634 512.417 25.9678 512.417 28.5C512.417 31.0322 512.823 33.3366 513.637 35.413C514.501 37.4894 515.695 39.2873 517.22 40.8066C518.745 42.326 520.549 43.4908 522.633 44.3011C524.717 45.1114 527.005 45.5166 529.495 45.5166C532.139 45.5166 534.578 45.0101 536.815 43.9972C539.051 42.9337 541.085 41.3384 542.915 39.2113L550.844 46.5041C548.302 49.5935 545.151 51.9484 541.39 53.5691C537.679 55.1897 533.486 56 528.809 56Z" stroke="url(#paint3_linear_1319_1834)" stroke-width="2" mask="url(#path-2-outside-1_1319_1834)"/>
<path d="M551.203 55.0884L574.991 1.9116H587.19L611.055 55.0884H598.093L578.574 8.14088H583.454L563.859 55.0884H551.203ZM563.097 43.6934L566.375 34.3494H593.823L597.178 43.6934H563.097Z" stroke="url(#paint4_linear_1319_1834)" stroke-width="2" mask="url(#path-2-outside-1_1319_1834)"/>
<path d="M634.128 56C629.858 56 625.767 55.4429 621.853 54.3287C617.939 53.1639 614.787 51.6699 612.398 49.8467L616.592 40.5787C618.879 42.1994 621.573 43.5414 624.674 44.605C627.825 45.6179 631.002 46.1243 634.204 46.1243C636.644 46.1243 638.601 45.8964 640.075 45.4406C641.6 44.9342 642.718 44.2505 643.43 43.3895C644.142 42.5285 644.497 41.541 644.497 40.4268C644.497 39.0088 643.938 37.8946 642.82 37.0843C641.702 36.2233 640.228 35.5396 638.398 35.0332C636.568 34.4761 634.535 33.9696 632.298 33.5138C630.113 33.0074 627.902 32.3996 625.665 31.6906C623.479 30.9816 621.472 30.07 619.642 28.9558C617.812 27.8416 616.312 26.3729 615.143 24.5497C614.025 22.7265 613.466 20.3969 613.466 17.5608C613.466 14.5221 614.279 11.762 615.906 9.28039C617.583 6.74816 620.074 4.7477 623.378 3.279C626.732 1.75967 630.926 1 635.958 1C639.313 1 642.617 1.40516 645.87 2.21547C649.123 2.97514 651.995 4.13996 654.486 5.70994L650.673 15.0539C648.183 13.6358 645.692 12.5976 643.201 11.9392C640.711 11.2302 638.271 10.8757 635.882 10.8757C633.493 10.8757 631.536 11.1542 630.011 11.7113C628.486 12.2684 627.393 13.0028 626.732 13.9144C626.072 14.7753 625.741 15.7882 625.741 16.953C625.741 18.3204 626.3 19.4346 627.419 20.2956C628.537 21.1059 630.011 21.7643 631.841 22.2707C633.671 22.7772 635.678 23.2836 637.864 23.7901C640.101 24.2965 642.312 24.8789 644.497 25.5373C646.734 26.1957 648.767 27.082 650.597 28.1961C652.427 29.3103 653.901 30.779 655.019 32.6022C656.188 34.4254 656.773 36.7297 656.773 39.5152C656.773 42.5032 655.934 45.238 654.257 47.7196C652.579 50.2012 650.063 52.2017 646.709 53.721C643.405 55.2403 639.211 56 634.128 56Z" stroke="url(#paint5_linear_1319_1834)" stroke-width="2" mask="url(#path-2-outside-1_1319_1834)"/>
<path d="M675.524 55.0884V11.9392H658.445V1.9116H704.954V11.9392H687.875V55.0884H675.524Z" stroke="url(#paint6_linear_1319_1834)" stroke-width="2" mask="url(#path-2-outside-1_1319_1834)"/>
<path d="M722.96 23.3343H748.655V32.9061H722.96V23.3343ZM723.875 45.2127H752.925V55.0884H711.6V1.9116H751.933V11.7873H723.875V45.2127Z" stroke="url(#paint7_linear_1319_1834)" stroke-width="2" mask="url(#path-2-outside-1_1319_1834)"/>
<path d="M762.752 55.0884V1.9116H785.855C790.633 1.9116 794.75 2.69659 798.206 4.26657C801.663 5.78591 804.331 7.98895 806.212 10.8757C808.093 13.7624 809.033 17.2063 809.033 21.2072C809.033 25.1575 808.093 28.576 806.212 31.4627C804.331 34.2988 801.663 36.4765 798.206 37.9959C794.75 39.5152 790.633 40.2749 785.855 40.2749H769.614L775.104 34.8812V55.0884H762.752ZM796.681 55.0884L783.338 35.7928H796.529L810.024 55.0884H796.681ZM775.104 36.2486L769.614 30.4751H785.168C788.981 30.4751 791.827 29.6648 793.708 28.0442C795.588 26.3729 796.529 24.0939 796.529 21.2072C796.529 18.2698 795.588 15.9908 793.708 14.3702C791.827 12.7495 788.981 11.9392 785.168 11.9392H769.614L775.104 6.08978V36.2486Z" stroke="url(#paint8_linear_1319_1834)" stroke-width="2" mask="url(#path-2-outside-1_1319_1834)"/>
<path d="M836.355 56C832.086 56 827.994 55.4429 824.08 54.3287C820.166 53.1639 817.015 51.6699 814.626 49.8467L818.819 40.5787C821.106 42.1994 823.8 43.5414 826.901 44.605C830.052 45.6179 833.229 46.1243 836.432 46.1243C838.871 46.1243 840.828 45.8964 842.302 45.4406C843.827 44.9342 844.946 44.2505 845.657 43.3895C846.369 42.5285 846.725 41.541 846.725 40.4268C846.725 39.0088 846.165 37.8946 845.047 37.0843C843.929 36.2233 842.455 35.5396 840.625 35.0332C838.795 34.4761 836.762 33.9696 834.525 33.5138C832.34 33.0074 830.129 32.3996 827.892 31.6906C825.707 30.9816 823.699 30.07 821.869 28.9558C820.039 27.8416 818.54 26.3729 817.37 24.5497C816.252 22.7265 815.693 20.3969 815.693 17.5608C815.693 14.5221 816.506 11.762 818.133 9.28039C819.81 6.74816 822.301 4.7477 825.605 3.279C828.96 1.75967 833.153 1 838.185 1C841.54 1 844.844 1.40516 848.097 2.21547C851.35 2.97514 854.222 4.13996 856.713 5.70994L852.9 15.0539C850.41 13.6358 847.919 12.5976 845.428 11.9392C842.938 11.2302 840.498 10.8757 838.109 10.8757C835.72 10.8757 833.763 11.1542 832.238 11.7113C830.713 12.2684 829.62 13.0028 828.96 13.9144C828.299 14.7753 827.968 15.7882 827.968 16.953C827.968 18.3204 828.528 19.4346 829.646 20.2956C830.764 21.1059 832.238 21.7643 834.068 22.2707C835.898 22.7772 837.906 23.2836 840.091 23.7901C842.328 24.2965 844.539 24.8789 846.725 25.5373C848.961 26.1957 850.994 27.082 852.824 28.1961C854.654 29.3103 856.128 30.779 857.246 32.6022C858.415 34.4254 859 36.7297 859 39.5152C859 42.5032 858.161 45.238 856.484 47.7196C854.807 50.2012 852.29 52.2017 848.936 53.721C845.632 55.2403 841.438 56 836.355 56Z" stroke="url(#paint9_linear_1319_1834)" stroke-width="2" mask="url(#path-2-outside-1_1319_1834)"/>
</g>
<defs>
<filter id="filter0_b_1319_1834" x="309" y="-20" width="571" height="97" filterUnits="userSpaceOnUse" color-interpolation-filters="sRGB">
<feFlood flood-opacity="0" result="BackgroundImageFix"/>
<feGaussianBlur in="BackgroundImageFix" stdDeviation="10"/>
<feComposite in2="SourceAlpha" operator="in" result="effect1_backgroundBlur_1319_1834"/>
<feBlend mode="normal" in="SourceGraphic" in2="effect1_backgroundBlur_1319_1834" result="shape"/>
</filter>
<linearGradient id="paint0_linear_1319_1834" x1="594.5" y1="-20.8784" x2="594.5" y2="70.9149" gradientUnits="userSpaceOnUse">
<stop stop-color="#F0F0F0"/>
<stop offset="1" stop-color="#F0F0F0" stop-opacity="0"/>
</linearGradient>
<linearGradient id="paint1_linear_1319_1834" x1="594.5" y1="-20.8784" x2="594.5" y2="70.9149" gradientUnits="userSpaceOnUse">
<stop stop-color="#F0F0F0"/>
<stop offset="1" stop-color="#F0F0F0" stop-opacity="0"/>
</linearGradient>
<linearGradient id="paint2_linear_1319_1834" x1="594.5" y1="-20.8784" x2="594.5" y2="70.9149" gradientUnits="userSpaceOnUse">
<stop stop-color="#F0F0F0"/>
<stop offset="1" stop-color="#F0F0F0" stop-opacity="0"/>
</linearGradient>
<linearGradient id="paint3_linear_1319_1834" x1="594.5" y1="-20.8784" x2="594.5" y2="70.9149" gradientUnits="userSpaceOnUse">
<stop stop-color="#F0F0F0"/>
<stop offset="1" stop-color="#F0F0F0" stop-opacity="0"/>
</linearGradient>
<linearGradient id="paint4_linear_1319_1834" x1="594.5" y1="-20.8784" x2="594.5" y2="70.9149" gradientUnits="userSpaceOnUse">
<stop stop-color="#F0F0F0"/>
<stop offset="1" stop-color="#F0F0F0" stop-opacity="0"/>
</linearGradient>
<linearGradient id="paint5_linear_1319_1834" x1="594.5" y1="-20.8784" x2="594.5" y2="70.9149" gradientUnits="userSpaceOnUse">
<stop stop-color="#F0F0F0"/>
<stop offset="1" stop-color="#F0F0F0" stop-opacity="0"/>
</linearGradient>
<linearGradient id="paint6_linear_1319_1834" x1="594.5" y1="-20.8784" x2="594.5" y2="70.9149" gradientUnits="userSpaceOnUse">
<stop stop-color="#F0F0F0"/>
<stop offset="1" stop-color="#F0F0F0" stop-opacity="0"/>
</linearGradient>
<linearGradient id="paint7_linear_1319_1834" x1="594.5" y1="-20.8784" x2="594.5" y2="70.9149" gradientUnits="userSpaceOnUse">
<stop stop-color="#F0F0F0"/>
<stop offset="1" stop-color="#F0F0F0" stop-opacity="0"/>
</linearGradient>
<linearGradient id="paint8_linear_1319_1834" x1="594.5" y1="-20.8784" x2="594.5" y2="70.9149" gradientUnits="userSpaceOnUse">
<stop stop-color="#F0F0F0"/>
<stop offset="1" stop-color="#F0F0F0" stop-opacity="0"/>
</linearGradient>
<linearGradient id="paint9_linear_1319_1834" x1="594.5" y1="-20.8784" x2="594.5" y2="70.9149" gradientUnits="userSpaceOnUse">
<stop stop-color="#F0F0F0"/>
<stop offset="1" stop-color="#F0F0F0" stop-opacity="0"/>
</linearGradient>
</defs>
</svg>
