<svg width="24" height="24" viewBox="0 0 24 24" fill="none" xmlns="http://www.w3.org/2000/svg">
<g clip-path="url(#clip0_35_140)">
<mask id="mask0_35_140" style="mask-type:luminance" maskUnits="userSpaceOnUse" x="0" y="0" width="24" height="24">
<path d="M24 0H0V24H24V0Z" fill="white"/>
</mask>
<g mask="url(#mask0_35_140)">
<path d="M12.7192 8.01407C12.7249 16.7796 12.7333 16.2422 12.5636 16.9776C12.1337 18.8415 10.8863 19.9616 9.24299 19.9616C8.25018 19.9616 7.29981 19.56 6.56723 18.8331C5.82333 18.092 5.48674 17.1784 5.54048 16.0555C5.56311 15.6086 5.64231 15.2833 5.82616 14.8986C5.99587 14.5422 6.17124 14.3046 6.46257 14.0303C7.11879 13.4193 8.12573 12.995 9.65877 12.6867L10.0604 12.6047V10.588V8.57129L9.85111 8.57977C7.7552 8.66746 5.80353 9.33498 4.41757 10.4409C4.12907 10.67 3.57185 11.2272 3.34274 11.5129C2.48005 12.5877 1.96527 13.8323 1.75596 15.3568C1.70505 15.7161 1.70505 16.8503 1.75596 17.2434C1.99072 19.1329 2.78836 20.7536 4.10927 22.0264C5.15015 23.0305 6.38621 23.6556 7.80328 23.8961C8.40575 24.0007 9.41552 24.0007 10.0321 23.8961C11.568 23.6387 12.9568 22.9372 14.0797 21.8482C15.5703 20.4029 16.4274 18.5417 16.7017 16.146C16.7244 15.9423 16.7385 14.5847 16.747 11.8495L16.7611 7.85002L17.0807 8.0367C18.3564 8.77777 19.5048 9.23316 20.5287 9.40287C20.9077 9.46509 21.5385 9.50186 21.9458 9.48489L22.2823 9.47075V7.54454V5.61551H22.1692C21.9684 5.61551 21.2782 5.50237 20.936 5.41186C19.5727 5.05547 18.5487 4.354 17.8218 3.27351C17.2646 2.44477 16.8856 1.39539 16.7272 0.232878L16.6904 -0.0273438H14.702H12.7135L12.7192 8.01407Z" fill="white"/>
</g>
</g>
<defs>
<clipPath id="clip0_35_140">
<rect width="24" height="24" fill="white"/>
</clipPath>
</defs>
</svg>
