<svg width="37" height="36" viewBox="0 0 37 36" fill="none" xmlns="http://www.w3.org/2000/svg">
<g clip-path="url(#clip0_99_251)">
<path d="M28.0625 0H8.9375C4.2776 0 0.5 3.7776 0.5 8.4375V27.5625C0.5 32.2224 4.2776 36 8.9375 36H28.0625C32.7224 36 36.5 32.2224 36.5 27.5625V8.4375C36.5 3.7776 32.7224 0 28.0625 0Z" fill="url(#paint0_radial_99_251)"/>
<path d="M28.0625 0H8.9375C4.2776 0 0.5 3.7776 0.5 8.4375V27.5625C0.5 32.2224 4.2776 36 8.9375 36H28.0625C32.7224 36 36.5 32.2224 36.5 27.5625V8.4375C36.5 3.7776 32.7224 0 28.0625 0Z" fill="url(#paint1_radial_99_251)"/>
<path d="M18.5013 3.9375C14.6822 3.9375 14.2028 3.95423 12.7029 4.02244C11.2058 4.09106 10.1839 4.32802 9.28977 4.67578C8.36473 5.03494 7.58019 5.51545 6.79859 6.29733C6.0163 7.07906 5.53578 7.86361 5.1755 8.78822C4.82675 9.68259 4.58952 10.7049 4.52216 12.2013C4.45508 13.7014 4.4375 14.1809 4.4375 18.0001C4.4375 21.8194 4.45438 22.2972 4.52244 23.7971C4.59134 25.2942 4.8283 26.3161 5.17578 27.2102C5.53522 28.1353 6.01573 28.9198 6.79761 29.7014C7.57906 30.4837 8.36361 30.9653 9.28794 31.3245C10.1827 31.6723 11.2048 31.9092 12.7016 31.9778C14.2017 32.046 14.6806 32.0628 18.4996 32.0628C22.3191 32.0628 22.7969 32.046 24.2968 31.9778C25.7939 31.9092 26.817 31.6723 27.7118 31.3245C28.6364 30.9653 29.4198 30.4837 30.2011 29.7014C30.9834 28.9198 31.4638 28.1353 31.8242 27.2107C32.1699 26.3161 32.4072 25.2939 32.4776 23.7974C32.5449 22.2975 32.5625 21.8194 32.5625 18.0001C32.5625 14.1809 32.5449 13.7017 32.4776 12.2016C32.4072 10.7045 32.1699 9.68273 31.8242 8.78864C31.4638 7.86361 30.9834 7.07906 30.2011 6.29733C29.419 5.51517 28.6367 5.03466 27.7109 4.67592C26.8145 4.32802 25.792 4.09092 24.2949 4.02244C22.7948 3.95423 22.3173 3.9375 18.4969 3.9375H18.5013ZM17.2397 6.4717C17.6142 6.47114 18.032 6.4717 18.5013 6.4717C22.2561 6.4717 22.701 6.4852 24.1838 6.55256C25.5549 6.61528 26.2991 6.84436 26.7948 7.03688C27.4511 7.29169 27.9189 7.59642 28.4108 8.08875C28.903 8.58094 29.2076 9.04964 29.4631 9.70594C29.6556 10.2009 29.885 10.9451 29.9474 12.3162C30.0148 13.7987 30.0294 14.2439 30.0294 17.9969C30.0294 21.7499 30.0148 22.1953 29.9474 23.6776C29.8847 25.0487 29.6556 25.7929 29.4631 26.288C29.2083 26.9443 28.903 27.4116 28.4108 27.9035C27.9186 28.3957 27.4513 28.7003 26.7948 28.9553C26.2996 29.1486 25.5549 29.3771 24.1838 29.4398C22.7013 29.5072 22.2561 29.5218 18.5013 29.5218C14.7463 29.5218 14.3012 29.5072 12.8189 29.4398C11.4478 29.3766 10.7036 29.1475 10.2075 28.955C9.55133 28.7 9.08248 28.3954 8.5903 27.9032C8.09811 27.411 7.79352 26.9435 7.538 26.2869C7.34548 25.7917 7.11613 25.0476 7.05369 23.6765C6.98633 22.194 6.97283 21.7488 6.97283 17.9934C6.97283 14.2381 6.98633 13.7952 7.05369 12.3127C7.11641 10.9416 7.34548 10.1974 7.538 9.70172C7.79295 9.04542 8.09811 8.57672 8.59044 8.08453C9.08263 7.59234 9.55133 7.28761 10.2076 7.03223C10.7033 6.83888 11.4478 6.61036 12.8189 6.54736C14.1162 6.48872 14.6189 6.47114 17.2397 6.46819V6.4717ZM26.0078 8.80664C25.0762 8.80664 24.3203 9.5618 24.3203 10.4936C24.3203 11.4252 25.0762 12.1811 26.0078 12.1811C26.9395 12.1811 27.6953 11.4252 27.6953 10.4936C27.6953 9.56194 26.9395 8.80608 26.0078 8.80608V8.80664ZM18.5013 10.7783C14.5131 10.7783 11.2796 14.0119 11.2796 18.0001C11.2796 21.9884 14.5131 25.2204 18.5013 25.2204C22.4895 25.2204 25.7219 21.9884 25.7219 18.0001C25.7219 14.012 22.4893 10.7783 18.501 10.7783H18.5013ZM18.5013 13.3125C21.09 13.3125 23.1889 15.4111 23.1889 18.0001C23.1889 20.5889 21.09 22.6877 18.5013 22.6877C15.9124 22.6877 13.8138 20.5889 13.8138 18.0001C13.8138 15.4111 15.9124 13.3125 18.5013 13.3125Z" fill="white"/>
</g>
<defs>
<radialGradient id="paint0_radial_99_251" cx="0" cy="0" r="1" gradientUnits="userSpaceOnUse" gradientTransform="translate(10.0625 38.7727) rotate(-90) scale(35.6787 33.184)">
<stop stop-color="#FFDD55"/>
<stop offset="0.1" stop-color="#FFDD55"/>
<stop offset="0.5" stop-color="#FF543E"/>
<stop offset="1" stop-color="#C837AB"/>
</radialGradient>
<radialGradient id="paint1_radial_99_251" cx="0" cy="0" r="1" gradientUnits="userSpaceOnUse" gradientTransform="translate(-5.53014 2.59327) rotate(78.681) scale(15.9486 65.7405)">
<stop stop-color="#3771C8"/>
<stop offset="0.128" stop-color="#3771C8"/>
<stop offset="1" stop-color="#6600FF" stop-opacity="0"/>
</radialGradient>
<clipPath id="clip0_99_251">
<rect width="36" height="36" fill="white" transform="translate(0.5)"/>
</clipPath>
</defs>
</svg>
