<svg width="37" height="36" viewBox="0 0 37 36" fill="none" xmlns="http://www.w3.org/2000/svg">
<g clip-path="url(#clip0_99_262)">
<path d="M36.5 18C36.5 8.05894 28.4411 0 18.5 0C8.55894 0 0.5 8.0588 0.5 18C0.5 26.9842 7.08237 34.431 15.6875 35.7813V23.2031H11.1172V18H15.6875V14.0344C15.6875 9.52312 18.3748 7.03125 22.4863 7.03125C24.4557 7.03125 26.5156 7.38281 26.5156 7.38281V11.8125H24.2459C22.0097 11.8125 21.3125 13.2 21.3125 14.6236V18H26.3047L25.5066 23.2031H21.3125V35.7813C29.9176 34.431 36.5 26.9844 36.5 18Z" fill="#1877F2"/>
<path d="M25.5066 23.2031L26.3047 18H21.3125V14.6236C21.3125 13.1999 22.0099 11.8125 24.2459 11.8125H26.5156V7.38281C26.5156 7.38281 24.4558 7.03125 22.4863 7.03125C18.3748 7.03125 15.6875 9.52313 15.6875 14.0344V18H11.1172V23.2031H15.6875V35.7813C16.6179 35.9271 17.5582 36.0002 18.5 36C19.4418 36.0003 20.3821 35.9272 21.3125 35.7813V23.2031H25.5066Z" fill="white"/>
</g>
<defs>
<clipPath id="clip0_99_262">
<rect width="36" height="36" fill="white" transform="translate(0.5)"/>
</clipPath>
</defs>
</svg>
