<svg width="37" height="36" viewBox="0 0 37 36" fill="none" xmlns="http://www.w3.org/2000/svg">
<g clip-path="url(#clip0_99_256)">
<path d="M28.0625 0H8.9375C4.2776 0 0.5 3.7776 0.5 8.4375V27.5625C0.5 32.2224 4.2776 36 8.9375 36H28.0625C32.7224 36 36.5 32.2224 36.5 27.5625V8.4375C36.5 3.7776 32.7224 0 28.0625 0Z" fill="white"/>
<path d="M28.0625 0H8.9375C4.2776 0 0.5 3.7776 0.5 8.4375V27.5625C0.5 32.2224 4.2776 36 8.9375 36H28.0625C32.7224 36 36.5 32.2224 36.5 27.5625V8.4375C36.5 3.7776 32.7224 0 28.0625 0Z" fill="#0A66C2"/>
<path d="M26.4755 30.612H30.5916C30.7408 30.612 30.8839 30.5527 30.9893 30.4473C31.0948 30.3418 31.1541 30.1988 31.1541 30.0496L31.1562 21.3531C31.1562 16.8076 30.1768 13.3138 24.865 13.3138C22.8457 13.2387 20.9415 14.2796 19.914 16.0177C19.909 16.0262 19.9013 16.0328 19.8922 16.0364C19.8831 16.0401 19.873 16.0407 19.8636 16.0382C19.8541 16.0356 19.8457 16.03 19.8397 16.0222C19.8337 16.0145 19.8304 16.0049 19.8303 15.9951V14.2959C19.8303 14.1468 19.771 14.0037 19.6656 13.8982C19.5601 13.7927 19.417 13.7334 19.2678 13.7334H15.3617C15.2125 13.7334 15.0694 13.7927 14.9639 13.8982C14.8584 14.0037 14.7992 14.1468 14.7992 14.2959V30.0487C14.7992 30.1979 14.8584 30.341 14.9639 30.4465C15.0694 30.552 15.2125 30.6112 15.3617 30.6112H19.4775C19.6267 30.6112 19.7697 30.552 19.8752 30.4465C19.9807 30.341 20.04 30.1979 20.04 30.0487V22.2619C20.04 20.0602 20.4576 17.9279 23.1873 17.9279C25.8782 17.9279 25.913 20.4473 25.913 22.4045V30.0495C25.913 30.1986 25.9723 30.3417 26.0778 30.4472C26.1833 30.5527 26.3264 30.612 26.4755 30.612ZM5.84375 8.38505C5.84375 10.0536 7.21723 11.4263 8.88575 11.4263C10.5538 11.4262 11.9265 10.0526 11.9265 8.38448C11.9262 6.71639 10.5534 5.34375 8.88519 5.34375C7.21653 5.34375 5.84375 6.71667 5.84375 8.38505ZM6.82236 30.612H10.9437C11.0928 30.612 11.2359 30.5527 11.3414 30.4472C11.4469 30.3417 11.5062 30.1986 11.5062 30.0495V14.2959C11.5062 14.1468 11.4469 14.0037 11.3414 13.8982C11.2359 13.7927 11.0928 13.7334 10.9437 13.7334H6.82236C6.67318 13.7334 6.5301 13.7927 6.42461 13.8982C6.31912 14.0037 6.25986 14.1468 6.25986 14.2959V30.0495C6.25986 30.1986 6.31912 30.3417 6.42461 30.4472C6.5301 30.5527 6.67318 30.612 6.82236 30.612Z" fill="white"/>
</g>
<defs>
<clipPath id="clip0_99_256">
<rect width="36" height="36" fill="white" transform="translate(0.5)"/>
</clipPath>
</defs>
</svg>
