<svg width="472" height="47" viewBox="0 0 472 47" fill="none" xmlns="http://www.w3.org/2000/svg">
<g filter="url(#filter0_b_1348_1834)">
<path d="M0.312 46V1.2H10.68V37.552H33.144V46H0.312ZM59.947 46.768C56.4057 46.768 53.1203 46.192 50.091 45.04C47.1043 43.888 44.5017 42.2667 42.283 40.176C40.107 38.0853 38.4003 35.632 37.163 32.816C35.9683 30 35.371 26.928 35.371 23.6C35.371 20.272 35.9683 17.2 37.163 14.384C38.4003 11.568 40.1283 9.11467 42.347 7.024C44.5657 4.93333 47.1683 3.312 50.155 2.16C53.1417 1.008 56.3843 0.431999 59.883 0.431999C63.4243 0.431999 66.667 1.008 69.611 2.16C72.5977 3.312 75.179 4.93333 77.355 7.024C79.5737 9.11467 81.3017 11.568 82.539 14.384C83.7763 17.1573 84.395 20.2293 84.395 23.6C84.395 26.928 83.7763 30.0213 82.539 32.88C81.3017 35.696 79.5737 38.1493 77.355 40.24C75.179 42.288 72.5977 43.888 69.611 45.04C66.667 46.192 63.4457 46.768 59.947 46.768ZM59.883 37.936C61.8883 37.936 63.723 37.5947 65.387 36.912C67.0937 36.2293 68.587 35.248 69.867 33.968C71.147 32.688 72.1283 31.1733 72.811 29.424C73.5363 27.6747 73.899 25.7333 73.899 23.6C73.899 21.4667 73.5363 19.5253 72.811 17.776C72.1283 16.0267 71.147 14.512 69.867 13.232C68.6297 11.952 67.1577 10.9707 65.451 10.288C63.7443 9.60533 61.8883 9.264 59.883 9.264C57.8777 9.264 56.0217 9.60533 54.315 10.288C52.651 10.9707 51.179 11.952 49.899 13.232C48.619 14.512 47.6163 16.0267 46.891 17.776C46.2083 19.5253 45.867 21.4667 45.867 23.6C45.867 25.6907 46.2083 27.632 46.891 29.424C47.6163 31.1733 48.5977 32.688 49.835 33.968C51.115 35.248 52.6083 36.2293 54.315 36.912C56.0217 37.5947 57.8777 37.936 59.883 37.936ZM92.187 46V1.2H111.579C115.59 1.2 119.046 1.86133 121.947 3.184C124.848 4.464 127.088 6.32 128.667 8.752C130.246 11.184 131.035 14.0853 131.035 17.456C131.035 20.784 130.246 23.664 128.667 26.096C127.088 28.4853 124.848 30.32 121.947 31.6C119.046 32.88 115.59 33.52 111.579 33.52H97.947L102.555 28.976V46H92.187ZM120.667 46L109.467 29.744H120.539L131.867 46H120.667ZM102.555 30.128L97.947 25.264H111.003C114.203 25.264 116.592 24.5813 118.171 23.216C119.75 21.808 120.539 19.888 120.539 17.456C120.539 14.9813 119.75 13.0613 118.171 11.696C116.592 10.3307 114.203 9.648 111.003 9.648H97.947L102.555 4.72V30.128ZM148.786 19.248H170.354V27.312H148.786V19.248ZM149.554 37.68H173.938V46H139.25V1.2H173.106V9.52H149.554V37.68ZM182.187 46V1.2H190.763L209.835 32.816H205.291L224.043 1.2H232.555L232.683 46H222.955L222.891 16.112H224.683L209.707 41.264H205.035L189.739 16.112H191.915V46H182.187ZM261.437 46V1.2H271.805V46H261.437ZM282.437 46V1.2H301.829C305.84 1.2 309.296 1.86133 312.197 3.184C315.098 4.464 317.338 6.32 318.917 8.752C320.496 11.184 321.285 14.0853 321.285 17.456C321.285 20.784 320.496 23.664 318.917 26.096C317.338 28.528 315.098 30.4053 312.197 31.728C309.296 33.008 305.84 33.648 301.829 33.648H288.197L292.805 28.976V46H282.437ZM292.805 30.128L288.197 25.2H301.253C304.453 25.2 306.842 24.5173 308.421 23.152C310 21.7867 310.789 19.888 310.789 17.456C310.789 14.9813 310 13.0613 308.421 11.696C306.842 10.3307 304.453 9.648 301.253 9.648H288.197L292.805 4.72V30.128ZM344.032 46.768C340.448 46.768 337.013 46.2987 333.728 45.36C330.443 44.3787 327.797 43.12 325.792 41.584L329.312 33.776C331.232 35.1413 333.493 36.272 336.096 37.168C338.741 38.0213 341.408 38.448 344.096 38.448C346.144 38.448 347.787 38.256 349.024 37.872C350.304 37.4453 351.243 36.8693 351.84 36.144C352.437 35.4187 352.736 34.5867 352.736 33.648C352.736 32.4533 352.267 31.5147 351.328 30.832C350.389 30.1067 349.152 29.5307 347.616 29.104C346.08 28.6347 344.373 28.208 342.496 27.824C340.661 27.3973 338.805 26.8853 336.928 26.288C335.093 25.6907 333.408 24.9227 331.872 23.984C330.336 23.0453 329.077 21.808 328.096 20.272C327.157 18.736 326.688 16.7733 326.688 14.384C326.688 11.824 327.371 9.49866 328.736 7.408C330.144 5.27466 332.235 3.58933 335.008 2.352C337.824 1.072 341.344 0.431999 345.568 0.431999C348.384 0.431999 351.157 0.773332 353.888 1.456C356.619 2.096 359.029 3.07733 361.12 4.4L357.92 12.272C355.829 11.0773 353.739 10.2027 351.648 9.648C349.557 9.05067 347.509 8.752 345.504 8.752C343.499 8.752 341.856 8.98667 340.576 9.456C339.296 9.92533 338.379 10.544 337.824 11.312C337.269 12.0373 336.992 12.8907 336.992 13.872C336.992 15.024 337.461 15.9627 338.4 16.688C339.339 17.3707 340.576 17.9253 342.112 18.352C343.648 18.7787 345.333 19.2053 347.168 19.632C349.045 20.0587 350.901 20.5493 352.736 21.104C354.613 21.6587 356.32 22.4053 357.856 23.344C359.392 24.2827 360.629 25.52 361.568 27.056C362.549 28.592 363.04 30.5333 363.04 32.88C363.04 35.3973 362.336 37.7013 360.928 39.792C359.52 41.8827 357.408 43.568 354.592 44.848C351.819 46.128 348.299 46.768 344.032 46.768ZM390.029 46.768C383.671 46.768 378.701 44.9973 375.117 41.456C371.533 37.9147 369.741 32.8587 369.741 26.288V1.2H380.109V25.904C380.109 30.1707 380.983 33.2427 382.733 35.12C384.482 36.9973 386.935 37.936 390.093 37.936C393.25 37.936 395.703 36.9973 397.453 35.12C399.202 33.2427 400.076 30.1707 400.076 25.904V1.2H410.317V26.288C410.317 32.8587 408.525 37.9147 404.941 41.456C401.357 44.9973 396.386 46.768 390.029 46.768ZM420.562 46V1.2H429.138L448.21 32.816H443.666L462.418 1.2H470.93L471.058 46H461.33L461.266 16.112H463.058L448.082 41.264H443.41L428.114 16.112H430.29V46H420.562Z" fill="#F0F0F0" fill-opacity="0.05"/>
<path d="M0.312 46H-0.688V47H0.312V46ZM0.312 1.2V0.199997H-0.688V1.2H0.312ZM10.68 1.2H11.68V0.199997H10.68V1.2ZM10.68 37.552H9.68V38.552H10.68V37.552ZM33.144 37.552H34.144V36.552H33.144V37.552ZM33.144 46V47H34.144V46H33.144ZM1.312 46V1.2H-0.688V46H1.312ZM0.312 2.2H10.68V0.199997H0.312V2.2ZM9.68 1.2V37.552H11.68V1.2H9.68ZM10.68 38.552H33.144V36.552H10.68V38.552ZM32.144 37.552V46H34.144V37.552H32.144ZM33.144 45H0.312V47H33.144V45ZM50.091 45.04L49.7311 45.973L49.7356 45.9747L50.091 45.04ZM42.283 40.176L41.5901 40.8971L41.5972 40.9038L42.283 40.176ZM37.163 32.816L36.2423 33.2066L36.2475 33.2183L37.163 32.816ZM37.163 14.384L36.2474 13.9817L36.2424 13.9934L37.163 14.384ZM50.155 2.16L49.7951 1.22699L49.7951 1.22699L50.155 2.16ZM69.611 2.16L69.2466 3.09125L69.2511 3.093L69.611 2.16ZM77.355 7.024L76.6621 7.74514L76.6692 7.75179L77.355 7.024ZM82.539 14.384L81.6235 14.7863L81.6258 14.7914L82.539 14.384ZM82.539 32.88L83.4545 33.2823L83.4567 33.2772L82.539 32.88ZM77.355 40.24L78.0404 40.9682L78.0408 40.9678L77.355 40.24ZM69.611 45.04L69.2511 44.107L69.2466 44.1088L69.611 45.04ZM65.387 36.912L65.0156 35.9835L65.0074 35.9868L65.387 36.912ZM69.867 33.968L69.1599 33.2609L69.1599 33.2609L69.867 33.968ZM72.811 29.424L71.8873 29.041L71.8832 29.0507L71.8794 29.0605L72.811 29.424ZM72.811 17.776L71.8794 18.1395L71.8832 18.1493L71.8873 18.159L72.811 17.776ZM69.867 13.232L69.148 13.927L69.1539 13.9331L69.1599 13.9391L69.867 13.232ZM65.451 10.288L65.0796 11.2165L65.0796 11.2165L65.451 10.288ZM54.315 10.288L53.9436 9.35949L53.9354 9.36283L54.315 10.288ZM49.899 13.232L50.6061 13.9391L50.6061 13.9391L49.899 13.232ZM46.891 17.776L45.9673 17.393L45.9632 17.4027L45.9594 17.4125L46.891 17.776ZM46.891 29.424L45.9565 29.78L45.9617 29.7936L45.9673 29.807L46.891 29.424ZM49.835 33.968L49.116 34.663L49.1219 34.6691L49.1279 34.6751L49.835 33.968ZM54.315 36.912L53.9436 37.8405L53.9436 37.8405L54.315 36.912ZM59.947 45.768C56.5159 45.768 53.3522 45.2103 50.4464 44.1053L49.7356 45.9747C52.8885 47.1737 56.2955 47.768 59.947 47.768V45.768ZM50.4509 44.107C47.579 42.9993 45.0885 41.4456 42.9688 39.4482L41.5972 40.9038C43.9149 43.0877 46.6297 44.7767 49.7311 45.973L50.4509 44.107ZM42.9758 39.4549C40.8961 37.4567 39.2642 35.1123 38.0785 32.4137L36.2475 33.2183C37.5364 36.1517 39.3179 38.714 41.5902 40.8971L42.9758 39.4549ZM38.0836 32.4254C36.9458 29.7435 36.371 26.8057 36.371 23.6H34.371C34.371 27.0503 34.9909 30.2565 36.2424 33.2065L38.0836 32.4254ZM36.371 23.6C36.371 20.3943 36.9458 17.4565 38.0836 14.7745L36.2424 13.9934C34.9909 16.9435 34.371 20.1497 34.371 23.6H36.371ZM38.0785 14.7863C39.2624 12.092 40.9127 9.74961 43.0328 7.75179L41.6612 6.29621C39.344 8.47972 37.5383 11.044 36.2475 13.9817L38.0785 14.7863ZM43.0328 7.75179C45.1525 5.75441 47.643 4.20073 50.5149 3.093L49.7951 1.22699C46.6937 2.42326 43.9789 4.11225 41.6612 6.29621L43.0328 7.75179ZM50.5149 3.093C53.3765 1.98923 56.4959 1.432 59.883 1.432V-0.568001C56.2727 -0.568001 52.9068 0.0267658 49.7951 1.22699L50.5149 3.093ZM59.883 1.432C63.3146 1.432 66.4319 1.98982 69.2466 3.09124L69.9754 1.22875C66.9021 0.0261795 63.5341 -0.568001 59.883 -0.568001V1.432ZM69.2511 3.093C72.1215 4.20014 74.5877 5.752 76.6622 7.7451L78.0478 6.30289C75.7703 4.11466 73.0739 2.42386 69.9709 1.22699L69.2511 3.093ZM76.6692 7.75179C78.7893 9.74961 80.4396 12.092 81.6235 14.7863L83.4545 13.9817C82.1637 11.044 80.358 8.47972 78.0408 6.29621L76.6692 7.75179ZM81.6258 14.7914C82.7999 17.4231 83.395 20.3542 83.395 23.6H85.395C85.395 20.1045 84.7528 16.8916 83.4522 13.9766L81.6258 14.7914ZM83.395 23.6C83.395 26.8008 82.8007 29.7579 81.6213 32.4828L83.4567 33.2772C84.752 30.2847 85.395 27.0552 85.395 23.6H83.395ZM81.6235 32.4777C80.4396 35.172 78.7893 37.5144 76.6692 39.5122L78.0408 40.9678C80.358 38.7843 82.1637 36.22 83.4545 33.2823L81.6235 32.4777ZM76.6696 39.5118C74.5944 41.4649 72.1258 42.9982 69.2511 44.107L69.9709 45.973C73.0696 44.7778 75.7636 43.1111 78.0404 40.9682L76.6696 39.5118ZM69.2466 44.1088C66.4305 45.2107 63.3343 45.768 59.947 45.768V47.768C63.5571 47.768 66.9035 47.1733 69.9754 45.9712L69.2466 44.1088ZM59.883 38.936C62.0036 38.936 63.969 38.5746 65.7666 37.8372L65.0074 35.9868C63.477 36.6147 61.7731 36.936 59.883 36.936V38.936ZM65.7584 37.8405C67.5888 37.1083 69.1968 36.0524 70.5741 34.6751L69.1599 33.2609C67.9772 34.4436 66.5985 35.3504 65.0156 35.9835L65.7584 37.8405ZM70.5741 34.6751C71.9555 33.2937 73.0116 31.6608 73.7426 29.7875L71.8794 29.0605C71.2451 30.6859 70.3385 32.0823 69.1599 33.2609L70.5741 34.6751ZM73.7347 29.807C74.5164 27.9218 74.899 25.8482 74.899 23.6H72.899C72.899 25.6185 72.5563 27.4275 71.8873 29.041L73.7347 29.807ZM74.899 23.6C74.899 21.3518 74.5164 19.2782 73.7347 17.393L71.8873 18.159C72.5563 19.7725 72.899 21.5815 72.899 23.6H74.899ZM73.7426 17.4125C73.0116 15.5392 71.9555 13.9063 70.5741 12.5249L69.1599 13.9391C70.3385 15.1177 71.2451 16.5141 71.8794 18.1395L73.7426 17.4125ZM70.586 12.537C69.2473 11.1522 67.6557 10.0929 65.8224 9.35952L65.0796 11.2165C66.6596 11.8485 68.012 12.7518 69.148 13.927L70.586 12.537ZM65.8224 9.35952C63.9873 8.62548 62.0039 8.264 59.883 8.264V10.264C61.7727 10.264 63.5014 10.5852 65.0796 11.2165L65.8224 9.35952ZM59.883 8.264C57.7621 8.264 55.7787 8.62548 53.9436 9.35952L54.6864 11.2165C56.2646 10.5852 57.9933 10.264 59.883 10.264V8.264ZM53.9354 9.36283C52.1481 10.0961 50.5649 11.1518 49.1919 12.5249L50.6061 13.9391C51.7931 12.7521 53.1539 11.8452 54.6946 11.2132L53.9354 9.36283ZM49.1919 12.5249C47.8149 13.9019 46.7405 15.5281 45.9673 17.393L47.8147 18.159C48.4922 16.5252 49.4231 15.1221 50.6061 13.9391L49.1919 12.5249ZM45.9594 17.4125C45.2258 19.2923 44.867 21.3591 44.867 23.6H46.867C46.867 21.5743 47.1909 19.7583 47.8226 18.1395L45.9594 17.4125ZM44.867 23.6C44.867 25.8013 45.2268 27.8645 45.9565 29.78L47.8255 29.068C47.1899 27.3995 46.867 25.58 46.867 23.6H44.867ZM45.9673 29.807C46.7376 31.6648 47.786 33.2872 49.116 34.663L50.554 33.273C49.4093 32.0888 48.4951 30.6819 47.8147 29.041L45.9673 29.807ZM49.1279 34.6751C50.5052 36.0524 52.1132 37.1083 53.9436 37.8405L54.6864 35.9835C53.1035 35.3504 51.7248 34.4436 50.5421 33.2609L49.1279 34.6751ZM53.9436 37.8405C55.7787 38.5745 57.7621 38.936 59.883 38.936V36.936C57.9933 36.936 56.2646 36.6148 54.6864 35.9835L53.9436 37.8405ZM92.187 46H91.187V47H92.187V46ZM92.187 1.2V0.199997H91.187V1.2H92.187ZM121.947 3.184L121.532 4.09397L121.543 4.09892L121.947 3.184ZM128.667 8.752L127.828 9.29647L127.828 9.29647L128.667 8.752ZM128.667 26.096L129.501 26.6473L129.506 26.6405L128.667 26.096ZM121.947 31.6L122.351 32.5149L122.351 32.5149L121.947 31.6ZM97.947 33.52L97.2449 32.808L95.5087 34.52H97.947V33.52ZM102.555 28.976H103.555V26.5855L101.853 28.264L102.555 28.976ZM102.555 46V47H103.555V46H102.555ZM120.667 46L119.844 46.5674L120.142 47H120.667V46ZM109.467 29.744V28.744H107.564L108.644 30.3114L109.467 29.744ZM120.539 29.744L121.359 29.1723L121.061 28.744H120.539V29.744ZM131.867 46V47H133.783L132.687 45.4283L131.867 46ZM102.555 30.128L101.829 30.8157L103.555 32.6376V30.128H102.555ZM97.947 25.264V24.264H95.6221L97.221 25.9517L97.947 25.264ZM118.171 23.216L118.825 23.9724L118.831 23.9674L118.837 23.9623L118.171 23.216ZM97.947 9.648L97.2166 8.96501L95.6429 10.648H97.947V9.648ZM102.555 4.72H103.555V2.18641L101.825 4.037L102.555 4.72ZM93.187 46V1.2H91.187V46H93.187ZM92.187 2.2H111.579V0.199997H92.187V2.2ZM111.579 2.2C115.482 2.2 118.79 2.84384 121.532 4.09391L122.362 2.27409C119.301 0.878823 115.697 0.199997 111.579 0.199997V2.2ZM121.543 4.09892C124.284 5.30805 126.365 7.04287 127.828 9.29647L129.506 8.20753C127.811 5.59712 125.413 3.61994 122.351 2.26908L121.543 4.09892ZM127.828 9.29647C129.285 11.5414 130.035 14.2465 130.035 17.456H132.035C132.035 13.9242 131.206 10.8266 129.506 8.20753L127.828 9.29647ZM130.035 17.456C130.035 20.62 129.287 23.3046 127.828 25.5515L129.506 26.6405C131.205 24.0234 132.035 20.948 132.035 17.456H130.035ZM127.833 25.5447C126.371 27.7572 124.289 29.4739 121.543 30.6851L122.351 32.5149C125.408 31.1661 127.806 29.2135 129.501 26.6473L127.833 25.5447ZM121.543 30.6851C118.798 31.8962 115.486 32.52 111.579 32.52V34.52C115.693 34.52 119.293 33.8638 122.351 32.5149L121.543 30.6851ZM111.579 32.52H97.947V34.52H111.579V32.52ZM98.6491 34.232L103.257 29.688L101.853 28.264L97.2449 32.808L98.6491 34.232ZM101.555 28.976V46H103.555V28.976H101.555ZM102.555 45H92.187V47H102.555V45ZM121.49 45.4326L110.29 29.1766L108.644 30.3114L119.844 46.5674L121.49 45.4326ZM109.467 30.744H120.539V28.744H109.467V30.744ZM119.719 30.3157L131.047 46.5717L132.687 45.4283L121.359 29.1723L119.719 30.3157ZM131.867 45H120.667V47H131.867V45ZM103.281 29.4403L98.673 24.5763L97.221 25.9517L101.829 30.8157L103.281 29.4403ZM97.947 26.264H111.003V24.264H97.947V26.264ZM111.003 26.264C114.32 26.264 116.99 25.5599 118.825 23.9724L117.517 22.4596C116.195 23.6027 114.086 24.264 111.003 24.264V26.264ZM118.837 23.9623C120.661 22.3353 121.539 20.1259 121.539 17.456H119.539C119.539 19.6501 118.838 21.2807 117.505 22.4697L118.837 23.9623ZM121.539 17.456C121.539 14.7503 120.665 12.5306 118.825 10.9396L117.517 12.4524C118.835 13.5921 119.539 15.2124 119.539 17.456H121.539ZM118.825 10.9396C116.99 9.35206 114.32 8.648 111.003 8.648V10.648C114.086 10.648 116.195 11.3093 117.517 12.4524L118.825 10.9396ZM111.003 8.648H97.947V10.648H111.003V8.648ZM98.6774 10.331L103.285 5.40299L101.825 4.037L97.2166 8.96501L98.6774 10.331ZM101.555 4.72V30.128H103.555V4.72H101.555ZM148.786 19.248V18.248H147.786V19.248H148.786ZM170.354 19.248H171.354V18.248H170.354V19.248ZM170.354 27.312V28.312H171.354V27.312H170.354ZM148.786 27.312H147.786V28.312H148.786V27.312ZM149.554 37.68H148.554V38.68H149.554V37.68ZM173.938 37.68H174.938V36.68H173.938V37.68ZM173.938 46V47H174.938V46H173.938ZM139.25 46H138.25V47H139.25V46ZM139.25 1.2V0.199997H138.25V1.2H139.25ZM173.106 1.2H174.106V0.199997H173.106V1.2ZM173.106 9.52V10.52H174.106V9.52H173.106ZM149.554 9.52V8.52H148.554V9.52H149.554ZM148.786 20.248H170.354V18.248H148.786V20.248ZM169.354 19.248V27.312H171.354V19.248H169.354ZM170.354 26.312H148.786V28.312H170.354V26.312ZM149.786 27.312V19.248H147.786V27.312H149.786ZM149.554 38.68H173.938V36.68H149.554V38.68ZM172.938 37.68V46H174.938V37.68H172.938ZM173.938 45H139.25V47H173.938V45ZM140.25 46V1.2H138.25V46H140.25ZM139.25 2.2H173.106V0.199997H139.25V2.2ZM172.106 1.2V9.52H174.106V1.2H172.106ZM173.106 8.52H149.554V10.52H173.106V8.52ZM148.554 9.52V37.68H150.554V9.52H148.554ZM182.187 46H181.187V47H182.187V46ZM182.187 1.2V0.199997H181.187V1.2H182.187ZM190.763 1.2L191.619 0.683463L191.328 0.199997H190.763V1.2ZM209.835 32.816V33.816H211.606L210.691 32.2995L209.835 32.816ZM205.291 32.816L204.431 32.3059L203.535 33.816H205.291V32.816ZM224.043 1.2V0.199997H223.473L223.183 0.689861L224.043 1.2ZM232.555 1.2L233.555 1.19714L233.552 0.199997H232.555V1.2ZM232.683 46V47H233.686L233.683 45.9971L232.683 46ZM222.955 46L221.955 46.0021L221.957 47H222.955V46ZM222.891 16.112V15.112H221.889L221.891 16.1141L222.891 16.112ZM224.683 16.112L225.542 16.6236L226.442 15.112H224.683V16.112ZM209.707 41.264V42.264H210.275L210.566 41.7756L209.707 41.264ZM205.035 41.264L204.181 41.7836L204.473 42.264H205.035V41.264ZM189.739 16.112V15.112H187.96L188.885 16.6316L189.739 16.112ZM191.915 16.112H192.915V15.112H191.915V16.112ZM191.915 46V47H192.915V46H191.915ZM183.187 46V1.2H181.187V46H183.187ZM182.187 2.2H190.763V0.199997H182.187V2.2ZM189.907 1.71653L208.979 33.3325L210.691 32.2995L191.619 0.683463L189.907 1.71653ZM209.835 31.816H205.291V33.816H209.835V31.816ZM206.151 33.3261L224.903 1.71013L223.183 0.689861L204.431 32.3059L206.151 33.3261ZM224.043 2.2H232.555V0.199997H224.043V2.2ZM231.555 1.20285L231.683 46.0029L233.683 45.9971L233.555 1.19714L231.555 1.20285ZM232.683 45H222.955V47H232.683V45ZM223.955 45.9979L223.891 16.1099L221.891 16.1141L221.955 46.0021L223.955 45.9979ZM222.891 17.112H224.683V15.112H222.891V17.112ZM223.824 15.6004L208.848 40.7524L210.566 41.7756L225.542 16.6236L223.824 15.6004ZM209.707 40.264H205.035V42.264H209.707V40.264ZM205.889 40.7444L190.593 15.5924L188.885 16.6316L204.181 41.7836L205.889 40.7444ZM189.739 17.112H191.915V15.112H189.739V17.112ZM190.915 16.112V46H192.915V16.112H190.915ZM191.915 45H182.187V47H191.915V45ZM261.437 46H260.437V47H261.437V46ZM261.437 1.2V0.199997H260.437V1.2H261.437ZM271.805 1.2H272.805V0.199997H271.805V1.2ZM271.805 46V47H272.805V46H271.805ZM262.437 46V1.2H260.437V46H262.437ZM261.437 2.2H271.805V0.199997H261.437V2.2ZM270.805 1.2V46H272.805V1.2H270.805ZM271.805 45H261.437V47H271.805V45ZM282.437 46H281.437V47H282.437V46ZM282.437 1.2V0.199997H281.437V1.2H282.437ZM312.197 3.184L311.782 4.09397L311.793 4.09892L312.197 3.184ZM318.917 8.752L318.078 9.29647L318.078 9.29647L318.917 8.752ZM312.197 31.728L312.601 32.643L312.612 32.6379L312.197 31.728ZM288.197 33.648L287.485 32.9458L285.806 34.648H288.197V33.648ZM292.805 28.976H293.805V26.538L292.093 28.2738L292.805 28.976ZM292.805 46V47H293.805V46H292.805ZM292.805 30.128L292.075 30.811L293.805 32.6616V30.128H292.805ZM288.197 25.2V24.2H285.893L287.467 25.883L288.197 25.2ZM288.197 9.648L287.467 8.96501L285.893 10.648H288.197V9.648ZM292.805 4.72H293.805V2.18641L292.075 4.037L292.805 4.72ZM283.437 46V1.2H281.437V46H283.437ZM282.437 2.2H301.829V0.199997H282.437V2.2ZM301.829 2.2C305.732 2.2 309.04 2.84384 311.782 4.09391L312.612 2.27409C309.551 0.878823 305.947 0.199997 301.829 0.199997V2.2ZM311.793 4.09892C314.534 5.30805 316.615 7.04287 318.078 9.29647L319.756 8.20753C318.061 5.59712 315.663 3.61994 312.601 2.26908L311.793 4.09892ZM318.078 9.29647C319.535 11.5414 320.285 14.2465 320.285 17.456H322.285C322.285 13.9242 321.456 10.8266 319.756 8.20753L318.078 9.29647ZM320.285 17.456C320.285 20.62 319.537 23.3046 318.078 25.5515L319.756 26.6405C321.455 24.0234 322.285 20.948 322.285 17.456H320.285ZM318.078 25.5515C316.613 27.8081 314.528 29.5662 311.782 30.8181L312.612 32.6379C315.668 31.2444 318.063 29.2479 319.756 26.6405L318.078 25.5515ZM311.793 30.8131C309.048 32.0242 305.736 32.648 301.829 32.648V34.648C305.943 34.648 309.543 33.9918 312.601 32.6429L311.793 30.8131ZM301.829 32.648H288.197V34.648H301.829V32.648ZM288.909 34.3502L293.517 29.6782L292.093 28.2738L287.485 32.9458L288.909 34.3502ZM291.805 28.976V46H293.805V28.976H291.805ZM292.805 45H282.437V47H292.805V45ZM293.535 29.445L288.927 24.517L287.467 25.883L292.075 30.811L293.535 29.445ZM288.197 26.2H301.253V24.2H288.197V26.2ZM301.253 26.2C304.57 26.2 307.24 25.4959 309.075 23.9084L307.767 22.3956C306.445 23.5387 304.336 24.2 301.253 24.2V26.2ZM309.075 23.9084C310.911 22.3209 311.789 20.1253 311.789 17.456H309.789C309.789 19.6507 309.089 21.2524 307.767 22.3956L309.075 23.9084ZM311.789 17.456C311.789 14.7503 310.915 12.5306 309.075 10.9396L307.767 12.4524C309.085 13.5921 309.789 15.2124 309.789 17.456H311.789ZM309.075 10.9396C307.24 9.35206 304.57 8.648 301.253 8.648V10.648C304.336 10.648 306.445 11.3093 307.767 12.4524L309.075 10.9396ZM301.253 8.648H288.197V10.648H301.253V8.648ZM288.927 10.331L293.535 5.40299L292.075 4.037L287.467 8.96501L288.927 10.331ZM291.805 4.72V30.128H293.805V4.72H291.805ZM333.728 45.36L333.442 46.3182L333.453 46.3215L333.728 45.36ZM325.792 41.584L324.88 41.173L324.555 41.8958L325.184 42.3779L325.792 41.584ZM329.312 33.776L329.892 32.961L328.9 32.2561L328.4 33.365L329.312 33.776ZM336.096 37.168L335.77 38.1135L335.78 38.1167L335.789 38.1197L336.096 37.168ZM349.024 37.872L349.32 38.8271L349.33 38.824L349.34 38.8207L349.024 37.872ZM351.84 36.144L351.068 35.5083L351.068 35.5083L351.84 36.144ZM351.328 30.832L350.717 31.6233L350.728 31.6322L350.74 31.6407L351.328 30.832ZM347.616 29.104L347.324 30.0604L347.336 30.0641L347.348 30.0675L347.616 29.104ZM342.496 27.824L342.269 28.798L342.283 28.801L342.296 28.8037L342.496 27.824ZM336.928 26.288L336.618 27.2389L336.625 27.2409L336.928 26.288ZM331.872 23.984L331.351 24.8373L331.351 24.8373L331.872 23.984ZM328.096 20.272L327.243 20.7934L327.248 20.802L327.253 20.8104L328.096 20.272ZM328.736 7.408L327.901 6.85715L327.899 6.86121L328.736 7.408ZM335.008 2.352L335.415 3.26525L335.422 3.26236L335.008 2.352ZM353.888 1.456L353.645 2.42614L353.653 2.42793L353.66 2.42961L353.888 1.456ZM361.12 4.4L362.046 4.77658L362.361 4.00197L361.655 3.55492L361.12 4.4ZM357.92 12.272L357.424 13.1402L358.416 13.7072L358.846 12.6486L357.92 12.272ZM351.648 9.648L351.373 10.6095L351.382 10.6121L351.392 10.6146L351.648 9.648ZM340.576 9.456L340.232 8.51712L340.232 8.51712L340.576 9.456ZM337.824 11.312L338.618 11.9194L338.627 11.9086L338.635 11.8975L337.824 11.312ZM338.4 16.688L337.789 17.4793L337.8 17.4882L337.812 17.4967L338.4 16.688ZM342.112 18.352L341.844 19.3155L341.844 19.3155L342.112 18.352ZM347.168 19.632L346.941 20.606L346.946 20.6071L347.168 19.632ZM352.736 21.104L352.447 22.0612L352.453 22.063L352.736 21.104ZM357.856 23.344L358.377 22.4907L358.377 22.4907L357.856 23.344ZM361.568 27.056L360.715 27.5774L360.72 27.586L360.725 27.5944L361.568 27.056ZM360.928 39.792L361.757 40.3506L361.757 40.3506L360.928 39.792ZM354.592 44.848L354.178 43.9376L354.173 43.94L354.592 44.848ZM344.032 45.768C340.536 45.768 337.194 45.3104 334.003 44.3985L333.453 46.3215C336.832 47.2869 340.36 47.768 344.032 47.768V45.768ZM334.014 44.4018C330.806 43.4436 328.281 42.2311 326.4 40.7901L325.184 42.3779C327.313 44.0089 330.079 45.3137 333.442 46.3182L334.014 44.4018ZM326.704 41.995L330.224 34.187L328.4 33.365L324.88 41.173L326.704 41.995ZM328.732 34.591C330.742 36.0202 333.092 37.1915 335.77 38.1135L336.422 36.2225C333.895 35.3525 331.722 34.2625 329.892 32.961L328.732 34.591ZM335.789 38.1197C338.53 39.0039 341.3 39.448 344.096 39.448V37.448C341.516 37.448 338.953 37.0387 336.403 36.2163L335.789 38.1197ZM344.096 39.448C346.193 39.448 347.948 39.2529 349.32 38.8271L348.728 36.9169C347.625 37.2591 346.095 37.448 344.096 37.448V39.448ZM349.34 38.8207C350.725 38.3592 351.854 37.7002 352.612 36.7797L351.068 35.5083C350.631 36.0384 349.883 36.5315 348.708 36.9233L349.34 38.8207ZM352.612 36.7797C353.357 35.8755 353.736 34.8189 353.736 33.648H351.736C351.736 34.3545 351.518 34.9618 351.068 35.5083L352.612 36.7797ZM353.736 33.648C353.736 32.1445 353.122 30.9005 351.916 30.0233L350.74 31.6407C351.411 32.1288 351.736 32.7622 351.736 33.648H353.736ZM351.939 30.0407C350.87 29.2142 349.504 28.5906 347.884 28.1405L347.348 30.0675C348.8 30.4708 349.909 30.9992 350.717 31.6233L351.939 30.0407ZM347.908 28.1476C346.337 27.6675 344.599 27.2335 342.696 26.8443L342.296 28.8037C344.148 29.1825 345.823 29.6018 347.324 30.0604L347.908 28.1476ZM342.723 26.85C340.915 26.4296 339.084 25.9247 337.231 25.3351L336.625 27.2409C338.526 27.8459 340.408 28.3651 342.269 28.798L342.723 26.85ZM337.238 25.3371C335.472 24.7622 333.858 24.0259 332.393 23.1307L331.351 24.8373C332.958 25.8194 334.715 26.6191 336.618 27.2389L337.238 25.3371ZM332.393 23.1307C330.989 22.2723 329.839 21.1433 328.939 19.7336L327.253 20.8104C328.315 22.4727 329.683 23.8184 331.351 24.8373L332.393 23.1307ZM328.949 19.7505C328.133 18.415 327.688 16.6479 327.688 14.384H325.688C325.688 16.8987 326.182 19.057 327.243 20.7934L328.949 19.7505ZM327.688 14.384C327.688 12.013 328.317 9.87857 329.573 7.95479L327.899 6.86121C326.424 9.11876 325.688 11.635 325.688 14.384H327.688ZM329.571 7.95884C330.855 6.01235 332.783 4.43973 335.415 3.26523L334.601 1.43877C331.686 2.73893 329.433 4.53698 327.901 6.85715L329.571 7.95884ZM335.422 3.26236C338.07 2.05886 341.438 1.432 345.568 1.432V-0.568001C341.25 -0.568001 337.578 0.0851343 334.594 1.44163L335.422 3.26236ZM345.568 1.432C348.302 1.432 350.994 1.76331 353.645 2.42614L354.131 0.485855C351.321 -0.21665 348.466 -0.568001 345.568 -0.568001V1.432ZM353.66 2.42961C356.296 3.04752 358.601 3.98944 360.585 5.24508L361.655 3.55492C359.458 2.16522 356.941 1.14448 354.116 0.482381L353.66 2.42961ZM360.194 4.02342L356.994 11.8954L358.846 12.6486L362.046 4.77658L360.194 4.02342ZM358.416 11.4038C356.259 10.1709 354.088 9.26069 351.904 8.68144L351.392 10.6146C353.39 11.1446 355.4 11.9838 357.424 13.1402L358.416 11.4038ZM351.923 8.68647C349.75 8.06575 347.61 7.752 345.504 7.752V9.752C347.409 9.752 349.364 10.0356 351.373 10.6095L351.923 8.68647ZM345.504 7.752C343.431 7.752 341.661 7.99309 340.232 8.51712L340.92 10.3949C342.051 9.98024 343.566 9.752 345.504 9.752V7.752ZM340.232 8.51712C338.843 9.02633 337.726 9.74026 337.013 10.7265L338.635 11.8975C339.032 11.3477 339.749 10.8243 340.92 10.3949L340.232 8.51712ZM337.03 10.7045C336.331 11.6177 335.992 12.6886 335.992 13.872H337.992C337.992 13.0928 338.207 12.457 338.618 11.9194L337.03 10.7045ZM335.992 13.872C335.992 15.3443 336.613 16.5712 337.789 17.4793L339.011 15.8967C338.309 15.3542 337.992 14.7037 337.992 13.872H335.992ZM337.812 17.4967C338.876 18.2706 340.233 18.868 341.844 19.3155L342.38 17.3885C340.919 16.9827 339.801 16.4707 338.988 15.8793L337.812 17.4967ZM341.844 19.3155C343.396 19.7466 345.095 20.1767 346.941 20.606L347.395 18.658C345.571 18.234 343.9 17.8108 342.38 17.3885L341.844 19.3155ZM346.946 20.6071C348.801 21.0286 350.634 21.5133 352.447 22.0612L353.025 20.1468C351.168 19.5853 349.29 19.0887 347.39 18.6569L346.946 20.6071ZM352.453 22.063C354.254 22.5951 355.879 23.3079 357.335 24.1973L358.377 22.4907C356.761 21.5028 354.973 20.7222 353.019 20.145L352.453 22.063ZM357.335 24.1973C358.735 25.0532 359.859 26.1768 360.715 27.5774L362.421 26.5345C361.4 24.8632 360.049 23.5121 358.377 22.4907L357.335 24.1973ZM360.725 27.5944C361.578 28.9294 362.04 30.67 362.04 32.88H364.04C364.04 30.3967 363.52 28.2546 362.411 26.5176L360.725 27.5944ZM362.04 32.88C362.04 35.198 361.396 37.3076 360.099 39.2334L361.757 40.3506C363.276 38.0951 364.04 35.5966 364.04 32.88H362.04ZM360.099 39.2334C358.815 41.1392 356.864 42.7168 354.178 43.9376L355.006 45.7584C357.952 44.4192 360.225 42.6262 361.757 40.3506L360.099 39.2334ZM354.173 43.94C351.572 45.1403 348.208 45.768 344.032 45.768V47.768C348.39 47.768 352.065 47.1157 355.011 45.756L354.173 43.94ZM375.117 41.456L375.819 40.7447L375.819 40.7447L375.117 41.456ZM369.741 1.2V0.199997H368.741V1.2H369.741ZM380.109 1.2H381.109V0.199997H380.109V1.2ZM382.733 35.12L382.001 35.8017L382.001 35.8017L382.733 35.12ZM397.453 35.12L398.184 35.8017L398.184 35.8017L397.453 35.12ZM400.076 1.2V0.199997H399.076V1.2H400.076ZM410.317 1.2H411.317V0.199997H410.317V1.2ZM404.941 41.456L405.643 42.1673L405.643 42.1673L404.941 41.456ZM390.029 45.768C383.862 45.768 379.17 44.0557 375.819 40.7447L374.414 42.1673C378.231 45.9389 383.48 47.768 390.029 47.768V45.768ZM375.819 40.7447C372.478 37.4434 370.741 32.6762 370.741 26.288H368.741C368.741 33.0412 370.587 38.3859 374.414 42.1673L375.819 40.7447ZM370.741 26.288V1.2H368.741V26.288H370.741ZM369.741 2.2H380.109V0.199997H369.741V2.2ZM379.109 1.2V25.904H381.109V1.2H379.109ZM379.109 25.904C379.109 30.2666 379.996 33.6497 382.001 35.8017L383.464 34.4383C381.971 32.8356 381.109 30.0747 381.109 25.904H379.109ZM382.001 35.8017C383.982 37.9274 386.726 38.936 390.093 38.936V36.936C387.144 36.936 384.982 36.0673 383.464 34.4383L382.001 35.8017ZM390.093 38.936C393.459 38.936 396.203 37.9274 398.184 35.8017L396.721 34.4383C395.203 36.0673 393.041 36.936 390.093 36.936V38.936ZM398.184 35.8017C400.189 33.6497 401.076 30.2666 401.076 25.904H399.076C399.076 30.0747 398.214 32.8356 396.721 34.4383L398.184 35.8017ZM401.076 25.904V1.2H399.076V25.904H401.076ZM400.076 2.2H410.317V0.199997H400.076V2.2ZM409.317 1.2V26.288H411.317V1.2H409.317ZM409.317 26.288C409.317 32.6762 407.579 37.4434 404.238 40.7447L405.643 42.1673C409.47 38.3859 411.317 33.0412 411.317 26.288H409.317ZM404.238 40.7447C400.887 44.0557 396.195 45.768 390.029 45.768V47.768C396.577 47.768 401.826 45.9389 405.643 42.1673L404.238 40.7447ZM420.562 46H419.562V47H420.562V46ZM420.562 1.2V0.199997H419.562V1.2H420.562ZM429.138 1.2L429.994 0.683463L429.703 0.199997H429.138V1.2ZM448.21 32.816V33.816H449.981L449.066 32.2995L448.21 32.816ZM443.666 32.816L442.806 32.3059L441.91 33.816H443.666V32.816ZM462.418 1.2V0.199997H461.848L461.558 0.689861L462.418 1.2ZM470.93 1.2L471.93 1.19714L471.927 0.199997H470.93V1.2ZM471.058 46V47H472.061L472.058 45.9971L471.058 46ZM461.33 46L460.33 46.0021L460.332 47H461.33V46ZM461.266 16.112V15.112H460.264L460.266 16.1141L461.266 16.112ZM463.058 16.112L463.917 16.6236L464.817 15.112H463.058V16.112ZM448.082 41.264V42.264H448.65L448.941 41.7756L448.082 41.264ZM443.41 41.264L442.556 41.7836L442.848 42.264H443.41V41.264ZM428.114 16.112V15.112H426.335L427.26 16.6316L428.114 16.112ZM430.29 16.112H431.29V15.112H430.29V16.112ZM430.29 46V47H431.29V46H430.29ZM421.562 46V1.2H419.562V46H421.562ZM420.562 2.2H429.138V0.199997H420.562V2.2ZM428.282 1.71653L447.354 33.3325L449.066 32.2995L429.994 0.683463L428.282 1.71653ZM448.21 31.816H443.666V33.816H448.21V31.816ZM444.526 33.3261L463.278 1.71013L461.558 0.689861L442.806 32.3059L444.526 33.3261ZM462.418 2.2H470.93V0.199997H462.418V2.2ZM469.93 1.20285L470.058 46.0029L472.058 45.9971L471.93 1.19714L469.93 1.20285ZM471.058 45H461.33V47H471.058V45ZM462.33 45.9979L462.266 16.1099L460.266 16.1141L460.33 46.0021L462.33 45.9979ZM461.266 17.112H463.058V15.112H461.266V17.112ZM462.199 15.6004L447.223 40.7524L448.941 41.7756L463.917 16.6236L462.199 15.6004ZM448.082 40.264H443.41V42.264H448.082V40.264ZM444.264 40.7444L428.968 15.5924L427.26 16.6316L442.556 41.7836L444.264 40.7444ZM428.114 17.112H430.29V15.112H428.114V17.112ZM429.29 16.112V46H431.29V16.112H429.29ZM430.29 45H420.562V47H430.29V45Z" fill="url(#paint0_linear_1348_1834)"/>
</g>
<defs>
<filter id="filter0_b_1348_1834" x="-3.68799" y="-3.56799" width="478.746" height="54.3359" filterUnits="userSpaceOnUse" color-interpolation-filters="sRGB">
<feFlood flood-opacity="0" result="BackgroundImageFix"/>
<feGaussianBlur in="BackgroundImageFix" stdDeviation="2"/>
<feComposite in2="SourceAlpha" operator="in" result="effect1_backgroundBlur_1348_1834"/>
<feBlend mode="normal" in="SourceGraphic" in2="effect1_backgroundBlur_1348_1834" result="shape"/>
</filter>
<linearGradient id="paint0_linear_1348_1834" x1="236" y1="-16" x2="236" y2="62" gradientUnits="userSpaceOnUse">
<stop stop-color="#F0F0F0"/>
<stop offset="1" stop-color="#F0F0F0" stop-opacity="0"/>
</linearGradient>
</defs>
</svg>
