<svg width="95" height="100" viewBox="0 0 95 100" fill="none" xmlns="http://www.w3.org/2000/svg">
<g filter="url(#filter0_b_35_237)">
<rect x="0.5" y="6" width="89" height="89" rx="44.5" fill="#313036" fill-opacity="0.3"/>
<rect x="0.5" y="6" width="89" height="89" rx="44.5" fill="url(#paint0_linear_35_237)"/>
<rect x="1.5" y="7" width="87" height="87" rx="43.5" stroke="url(#paint1_linear_35_237)" stroke-width="2"/>
</g>
<g filter="url(#filter1_di_35_237)">
<path d="M60.8334 50.0001C60.8334 55.0401 58.5467 59.7067 54.6034 62.8334C52.9934 64.0934 51.9434 65.7501 51.6167 67.5234L51.5 67.5001H37.5L37.3367 67.5234C37.01 65.6801 36.0534 64.0701 34.6767 63.0434C29.59 59.1934 27.21 52.8934 28.5167 46.5467C29.8 40.3634 34.8167 35.3234 41 34.0401C45.9234 32.9901 50.9634 34.2034 54.79 37.3067C58.64 40.4334 60.8334 45.0534 60.8334 50.0001Z" fill="url(#paint2_radial_35_237)"/>
</g>
<g filter="url(#filter2_di_35_237)">
<path d="M59.8324 36.4176C59.3844 36.4176 58.9364 36.2473 58.5957 35.9043C57.912 35.2206 57.912 34.1123 58.5957 33.4286L61.825 30.1993C62.5087 29.5156 63.617 29.5156 64.3007 30.1993C64.9843 30.8829 64.9843 31.9913 64.3007 32.6749L61.0714 35.9043C60.7284 36.2449 60.2804 36.4176 59.8324 36.4176Z" fill="url(#paint3_radial_35_237)"/>
</g>
<g filter="url(#filter3_di_35_237)">
<path d="M70.75 51.75H66.1837C65.2177 51.75 64.4337 50.966 64.4337 50C64.4337 49.034 65.2177 48.25 66.1837 48.25H70.75C71.716 48.25 72.5 49.034 72.5 50C72.5 50.966 71.716 51.75 70.75 51.75Z" fill="url(#paint4_radial_35_237)"/>
</g>
<g filter="url(#filter4_di_35_237)">
<path d="M63.0617 70.3116C62.6137 70.3116 62.1657 70.1413 61.825 69.7983L58.5957 66.569C57.912 65.8853 57.912 64.777 58.5957 64.0933C59.2794 63.4096 60.3877 63.4096 61.0714 64.0933L64.3007 67.3226C64.9843 68.0063 64.9843 69.1146 64.3007 69.7983C63.9577 70.1413 63.5097 70.3116 63.0617 70.3116Z" fill="url(#paint5_radial_35_237)"/>
</g>
<g filter="url(#filter5_di_35_237)">
<path d="M51.5107 67.5021C51.5696 67.5139 51.6083 67.5706 51.5985 67.6298C51.5387 67.9912 51.5 68.3542 51.5 68.7367V73.9167C51.5 76.1567 49.6567 78 47.4167 78H41.5833C39.6233 78 37.5 76.5067 37.5 73.24V69.11C37.5 68.6259 37.462 68.1418 37.3689 67.6748C37.3526 67.593 37.4074 67.5132 37.49 67.5014C37.4966 67.5005 37.5034 67.5 37.5101 67.5H51.4891C51.4963 67.5 51.5036 67.5007 51.5107 67.5021Z" fill="url(#paint6_linear_35_237)"/>
</g>
<g filter="url(#filter6_di_35_237)">
<path d="M44.5 30.0663C43.534 30.0663 42.75 29.2823 42.75 28.3163V23.75C42.75 22.784 43.534 22 44.5 22C45.466 22 46.25 22.784 46.25 23.75V28.3163C46.25 29.2823 45.466 30.0663 44.5 30.0663Z" fill="url(#paint7_radial_35_237)"/>
</g>
<g filter="url(#filter7_di_35_237)">
<path d="M29.1677 36.4176C28.7197 36.4176 28.2717 36.2473 27.931 35.9043L24.7017 32.6749C24.018 31.9913 24.018 30.8829 24.7017 30.1993C25.3854 29.5156 26.4937 29.5156 27.1774 30.1993L30.4067 33.4286C31.0904 34.1123 31.0904 35.2206 30.4067 35.9043C30.0614 36.2449 29.6157 36.4176 29.1677 36.4176Z" fill="url(#paint8_radial_35_237)"/>
</g>
<g filter="url(#filter8_di_35_237)">
<path d="M22.8163 51.75H18.25C17.284 51.75 16.5 50.966 16.5 50C16.5 49.034 17.284 48.25 18.25 48.25H22.8163C23.7823 48.25 24.5663 49.034 24.5663 50C24.5663 50.966 23.7823 51.75 22.8163 51.75Z" fill="url(#paint9_radial_35_237)"/>
</g>
<g filter="url(#filter9_di_35_237)">
<path d="M25.9384 70.3116C25.4904 70.3116 25.0424 70.1413 24.7017 69.7983C24.018 69.1146 24.018 68.0063 24.7017 67.3226L27.931 64.0933C28.6147 63.4096 29.723 63.4096 30.4067 64.0933C31.0904 64.777 31.0904 65.8853 30.4067 66.569L27.1774 69.7983C26.8344 70.1413 26.3864 70.3116 25.9384 70.3116Z" fill="url(#paint10_radial_35_237)"/>
</g>
<defs>
<filter id="filter0_b_35_237" x="-3.5" y="2" width="97" height="97" filterUnits="userSpaceOnUse" color-interpolation-filters="sRGB">
<feFlood flood-opacity="0" result="BackgroundImageFix"/>
<feGaussianBlur in="BackgroundImageFix" stdDeviation="2"/>
<feComposite in2="SourceAlpha" operator="in" result="effect1_backgroundBlur_35_237"/>
<feBlend mode="normal" in="SourceGraphic" in2="effect1_backgroundBlur_35_237" result="shape"/>
</filter>
<filter id="filter1_di_35_237" x="18.1637" y="11.6699" width="64.6697" height="65.8535" filterUnits="userSpaceOnUse" color-interpolation-filters="sRGB">
<feFlood flood-opacity="0" result="BackgroundImageFix"/>
<feColorMatrix in="SourceAlpha" type="matrix" values="0 0 0 0 0 0 0 0 0 0 0 0 0 0 0 0 0 0 127 0" result="hardAlpha"/>
<feOffset dx="6" dy="-6"/>
<feGaussianBlur stdDeviation="8"/>
<feColorMatrix type="matrix" values="0 0 0 0 1 0 0 0 0 0.670588 0 0 0 0 0.282353 0 0 0 0.2 0"/>
<feBlend mode="normal" in2="BackgroundImageFix" result="effect1_dropShadow_35_237"/>
<feBlend mode="normal" in="SourceGraphic" in2="effect1_dropShadow_35_237" result="shape"/>
<feColorMatrix in="SourceAlpha" type="matrix" values="0 0 0 0 0 0 0 0 0 0 0 0 0 0 0 0 0 0 127 0" result="hardAlpha"/>
<feOffset dx="-10" dy="10"/>
<feGaussianBlur stdDeviation="10"/>
<feComposite in2="hardAlpha" operator="arithmetic" k2="-1" k3="1"/>
<feColorMatrix type="matrix" values="0 0 0 0 1 0 0 0 0 1 0 0 0 0 1 0 0 0 0.24 0"/>
<feBlend mode="normal" in2="shape" result="effect2_innerShadow_35_237"/>
</filter>
<filter id="filter2_di_35_237" x="48.0829" y="7.68652" width="38.7305" height="38.7312" filterUnits="userSpaceOnUse" color-interpolation-filters="sRGB">
<feFlood flood-opacity="0" result="BackgroundImageFix"/>
<feColorMatrix in="SourceAlpha" type="matrix" values="0 0 0 0 0 0 0 0 0 0 0 0 0 0 0 0 0 0 127 0" result="hardAlpha"/>
<feOffset dx="6" dy="-6"/>
<feGaussianBlur stdDeviation="8"/>
<feColorMatrix type="matrix" values="0 0 0 0 1 0 0 0 0 0.670588 0 0 0 0 0.282353 0 0 0 0.2 0"/>
<feBlend mode="normal" in2="BackgroundImageFix" result="effect1_dropShadow_35_237"/>
<feBlend mode="normal" in="SourceGraphic" in2="effect1_dropShadow_35_237" result="shape"/>
<feColorMatrix in="SourceAlpha" type="matrix" values="0 0 0 0 0 0 0 0 0 0 0 0 0 0 0 0 0 0 127 0" result="hardAlpha"/>
<feOffset dx="-10" dy="10"/>
<feGaussianBlur stdDeviation="10"/>
<feComposite in2="hardAlpha" operator="arithmetic" k2="-1" k3="1"/>
<feColorMatrix type="matrix" values="0 0 0 0 1 0 0 0 0 1 0 0 0 0 1 0 0 0 0.24 0"/>
<feBlend mode="normal" in2="shape" result="effect2_innerShadow_35_237"/>
</filter>
<filter id="filter3_di_35_237" x="54.4337" y="26.25" width="40.0663" height="35.5" filterUnits="userSpaceOnUse" color-interpolation-filters="sRGB">
<feFlood flood-opacity="0" result="BackgroundImageFix"/>
<feColorMatrix in="SourceAlpha" type="matrix" values="0 0 0 0 0 0 0 0 0 0 0 0 0 0 0 0 0 0 127 0" result="hardAlpha"/>
<feOffset dx="6" dy="-6"/>
<feGaussianBlur stdDeviation="8"/>
<feColorMatrix type="matrix" values="0 0 0 0 1 0 0 0 0 0.670588 0 0 0 0 0.282353 0 0 0 0.2 0"/>
<feBlend mode="normal" in2="BackgroundImageFix" result="effect1_dropShadow_35_237"/>
<feBlend mode="normal" in="SourceGraphic" in2="effect1_dropShadow_35_237" result="shape"/>
<feColorMatrix in="SourceAlpha" type="matrix" values="0 0 0 0 0 0 0 0 0 0 0 0 0 0 0 0 0 0 127 0" result="hardAlpha"/>
<feOffset dx="-10" dy="10"/>
<feGaussianBlur stdDeviation="10"/>
<feComposite in2="hardAlpha" operator="arithmetic" k2="-1" k3="1"/>
<feColorMatrix type="matrix" values="0 0 0 0 1 0 0 0 0 1 0 0 0 0 1 0 0 0 0.24 0"/>
<feBlend mode="normal" in2="shape" result="effect2_innerShadow_35_237"/>
</filter>
<filter id="filter4_di_35_237" x="48.0829" y="41.5806" width="38.7305" height="38.731" filterUnits="userSpaceOnUse" color-interpolation-filters="sRGB">
<feFlood flood-opacity="0" result="BackgroundImageFix"/>
<feColorMatrix in="SourceAlpha" type="matrix" values="0 0 0 0 0 0 0 0 0 0 0 0 0 0 0 0 0 0 127 0" result="hardAlpha"/>
<feOffset dx="6" dy="-6"/>
<feGaussianBlur stdDeviation="8"/>
<feColorMatrix type="matrix" values="0 0 0 0 1 0 0 0 0 0.670588 0 0 0 0 0.282353 0 0 0 0.2 0"/>
<feBlend mode="normal" in2="BackgroundImageFix" result="effect1_dropShadow_35_237"/>
<feBlend mode="normal" in="SourceGraphic" in2="effect1_dropShadow_35_237" result="shape"/>
<feColorMatrix in="SourceAlpha" type="matrix" values="0 0 0 0 0 0 0 0 0 0 0 0 0 0 0 0 0 0 127 0" result="hardAlpha"/>
<feOffset dx="-10" dy="10"/>
<feGaussianBlur stdDeviation="10"/>
<feComposite in2="hardAlpha" operator="arithmetic" k2="-1" k3="1"/>
<feColorMatrix type="matrix" values="0 0 0 0 1 0 0 0 0 1 0 0 0 0 1 0 0 0 0.24 0"/>
<feBlend mode="normal" in2="shape" result="effect2_innerShadow_35_237"/>
</filter>
<filter id="filter5_di_35_237" x="27.3661" y="57.5" width="46.2339" height="42.5" filterUnits="userSpaceOnUse" color-interpolation-filters="sRGB">
<feFlood flood-opacity="0" result="BackgroundImageFix"/>
<feColorMatrix in="SourceAlpha" type="matrix" values="0 0 0 0 0 0 0 0 0 0 0 0 0 0 0 0 0 0 127 0" result="hardAlpha"/>
<feOffset dx="6" dy="6"/>
<feGaussianBlur stdDeviation="8"/>
<feColorMatrix type="matrix" values="0 0 0 0 0.67451 0 0 0 0 0.686275 0 0 0 0 0.815686 0 0 0 0.35 0"/>
<feBlend mode="normal" in2="BackgroundImageFix" result="effect1_dropShadow_35_237"/>
<feBlend mode="normal" in="SourceGraphic" in2="effect1_dropShadow_35_237" result="shape"/>
<feColorMatrix in="SourceAlpha" type="matrix" values="0 0 0 0 0 0 0 0 0 0 0 0 0 0 0 0 0 0 127 0" result="hardAlpha"/>
<feOffset dx="-10" dy="-10"/>
<feGaussianBlur stdDeviation="10"/>
<feComposite in2="hardAlpha" operator="arithmetic" k2="-1" k3="1"/>
<feColorMatrix type="matrix" values="0 0 0 0 1 0 0 0 0 1 0 0 0 0 1 0 0 0 0.24 0"/>
<feBlend mode="normal" in2="shape" result="effect2_innerShadow_35_237"/>
</filter>
<filter id="filter6_di_35_237" x="32.75" y="0" width="35.5" height="40.0664" filterUnits="userSpaceOnUse" color-interpolation-filters="sRGB">
<feFlood flood-opacity="0" result="BackgroundImageFix"/>
<feColorMatrix in="SourceAlpha" type="matrix" values="0 0 0 0 0 0 0 0 0 0 0 0 0 0 0 0 0 0 127 0" result="hardAlpha"/>
<feOffset dx="6" dy="-6"/>
<feGaussianBlur stdDeviation="8"/>
<feColorMatrix type="matrix" values="0 0 0 0 1 0 0 0 0 0.670588 0 0 0 0 0.282353 0 0 0 0.2 0"/>
<feBlend mode="normal" in2="BackgroundImageFix" result="effect1_dropShadow_35_237"/>
<feBlend mode="normal" in="SourceGraphic" in2="effect1_dropShadow_35_237" result="shape"/>
<feColorMatrix in="SourceAlpha" type="matrix" values="0 0 0 0 0 0 0 0 0 0 0 0 0 0 0 0 0 0 127 0" result="hardAlpha"/>
<feOffset dx="-10" dy="10"/>
<feGaussianBlur stdDeviation="10"/>
<feComposite in2="hardAlpha" operator="arithmetic" k2="-1" k3="1"/>
<feColorMatrix type="matrix" values="0 0 0 0 1 0 0 0 0 1 0 0 0 0 1 0 0 0 0.24 0"/>
<feBlend mode="normal" in2="shape" result="effect2_innerShadow_35_237"/>
</filter>
<filter id="filter7_di_35_237" x="14.189" y="7.68652" width="38.7305" height="38.7312" filterUnits="userSpaceOnUse" color-interpolation-filters="sRGB">
<feFlood flood-opacity="0" result="BackgroundImageFix"/>
<feColorMatrix in="SourceAlpha" type="matrix" values="0 0 0 0 0 0 0 0 0 0 0 0 0 0 0 0 0 0 127 0" result="hardAlpha"/>
<feOffset dx="6" dy="-6"/>
<feGaussianBlur stdDeviation="8"/>
<feColorMatrix type="matrix" values="0 0 0 0 1 0 0 0 0 0.670588 0 0 0 0 0.282353 0 0 0 0.2 0"/>
<feBlend mode="normal" in2="BackgroundImageFix" result="effect1_dropShadow_35_237"/>
<feBlend mode="normal" in="SourceGraphic" in2="effect1_dropShadow_35_237" result="shape"/>
<feColorMatrix in="SourceAlpha" type="matrix" values="0 0 0 0 0 0 0 0 0 0 0 0 0 0 0 0 0 0 127 0" result="hardAlpha"/>
<feOffset dx="-10" dy="10"/>
<feGaussianBlur stdDeviation="10"/>
<feComposite in2="hardAlpha" operator="arithmetic" k2="-1" k3="1"/>
<feColorMatrix type="matrix" values="0 0 0 0 1 0 0 0 0 1 0 0 0 0 1 0 0 0 0.24 0"/>
<feBlend mode="normal" in2="shape" result="effect2_innerShadow_35_237"/>
</filter>
<filter id="filter8_di_35_237" x="6.5" y="26.25" width="40.0663" height="35.5" filterUnits="userSpaceOnUse" color-interpolation-filters="sRGB">
<feFlood flood-opacity="0" result="BackgroundImageFix"/>
<feColorMatrix in="SourceAlpha" type="matrix" values="0 0 0 0 0 0 0 0 0 0 0 0 0 0 0 0 0 0 127 0" result="hardAlpha"/>
<feOffset dx="6" dy="-6"/>
<feGaussianBlur stdDeviation="8"/>
<feColorMatrix type="matrix" values="0 0 0 0 1 0 0 0 0 0.670588 0 0 0 0 0.282353 0 0 0 0.2 0"/>
<feBlend mode="normal" in2="BackgroundImageFix" result="effect1_dropShadow_35_237"/>
<feBlend mode="normal" in="SourceGraphic" in2="effect1_dropShadow_35_237" result="shape"/>
<feColorMatrix in="SourceAlpha" type="matrix" values="0 0 0 0 0 0 0 0 0 0 0 0 0 0 0 0 0 0 127 0" result="hardAlpha"/>
<feOffset dx="-10" dy="10"/>
<feGaussianBlur stdDeviation="10"/>
<feComposite in2="hardAlpha" operator="arithmetic" k2="-1" k3="1"/>
<feColorMatrix type="matrix" values="0 0 0 0 1 0 0 0 0 1 0 0 0 0 1 0 0 0 0.24 0"/>
<feBlend mode="normal" in2="shape" result="effect2_innerShadow_35_237"/>
</filter>
<filter id="filter9_di_35_237" x="14.189" y="41.5806" width="38.7305" height="38.731" filterUnits="userSpaceOnUse" color-interpolation-filters="sRGB">
<feFlood flood-opacity="0" result="BackgroundImageFix"/>
<feColorMatrix in="SourceAlpha" type="matrix" values="0 0 0 0 0 0 0 0 0 0 0 0 0 0 0 0 0 0 127 0" result="hardAlpha"/>
<feOffset dx="6" dy="-6"/>
<feGaussianBlur stdDeviation="8"/>
<feColorMatrix type="matrix" values="0 0 0 0 1 0 0 0 0 0.670588 0 0 0 0 0.282353 0 0 0 0.2 0"/>
<feBlend mode="normal" in2="BackgroundImageFix" result="effect1_dropShadow_35_237"/>
<feBlend mode="normal" in="SourceGraphic" in2="effect1_dropShadow_35_237" result="shape"/>
<feColorMatrix in="SourceAlpha" type="matrix" values="0 0 0 0 0 0 0 0 0 0 0 0 0 0 0 0 0 0 127 0" result="hardAlpha"/>
<feOffset dx="-10" dy="10"/>
<feGaussianBlur stdDeviation="10"/>
<feComposite in2="hardAlpha" operator="arithmetic" k2="-1" k3="1"/>
<feColorMatrix type="matrix" values="0 0 0 0 1 0 0 0 0 1 0 0 0 0 1 0 0 0 0.24 0"/>
<feBlend mode="normal" in2="shape" result="effect2_innerShadow_35_237"/>
</filter>
<linearGradient id="paint0_linear_35_237" x1="4.88115" y1="10.9399" x2="45" y2="52.28" gradientUnits="userSpaceOnUse">
<stop stop-color="#B1B1B1" stop-opacity="0.32"/>
<stop offset="1" stop-color="#363567" stop-opacity="0.2"/>
</linearGradient>
<linearGradient id="paint1_linear_35_237" x1="-18.2493" y1="-0.411946" x2="5.86297" y2="113.152" gradientUnits="userSpaceOnUse">
<stop stop-color="white" stop-opacity="0.2"/>
<stop offset="1" stop-color="white" stop-opacity="0"/>
</linearGradient>
<radialGradient id="paint2_radial_35_237" cx="0" cy="0" r="1" gradientUnits="userSpaceOnUse" gradientTransform="translate(35.7029 31.0658) rotate(64.242) scale(23.1313 22.6335)">
<stop stop-color="#FFE974"/>
<stop offset="1" stop-color="#FFAB48"/>
</radialGradient>
<radialGradient id="paint3_radial_35_237" cx="0" cy="0" r="1" gradientUnits="userSpaceOnUse" gradientTransform="translate(59.6361 29.1687) rotate(63.437) scale(4.63104 4.6308)">
<stop stop-color="#FFE974"/>
<stop offset="1" stop-color="#FFAB48"/>
</radialGradient>
<radialGradient id="paint4_radial_35_237" cx="0" cy="0" r="1" gradientUnits="userSpaceOnUse" gradientTransform="translate(66.2952 47.9808) rotate(40.9516) scale(3.2862 4.0668)">
<stop stop-color="#FFE974"/>
<stop offset="1" stop-color="#FFAB48"/>
</radialGradient>
<radialGradient id="paint5_radial_35_237" cx="0" cy="0" r="1" gradientUnits="userSpaceOnUse" gradientTransform="translate(59.6361 63.0628) rotate(63.437) scale(4.63104 4.6308)">
<stop stop-color="#FFE974"/>
<stop offset="1" stop-color="#FFAB48"/>
</radialGradient>
<linearGradient id="paint6_linear_35_237" x1="37.9317" y1="67.5" x2="40.7594" y2="78.9204" gradientUnits="userSpaceOnUse">
<stop stop-color="#D7DDE8"/>
<stop offset="1" stop-color="#ACAFD0"/>
</linearGradient>
<radialGradient id="paint7_radial_35_237" cx="0" cy="0" r="1" gradientUnits="userSpaceOnUse" gradientTransform="translate(43.5577 21.3795) rotate(77.7593) scale(5.07937 2.6311)">
<stop stop-color="#FFE974"/>
<stop offset="1" stop-color="#FFAB48"/>
</radialGradient>
<radialGradient id="paint8_radial_35_237" cx="0" cy="0" r="1" gradientUnits="userSpaceOnUse" gradientTransform="translate(25.7422 29.1687) rotate(63.4369) scale(4.63104 4.6308)">
<stop stop-color="#FFE974"/>
<stop offset="1" stop-color="#FFAB48"/>
</radialGradient>
<radialGradient id="paint9_radial_35_237" cx="0" cy="0" r="1" gradientUnits="userSpaceOnUse" gradientTransform="translate(18.3615 47.9808) rotate(40.9516) scale(3.2862 4.0668)">
<stop stop-color="#FFE974"/>
<stop offset="1" stop-color="#FFAB48"/>
</radialGradient>
<radialGradient id="paint10_radial_35_237" cx="0" cy="0" r="1" gradientUnits="userSpaceOnUse" gradientTransform="translate(25.7422 63.0628) rotate(63.4369) scale(4.63104 4.6308)">
<stop stop-color="#FFE974"/>
<stop offset="1" stop-color="#FFAB48"/>
</radialGradient>
</defs>
</svg>
