<svg width="1015" height="47" viewBox="0 0 1015 47" fill="none" xmlns="http://www.w3.org/2000/svg">
<g filter="url(#filter0_b_35_90)">
<path d="M15.064 46L0.408 1.2H11.16L23.896 40.88H18.52L31.832 1.2H41.432L54.232 40.88H49.048L62.104 1.2H72.024L57.368 46H46.232L34.904 11.184H37.848L26.2 46H15.064ZM108.532 1.2H118.9V46H108.532V1.2ZM88.18 46H77.812V1.2H88.18V46ZM109.3 27.632H87.412V18.864H109.3V27.632ZM123.611 46L143.58 1.2H153.82L173.852 46H162.972L146.588 6.448H150.684L134.236 46H123.611ZM133.595 36.4L136.348 28.528H159.388L162.204 36.4H133.595ZM185.53 46V9.648H171.194V1.2H210.234V9.648H195.898V46H185.53ZM233.937 46V1.2H253.329C257.34 1.2 260.796 1.86133 263.697 3.184C266.598 4.464 268.838 6.32 270.417 8.752C271.996 11.184 272.785 14.0853 272.785 17.456C272.785 20.784 271.996 23.664 270.417 26.096C268.838 28.528 266.598 30.4053 263.697 31.728C260.796 33.008 257.34 33.648 253.329 33.648H239.697L244.305 28.976V46H233.937ZM244.305 30.128L239.697 25.2H252.753C255.953 25.2 258.342 24.5173 259.921 23.152C261.5 21.7867 262.289 19.888 262.289 17.456C262.289 14.9813 261.5 13.0613 259.921 11.696C258.342 10.3307 255.953 9.648 252.753 9.648H239.697L244.305 4.72V30.128ZM289.723 19.248H311.291V27.312H289.723V19.248ZM290.491 37.68H314.875V46H280.187V1.2H314.043V9.52H290.491V37.68ZM344.885 46.768C341.343 46.768 338.058 46.192 335.029 45.04C332.042 43.888 329.439 42.2667 327.22 40.176C325.045 38.0853 323.338 35.632 322.101 32.816C320.906 30 320.309 26.928 320.309 23.6C320.309 20.272 320.906 17.2 322.101 14.384C323.338 11.568 325.066 9.11467 327.285 7.024C329.503 4.93333 332.106 3.312 335.093 2.16C338.079 1.008 341.322 0.431999 344.821 0.431999C348.362 0.431999 351.604 1.008 354.549 2.16C357.535 3.312 360.117 4.93333 362.293 7.024C364.511 9.11467 366.239 11.568 367.477 14.384C368.714 17.1573 369.333 20.2293 369.333 23.6C369.333 26.928 368.714 30.0213 367.477 32.88C366.239 35.696 364.511 38.1493 362.293 40.24C360.117 42.288 357.535 43.888 354.549 45.04C351.604 46.192 348.383 46.768 344.885 46.768ZM344.821 37.936C346.826 37.936 348.661 37.5947 350.325 36.912C352.031 36.2293 353.525 35.248 354.805 33.968C356.085 32.688 357.066 31.1733 357.749 29.424C358.474 27.6747 358.837 25.7333 358.837 23.6C358.837 21.4667 358.474 19.5253 357.749 17.776C357.066 16.0267 356.085 14.512 354.805 13.232C353.567 11.952 352.095 10.9707 350.389 10.288C348.682 9.60533 346.826 9.264 344.821 9.264C342.815 9.264 340.959 9.60533 339.253 10.288C337.589 10.9707 336.117 11.952 334.837 13.232C333.557 14.512 332.554 16.0267 331.829 17.776C331.146 19.5253 330.805 21.4667 330.805 23.6C330.805 25.6907 331.146 27.632 331.829 29.424C332.554 31.1733 333.535 32.688 334.773 33.968C336.053 35.248 337.546 36.2293 339.253 36.912C340.959 37.5947 342.815 37.936 344.821 37.936ZM377.125 46V1.2H396.517C400.527 1.2 403.983 1.86133 406.885 3.184C409.786 4.464 412.026 6.32 413.605 8.752C415.183 11.184 415.973 14.0853 415.973 17.456C415.973 20.784 415.183 23.664 413.605 26.096C412.026 28.528 409.786 30.4053 406.885 31.728C403.983 33.008 400.527 33.648 396.517 33.648H382.885L387.493 28.976V46H377.125ZM387.493 30.128L382.885 25.2H395.941C399.141 25.2 401.53 24.5173 403.109 23.152C404.687 21.7867 405.477 19.888 405.477 17.456C405.477 14.9813 404.687 13.0613 403.109 11.696C401.53 10.3307 399.141 9.648 395.941 9.648H382.885L387.493 4.72V30.128ZM423.375 46V1.2H433.743V37.552H456.207V46H423.375ZM471.536 19.248H493.104V27.312H471.536V19.248ZM472.304 37.68H496.688V46H462V1.2H495.856V9.52H472.304V37.68ZM537.782 46.768C534.198 46.768 530.763 46.2987 527.478 45.36C524.193 44.3787 521.547 43.12 519.542 41.584L523.062 33.776C524.982 35.1413 527.243 36.272 529.846 37.168C532.491 38.0213 535.158 38.448 537.846 38.448C539.894 38.448 541.537 38.256 542.774 37.872C544.054 37.4453 544.993 36.8693 545.59 36.144C546.187 35.4187 546.486 34.5867 546.486 33.648C546.486 32.4533 546.017 31.5147 545.078 30.832C544.139 30.1067 542.902 29.5307 541.366 29.104C539.83 28.6347 538.123 28.208 536.246 27.824C534.411 27.3973 532.555 26.8853 530.678 26.288C528.843 25.6907 527.158 24.9227 525.622 23.984C524.086 23.0453 522.827 21.808 521.846 20.272C520.907 18.736 520.438 16.7733 520.438 14.384C520.438 11.824 521.121 9.49866 522.486 7.408C523.894 5.27466 525.985 3.58933 528.758 2.352C531.574 1.072 535.094 0.431999 539.318 0.431999C542.134 0.431999 544.907 0.773332 547.638 1.456C550.369 2.096 552.779 3.07733 554.87 4.4L551.67 12.272C549.579 11.0773 547.489 10.2027 545.398 9.648C543.307 9.05067 541.259 8.752 539.254 8.752C537.249 8.752 535.606 8.98667 534.326 9.456C533.046 9.92533 532.129 10.544 531.574 11.312C531.019 12.0373 530.742 12.8907 530.742 13.872C530.742 15.024 531.211 15.9627 532.15 16.688C533.089 17.3707 534.326 17.9253 535.862 18.352C537.398 18.7787 539.083 19.2053 540.918 19.632C542.795 20.0587 544.651 20.5493 546.486 21.104C548.363 21.6587 550.07 22.4053 551.606 23.344C553.142 24.2827 554.379 25.52 555.318 27.056C556.299 28.592 556.79 30.5333 556.79 32.88C556.79 35.3973 556.086 37.7013 554.678 39.792C553.27 41.8827 551.158 43.568 548.342 44.848C545.569 46.128 542.049 46.768 537.782 46.768ZM557.986 46L577.955 1.2H588.195L608.227 46H597.347L580.963 6.448H585.059L568.611 46H557.986ZM567.97 36.4L570.723 28.528H593.763L596.579 36.4H567.97ZM621.26 46V27.696L623.628 33.968L603.916 1.2H614.925L630.029 26.352H623.693L638.861 1.2H649.037L629.325 33.968L631.629 27.696V46H621.26ZM665.611 46L685.58 1.2H695.82L715.852 46H704.972L688.588 6.448H692.684L676.236 46H665.611ZM675.595 36.4L678.348 28.528H701.388L704.204 36.4H675.595ZM720.5 46V1.2H742.388C748.02 1.2 752.244 2.26666 755.06 4.4C757.918 6.53333 759.348 9.34933 759.348 12.848C759.348 15.1947 758.772 17.2427 757.62 18.992C756.468 20.6987 754.889 22.0213 752.884 22.96C750.878 23.8987 748.574 24.368 745.972 24.368L747.188 21.744C750.004 21.744 752.5 22.2133 754.676 23.152C756.852 24.048 758.537 25.392 759.732 27.184C760.969 28.976 761.588 31.1733 761.588 33.776C761.588 37.616 760.073 40.624 757.044 42.8C754.014 44.9333 749.556 46 743.668 46H720.5ZM730.804 38.192H742.9C745.588 38.192 747.614 37.7653 748.979 36.912C750.388 36.016 751.092 34.608 751.092 32.688C751.092 30.8107 750.388 29.424 748.979 28.528C747.614 27.5893 745.588 27.12 742.9 27.12H730.036V19.568H741.108C743.625 19.568 745.545 19.1413 746.868 18.288C748.233 17.392 748.916 16.048 748.916 14.256C748.916 12.5067 748.233 11.2053 746.868 10.352C745.545 9.456 743.625 9.008 741.108 9.008H730.804V38.192ZM791.197 46.768C787.656 46.768 784.37 46.192 781.341 45.04C778.354 43.888 775.752 42.2667 773.533 40.176C771.357 38.0853 769.65 35.632 768.413 32.816C767.218 30 766.621 26.928 766.621 23.6C766.621 20.272 767.218 17.2 768.413 14.384C769.65 11.568 771.378 9.11467 773.597 7.024C775.816 4.93333 778.418 3.312 781.405 2.16C784.392 1.008 787.634 0.431999 791.133 0.431999C794.674 0.431999 797.917 1.008 800.861 2.16C803.848 3.312 806.429 4.93333 808.605 7.024C810.824 9.11467 812.552 11.568 813.789 14.384C815.026 17.1573 815.645 20.2293 815.645 23.6C815.645 26.928 815.026 30.0213 813.789 32.88C812.552 35.696 810.824 38.1493 808.605 40.24C806.429 42.288 803.848 43.888 800.861 45.04C797.917 46.192 794.696 46.768 791.197 46.768ZM791.133 37.936C793.138 37.936 794.973 37.5947 796.637 36.912C798.344 36.2293 799.837 35.248 801.117 33.968C802.397 32.688 803.378 31.1733 804.061 29.424C804.786 27.6747 805.149 25.7333 805.149 23.6C805.149 21.4667 804.786 19.5253 804.061 17.776C803.378 16.0267 802.397 14.512 801.117 13.232C799.88 11.952 798.408 10.9707 796.701 10.288C794.994 9.60533 793.138 9.264 791.133 9.264C789.128 9.264 787.272 9.60533 785.565 10.288C783.901 10.9707 782.429 11.952 781.149 13.232C779.869 14.512 778.866 16.0267 778.141 17.776C777.458 19.5253 777.117 21.4667 777.117 23.6C777.117 25.6907 777.458 27.632 778.141 29.424C778.866 31.1733 779.848 32.688 781.085 33.968C782.365 35.248 783.858 36.2293 785.565 36.912C787.272 37.5947 789.128 37.936 791.133 37.936ZM843.341 46.768C836.984 46.768 832.013 44.9973 828.429 41.456C824.845 37.9147 823.053 32.8587 823.053 26.288V1.2H833.421V25.904C833.421 30.1707 834.296 33.2427 836.045 35.12C837.794 36.9973 840.248 37.936 843.405 37.936C846.562 37.936 849.016 36.9973 850.765 35.12C852.514 33.2427 853.389 30.1707 853.389 25.904V1.2H863.629V26.288C863.629 32.8587 861.837 37.9147 858.253 41.456C854.669 44.9973 849.698 46.768 843.341 46.768ZM882.405 46V9.648H868.069V1.2H907.109V9.648H892.773V46H882.405ZM950.716 46.768C944.359 46.768 939.388 44.9973 935.804 41.456C932.22 37.9147 930.428 32.8587 930.428 26.288V1.2H940.796V25.904C940.796 30.1707 941.671 33.2427 943.42 35.12C945.169 36.9973 947.623 37.936 950.78 37.936C953.937 37.936 956.391 36.9973 958.14 35.12C959.889 33.2427 960.764 30.1707 960.764 25.904V1.2H971.004V26.288C971.004 32.8587 969.212 37.9147 965.628 41.456C962.044 44.9973 957.073 46.768 950.716 46.768ZM995.97 46.768C992.386 46.768 988.951 46.2987 985.666 45.36C982.38 44.3787 979.735 43.12 977.73 41.584L981.25 33.776C983.17 35.1413 985.431 36.272 988.034 37.168C990.679 38.0213 993.346 38.448 996.034 38.448C998.082 38.448 999.724 38.256 1000.96 37.872C1002.24 37.4453 1003.18 36.8693 1003.78 36.144C1004.37 35.4187 1004.67 34.5867 1004.67 33.648C1004.67 32.4533 1004.2 31.5147 1003.27 30.832C1002.33 30.1067 1001.09 29.5307 999.554 29.104C998.018 28.6347 996.311 28.208 994.434 27.824C992.599 27.3973 990.743 26.8853 988.866 26.288C987.031 25.6907 985.346 24.9227 983.81 23.984C982.274 23.0453 981.015 21.808 980.034 20.272C979.095 18.736 978.626 16.7733 978.626 14.384C978.626 11.824 979.308 9.49866 980.674 7.408C982.082 5.27466 984.172 3.58933 986.946 2.352C989.762 1.072 993.282 0.431999 997.506 0.431999C1000.32 0.431999 1003.09 0.773332 1005.83 1.456C1008.56 2.096 1010.97 3.07733 1013.06 4.4L1009.86 12.272C1007.77 11.0773 1005.68 10.2027 1003.59 9.648C1001.49 9.05067 999.447 8.752 997.442 8.752C995.436 8.752 993.794 8.98667 992.514 9.456C991.234 9.92533 990.316 10.544 989.762 11.312C989.207 12.0373 988.93 12.8907 988.93 13.872C988.93 15.024 989.399 15.9627 990.338 16.688C991.276 17.3707 992.514 17.9253 994.05 18.352C995.586 18.7787 997.271 19.2053 999.106 19.632C1000.98 20.0587 1002.84 20.5493 1004.67 21.104C1006.55 21.6587 1008.26 22.4053 1009.79 23.344C1011.33 24.2827 1012.57 25.52 1013.51 27.056C1014.49 28.592 1014.98 30.5333 1014.98 32.88C1014.98 35.3973 1014.27 37.7013 1012.87 39.792C1011.46 41.8827 1009.35 43.568 1006.53 44.848C1003.76 46.128 1000.24 46.768 995.97 46.768Z" fill="#F0F0F0" fill-opacity="0.05"/>
<path d="M15.064 46L14.1136 46.3109L14.339 47H15.064V46ZM0.408 1.2V0.199997H-0.971294L-0.542434 1.51093L0.408 1.2ZM11.16 1.2L12.1122 0.894386L11.8893 0.199997H11.16V1.2ZM23.896 40.88V41.88H25.2672L24.8482 40.5744L23.896 40.88ZM18.52 40.88L17.5719 40.5619L17.1297 41.88H18.52V40.88ZM31.832 1.2V0.199997H31.1127L30.8839 0.881935L31.832 1.2ZM41.432 1.2L42.3837 0.892994L42.1602 0.199997H41.432V1.2ZM54.232 40.88V41.88H55.6053L55.1837 40.573L54.232 40.88ZM49.048 40.88L48.0981 40.5675L47.6662 41.88H49.048V40.88ZM62.104 1.2V0.199997H61.3803L61.1541 0.887449L62.104 1.2ZM72.024 1.2L72.9744 1.51093L73.4033 0.199997H72.024V1.2ZM57.368 46V47H58.093L58.3184 46.3109L57.368 46ZM46.232 46L45.2811 46.3094L45.5058 47H46.232V46ZM34.904 11.184V10.184H33.527L33.9531 11.4934L34.904 11.184ZM37.848 11.184L38.7963 11.5013L39.237 10.184H37.848V11.184ZM26.2 46V47H26.9199L27.1483 46.3173L26.2 46ZM16.0144 45.6891L1.35843 0.889069L-0.542434 1.51093L14.1136 46.3109L16.0144 45.6891ZM0.408 2.2H11.16V0.199997H0.408V2.2ZM10.2078 1.50561L22.9438 41.1856L24.8482 40.5744L12.1122 0.894386L10.2078 1.50561ZM23.896 39.88H18.52V41.88H23.896V39.88ZM19.4681 41.1981L32.7801 1.51806L30.8839 0.881935L17.5719 40.5619L19.4681 41.1981ZM31.832 2.2H41.432V0.199997H31.832V2.2ZM40.4803 1.507L53.2803 41.187L55.1837 40.573L42.3837 0.892994L40.4803 1.507ZM54.232 39.88H49.048V41.88H54.232V39.88ZM49.9979 41.1925L63.0539 1.51254L61.1541 0.887449L48.0981 40.5675L49.9979 41.1925ZM62.104 2.2H72.024V0.199997H62.104V2.2ZM71.0736 0.889069L56.4176 45.6891L58.3184 46.3109L72.9744 1.51093L71.0736 0.889069ZM57.368 45H46.232V47H57.368V45ZM47.1829 45.6906L35.8549 10.8746L33.9531 11.4934L45.2811 46.3094L47.1829 45.6906ZM34.904 12.184H37.848V10.184H34.904V12.184ZM36.8997 10.8667L25.2517 45.6827L27.1483 46.3173L38.7963 11.5013L36.8997 10.8667ZM26.2 45H15.064V47H26.2V45ZM108.532 1.2V0.199997H107.532V1.2H108.532ZM118.9 1.2H119.9V0.199997H118.9V1.2ZM118.9 46V47H119.9V46H118.9ZM108.532 46H107.532V47H108.532V46ZM88.18 46V47H89.18V46H88.18ZM77.812 46H76.812V47H77.812V46ZM77.812 1.2V0.199997H76.812V1.2H77.812ZM88.18 1.2H89.18V0.199997H88.18V1.2ZM109.3 27.632V28.632H110.3V27.632H109.3ZM87.412 27.632H86.412V28.632H87.412V27.632ZM87.412 18.864V17.864H86.412V18.864H87.412ZM109.3 18.864H110.3V17.864H109.3V18.864ZM108.532 2.2H118.9V0.199997H108.532V2.2ZM117.9 1.2V46H119.9V1.2H117.9ZM118.9 45H108.532V47H118.9V45ZM109.532 46V1.2H107.532V46H109.532ZM88.18 45H77.812V47H88.18V45ZM78.812 46V1.2H76.812V46H78.812ZM77.812 2.2H88.18V0.199997H77.812V2.2ZM87.18 1.2V46H89.18V1.2H87.18ZM109.3 26.632H87.412V28.632H109.3V26.632ZM88.412 27.632V18.864H86.412V27.632H88.412ZM87.412 19.864H109.3V17.864H87.412V19.864ZM108.3 18.864V27.632H110.3V18.864H108.3ZM123.612 46L122.698 45.5929L122.071 47H123.612V46ZM143.579 1.2V0.199997H142.93L142.666 0.792891L143.579 1.2ZM153.82 1.2L154.732 0.791803L154.468 0.199997H153.82V1.2ZM173.852 46V47H175.394L174.764 45.5918L173.852 46ZM162.971 46L162.048 46.3827L162.303 47H162.971V46ZM146.587 6.448V5.448H145.091L145.664 6.8307L146.587 6.448ZM150.684 6.448L151.607 6.83198L152.182 5.448H150.684V6.448ZM134.236 46V47H134.903L135.159 46.384L134.236 46ZM133.596 36.4L132.652 36.07L132.187 37.4H133.596V36.4ZM136.348 28.528V27.528H135.638L135.404 28.198L136.348 28.528ZM159.387 28.528L160.329 28.1912L160.092 27.528H159.387V28.528ZM162.204 36.4V37.4H163.623L163.145 36.0632L162.204 36.4ZM124.525 46.4071L144.493 1.6071L142.666 0.792891L122.698 45.5929L124.525 46.4071ZM143.579 2.2H153.82V0.199997H143.579V2.2ZM152.907 1.60819L172.939 46.4082L174.764 45.5918L154.732 0.791803L152.907 1.60819ZM173.852 45H162.971V47H173.852V45ZM163.895 45.6173L147.511 6.06529L145.664 6.8307L162.048 46.3827L163.895 45.6173ZM146.587 7.448H150.684V5.448H146.587V7.448ZM149.76 6.06402L133.312 45.616L135.159 46.384L151.607 6.83198L149.76 6.06402ZM134.236 45H123.612V47H134.236V45ZM134.539 36.73L137.291 28.858L135.404 28.198L132.652 36.07L134.539 36.73ZM136.348 29.528H159.387V27.528H136.348V29.528ZM158.446 28.8648L161.262 36.7368L163.145 36.0632L160.329 28.1912L158.446 28.8648ZM162.204 35.4H133.596V37.4H162.204V35.4ZM185.529 46H184.529V47H185.529V46ZM185.529 9.648H186.529V8.648H185.529V9.648ZM171.193 9.648H170.193V10.648H171.193V9.648ZM171.193 1.2V0.199997H170.193V1.2H171.193ZM210.234 1.2H211.234V0.199997H210.234V1.2ZM210.234 9.648V10.648H211.234V9.648H210.234ZM195.898 9.648V8.648H194.898V9.648H195.898ZM195.898 46V47H196.898V46H195.898ZM186.529 46V9.648H184.529V46H186.529ZM185.529 8.648H171.193V10.648H185.529V8.648ZM172.193 9.648V1.2H170.193V9.648H172.193ZM171.193 2.2H210.234V0.199997H171.193V2.2ZM209.234 1.2V9.648H211.234V1.2H209.234ZM210.234 8.648H195.898V10.648H210.234V8.648ZM194.898 9.648V46H196.898V9.648H194.898ZM195.898 45H185.529V47H195.898V45ZM233.937 46H232.937V47H233.937V46ZM233.937 1.2V0.199997H232.937V1.2H233.937ZM263.697 3.184L263.282 4.09397L263.293 4.09892L263.697 3.184ZM270.417 8.752L269.578 9.29647V9.29647L270.417 8.752ZM263.697 31.728L264.101 32.643L264.112 32.6379L263.697 31.728ZM239.697 33.648L238.985 32.9458L237.306 34.648H239.697V33.648ZM244.305 28.976H245.305V26.538L243.593 28.2738L244.305 28.976ZM244.305 46V47H245.305V46H244.305ZM244.305 30.128L243.575 30.811L245.305 32.6616V30.128H244.305ZM239.697 25.2V24.2H237.393L238.967 25.883L239.697 25.2ZM239.697 9.648L238.967 8.96501L237.393 10.648H239.697V9.648ZM244.305 4.72H245.305V2.18641L243.575 4.037L244.305 4.72ZM234.937 46V1.2H232.937V46H234.937ZM233.937 2.2H253.329V0.199997H233.937V2.2ZM253.329 2.2C257.232 2.2 260.54 2.84384 263.282 4.09391L264.112 2.27409C261.051 0.878822 257.447 0.199997 253.329 0.199997V2.2ZM263.293 4.09892C266.034 5.30805 268.115 7.04287 269.578 9.29647L271.256 8.20753C269.561 5.59712 267.163 3.61994 264.101 2.26908L263.293 4.09892ZM269.578 9.29647C271.035 11.5414 271.785 14.2465 271.785 17.456H273.785C273.785 13.9242 272.956 10.8266 271.256 8.20753L269.578 9.29647ZM271.785 17.456C271.785 20.62 271.037 23.3046 269.578 25.5515L271.256 26.6405C272.955 24.0234 273.785 20.948 273.785 17.456H271.785ZM269.578 25.5515C268.113 27.8081 266.028 29.5662 263.282 30.8181L264.112 32.6379C267.168 31.2444 269.563 29.2479 271.256 26.6405L269.578 25.5515ZM263.293 30.8131C260.548 32.0242 257.236 32.648 253.329 32.648V34.648C257.443 34.648 261.043 33.9918 264.101 32.6429L263.293 30.8131ZM253.329 32.648H239.697V34.648H253.329V32.648ZM240.409 34.3502L245.017 29.6782L243.593 28.2738L238.985 32.9458L240.409 34.3502ZM243.305 28.976V46H245.305V28.976H243.305ZM244.305 45H233.937V47H244.305V45ZM245.035 29.445L240.427 24.517L238.967 25.883L243.575 30.811L245.035 29.445ZM239.697 26.2H252.753V24.2H239.697V26.2ZM252.753 26.2C256.07 26.2 258.74 25.4959 260.575 23.9084L259.267 22.3956C257.945 23.5387 255.836 24.2 252.753 24.2V26.2ZM260.575 23.9084C262.411 22.3209 263.289 20.1253 263.289 17.456H261.289C261.289 19.6507 260.589 21.2524 259.267 22.3956L260.575 23.9084ZM263.289 17.456C263.289 14.7503 262.415 12.5306 260.575 10.9396L259.267 12.4524C260.585 13.5921 261.289 15.2124 261.289 17.456H263.289ZM260.575 10.9396C258.74 9.35206 256.07 8.648 252.753 8.648V10.648C255.836 10.648 257.945 11.3093 259.267 12.4524L260.575 10.9396ZM252.753 8.648H239.697V10.648H252.753V8.648ZM240.427 10.331L245.035 5.40299L243.575 4.037L238.967 8.96501L240.427 10.331ZM243.305 4.72V30.128H245.305V4.72H243.305ZM289.723 19.248V18.248H288.723V19.248H289.723ZM311.291 19.248H312.291V18.248H311.291V19.248ZM311.291 27.312V28.312H312.291V27.312H311.291ZM289.723 27.312H288.723V28.312H289.723V27.312ZM290.491 37.68H289.491V38.68H290.491V37.68ZM314.875 37.68H315.875V36.68H314.875V37.68ZM314.875 46V47H315.875V46H314.875ZM280.187 46H279.187V47H280.187V46ZM280.187 1.2V0.199997H279.187V1.2H280.187ZM314.043 1.2H315.043V0.199997H314.043V1.2ZM314.043 9.52V10.52H315.043V9.52H314.043ZM290.491 9.52V8.52H289.491V9.52H290.491ZM289.723 20.248H311.291V18.248H289.723V20.248ZM310.291 19.248V27.312H312.291V19.248H310.291ZM311.291 26.312H289.723V28.312H311.291V26.312ZM290.723 27.312V19.248H288.723V27.312H290.723ZM290.491 38.68H314.875V36.68H290.491V38.68ZM313.875 37.68V46H315.875V37.68H313.875ZM314.875 45H280.187V47H314.875V45ZM281.187 46V1.2H279.187V46H281.187ZM280.187 2.2H314.043V0.199997H280.187V2.2ZM313.043 1.2V9.52H315.043V1.2H313.043ZM314.043 8.52H290.491V10.52H314.043V8.52ZM289.491 9.52V37.68H291.491V9.52H289.491ZM335.029 45.04L334.669 45.973L334.673 45.9747L335.029 45.04ZM327.22 40.176L326.528 40.8971L326.535 40.9038L327.22 40.176ZM322.1 32.816L321.18 33.2066L321.185 33.2183L322.1 32.816ZM322.1 14.384L321.185 13.9817L321.18 13.9934L322.1 14.384ZM335.092 2.16L334.733 1.22699L335.092 2.16ZM354.548 2.16L354.184 3.09125L354.189 3.093L354.548 2.16ZM362.293 7.024L361.6 7.74514L361.607 7.75179L362.293 7.024ZM367.477 14.384L366.561 14.7863L366.563 14.7914L367.477 14.384ZM367.477 32.88L368.392 33.2823L368.394 33.2772L367.477 32.88ZM362.293 40.24L362.978 40.9682L362.978 40.9678L362.293 40.24ZM354.548 45.04L354.189 44.107L354.184 44.1088L354.548 45.04ZM350.324 36.912L349.953 35.9835L349.945 35.9868L350.324 36.912ZM354.805 33.968L354.097 33.2609V33.2609L354.805 33.968ZM357.749 29.424L356.825 29.041L356.821 29.0507L356.817 29.0605L357.749 29.424ZM357.749 17.776L356.817 18.1395L356.821 18.1493L356.825 18.159L357.749 17.776ZM354.805 13.232L354.086 13.927L354.091 13.9331L354.097 13.9391L354.805 13.232ZM350.388 10.288L350.017 11.2165L350.388 10.288ZM339.253 10.288L338.881 9.35949L338.873 9.36283L339.253 10.288ZM334.836 13.232L335.544 13.9391V13.9391L334.836 13.232ZM331.828 17.776L330.905 17.393L330.901 17.4027L330.897 17.4125L331.828 17.776ZM331.828 29.424L330.894 29.78L330.899 29.7936L330.905 29.807L331.828 29.424ZM334.772 33.968L334.054 34.663L334.059 34.6691L334.065 34.6751L334.772 33.968ZM339.253 36.912L338.881 37.8405L339.253 36.912ZM344.884 45.768C341.453 45.768 338.29 45.2103 335.384 44.1053L334.673 45.9747C337.826 47.1737 341.233 47.768 344.884 47.768V45.768ZM335.388 44.107C332.516 42.9993 330.026 41.4456 327.906 39.4482L326.535 40.9038C328.852 43.0877 331.567 44.7767 334.669 45.973L335.388 44.107ZM327.913 39.4549C325.834 37.4567 324.202 35.1123 323.016 32.4137L321.185 33.2183C322.474 36.1517 324.255 38.714 326.528 40.8971L327.913 39.4549ZM323.021 32.4254C321.883 29.7435 321.309 26.8057 321.309 23.6H319.309C319.309 27.0503 319.928 30.2565 321.18 33.2066L323.021 32.4254ZM321.309 23.6C321.309 20.3943 321.883 17.4565 323.021 14.7745L321.18 13.9934C319.928 16.9435 319.309 20.1497 319.309 23.6H321.309ZM323.016 14.7863C324.2 12.092 325.85 9.74961 327.97 7.75179L326.599 6.29621C324.281 8.47972 322.476 11.044 321.185 13.9817L323.016 14.7863ZM327.97 7.75179C330.09 5.75441 332.58 4.20073 335.452 3.093L334.733 1.22699C331.631 2.42326 328.916 4.11225 326.599 6.29621L327.97 7.75179ZM335.452 3.093C338.314 1.98923 341.433 1.432 344.82 1.432V-0.568001C341.21 -0.568001 337.844 0.0267658 334.733 1.22699L335.452 3.093ZM344.82 1.432C348.252 1.432 351.369 1.98982 354.184 3.09124L354.913 1.22875C351.84 0.0261803 348.472 -0.568001 344.82 -0.568001V1.432ZM354.189 3.093C357.059 4.20014 359.525 5.752 361.6 7.7451L362.985 6.30289C360.708 4.11466 358.011 2.42386 354.908 1.22699L354.189 3.093ZM361.607 7.75179C363.727 9.74961 365.377 12.092 366.561 14.7863L368.392 13.9817C367.101 11.044 365.296 8.47972 362.978 6.29621L361.607 7.75179ZM366.563 14.7914C367.737 17.4231 368.333 20.3542 368.333 23.6H370.333C370.333 20.1045 369.69 16.8916 368.39 13.9766L366.563 14.7914ZM368.333 23.6C368.333 26.8008 367.738 29.7579 366.559 32.4828L368.394 33.2772C369.689 30.2847 370.333 27.0552 370.333 23.6H368.333ZM366.561 32.4777C365.377 35.172 363.727 37.5144 361.607 39.5122L362.978 40.9678C365.296 38.7843 367.101 36.22 368.392 33.2823L366.561 32.4777ZM361.607 39.5118C359.532 41.4649 357.063 42.9982 354.189 44.107L354.908 45.973C358.007 44.7778 360.701 43.1111 362.978 40.9682L361.607 39.5118ZM354.184 44.1088C351.368 45.2107 348.272 45.768 344.884 45.768V47.768C348.495 47.768 351.841 47.1733 354.913 45.9712L354.184 44.1088ZM344.82 38.936C346.941 38.936 348.907 38.5746 350.704 37.8372L349.945 35.9868C348.414 36.6147 346.711 36.936 344.82 36.936V38.936ZM350.696 37.8405C352.526 37.1083 354.134 36.0524 355.512 34.6751L354.097 33.2609C352.915 34.4436 351.536 35.3504 349.953 35.9835L350.696 37.8405ZM355.512 34.6751C356.893 33.2937 357.949 31.6608 358.68 29.7875L356.817 29.0605C356.183 30.6859 355.276 32.0823 354.097 33.2609L355.512 34.6751ZM358.672 29.807C359.454 27.9218 359.836 25.8482 359.836 23.6H357.836C357.836 25.6185 357.494 27.4275 356.825 29.041L358.672 29.807ZM359.836 23.6C359.836 21.3518 359.454 19.2782 358.672 17.393L356.825 18.159C357.494 19.7725 357.836 21.5815 357.836 23.6H359.836ZM358.68 17.4125C357.949 15.5392 356.893 13.9063 355.512 12.5249L354.097 13.9391C355.276 15.1177 356.183 16.5141 356.817 18.1395L358.68 17.4125ZM355.523 12.537C354.185 11.1522 352.593 10.0929 350.76 9.35952L350.017 11.2165C351.597 11.8485 352.949 12.7518 354.086 13.927L355.523 12.537ZM350.76 9.35952C348.925 8.62547 346.941 8.264 344.82 8.264V10.264C346.71 10.264 348.439 10.5852 350.017 11.2165L350.76 9.35952ZM344.82 8.264C342.7 8.264 340.716 8.62547 338.881 9.35952L339.624 11.2165C341.202 10.5852 342.931 10.264 344.82 10.264V8.264ZM338.873 9.36283C337.086 10.0961 335.502 11.1518 334.129 12.5249L335.544 13.9391C336.731 12.7521 338.091 11.8452 339.632 11.2132L338.873 9.36283ZM334.129 12.5249C332.752 13.9019 331.678 15.5281 330.905 17.393L332.752 18.159C333.43 16.5252 334.361 15.1221 335.544 13.9391L334.129 12.5249ZM330.897 17.4125C330.163 19.2923 329.805 21.3591 329.805 23.6H331.805C331.805 21.5743 332.128 19.7583 332.76 18.1395L330.897 17.4125ZM329.805 23.6C329.805 25.8013 330.164 27.8645 330.894 29.78L332.763 29.068C332.127 27.3995 331.805 25.58 331.805 23.6H329.805ZM330.905 29.807C331.675 31.6648 332.724 33.2872 334.054 34.663L335.491 33.273C334.347 32.0888 333.433 30.6819 332.752 29.041L330.905 29.807ZM334.065 34.6751C335.443 36.0524 337.051 37.1083 338.881 37.8405L339.624 35.9835C338.041 35.3504 336.662 34.4436 335.48 33.2609L334.065 34.6751ZM338.881 37.8405C340.716 38.5745 342.7 38.936 344.82 38.936V36.936C342.931 36.936 341.202 36.6148 339.624 35.9835L338.881 37.8405ZM377.125 46H376.125V47H377.125V46ZM377.125 1.2V0.199997H376.125V1.2H377.125ZM406.884 3.184L406.47 4.09397L406.481 4.09892L406.884 3.184ZM413.604 8.752L412.766 9.29647V9.29647L413.604 8.752ZM406.884 31.728L407.288 32.643L407.299 32.6379L406.884 31.728ZM382.884 33.648L382.173 32.9458L380.494 34.648H382.884V33.648ZM387.492 28.976H388.492V26.538L386.781 28.2738L387.492 28.976ZM387.492 46V47H388.492V46H387.492ZM387.492 30.128L386.762 30.811L388.492 32.6616V30.128H387.492ZM382.884 25.2V24.2H380.58L382.154 25.883L382.884 25.2ZM382.884 9.648L382.154 8.96501L380.58 10.648H382.884V9.648ZM387.492 4.72H388.492V2.18641L386.762 4.037L387.492 4.72ZM378.125 46V1.2H376.125V46H378.125ZM377.125 2.2H396.517V0.199997H377.125V2.2ZM396.517 2.2C400.42 2.2 403.728 2.84384 406.47 4.09391L407.299 2.27409C404.239 0.878822 400.635 0.199997 396.517 0.199997V2.2ZM406.481 4.09892C409.222 5.30805 411.303 7.04287 412.766 9.29647L414.443 8.20753C412.749 5.59712 410.35 3.61994 407.288 2.26908L406.481 4.09892ZM412.766 9.29647C414.223 11.5414 414.973 14.2465 414.973 17.456H416.973C416.973 13.9242 416.143 10.8266 414.443 8.20753L412.766 9.29647ZM414.973 17.456C414.973 20.62 414.224 23.3046 412.766 25.5515L414.443 26.6405C416.142 24.0234 416.973 20.948 416.973 17.456H414.973ZM412.766 25.5515C411.301 27.8081 409.216 29.5662 406.47 30.8181L407.299 32.6379C410.356 31.2444 412.751 29.2479 414.443 26.6405L412.766 25.5515ZM406.481 30.8131C403.736 32.0242 400.424 32.648 396.517 32.648V34.648C400.631 34.648 404.231 33.9918 407.288 32.6429L406.481 30.8131ZM396.517 32.648H382.884V34.648H396.517V32.648ZM383.596 34.3502L388.204 29.6782L386.781 28.2738L382.173 32.9458L383.596 34.3502ZM386.492 28.976V46H388.492V28.976H386.492ZM387.492 45H377.125V47H387.492V45ZM388.223 29.445L383.615 24.517L382.154 25.883L386.762 30.811L388.223 29.445ZM382.884 26.2H395.94V24.2H382.884V26.2ZM395.94 26.2C399.258 26.2 401.927 25.4959 403.763 23.9084L402.454 22.3956C401.133 23.5387 399.023 24.2 395.94 24.2V26.2ZM403.763 23.9084C405.598 22.3209 406.477 20.1253 406.477 17.456H404.477C404.477 19.6507 403.776 21.2524 402.454 22.3956L403.763 23.9084ZM406.477 17.456C406.477 14.7503 405.602 12.5306 403.763 10.9396L402.454 12.4524C403.772 13.5921 404.477 15.2124 404.477 17.456H406.477ZM403.763 10.9396C401.927 9.35206 399.258 8.648 395.94 8.648V10.648C399.023 10.648 401.133 11.3093 402.454 12.4524L403.763 10.9396ZM395.94 8.648H382.884V10.648H395.94V8.648ZM383.615 10.331L388.223 5.40299L386.762 4.037L382.154 8.96501L383.615 10.331ZM386.492 4.72V30.128H388.492V4.72H386.492ZM423.375 46H422.375V47H423.375V46ZM423.375 1.2V0.199997H422.375V1.2H423.375ZM433.742 1.2H434.742V0.199997H433.742V1.2ZM433.742 37.552H432.742V38.552H433.742V37.552ZM456.207 37.552H457.207V36.552H456.207V37.552ZM456.207 46V47H457.207V46H456.207ZM424.375 46V1.2H422.375V46H424.375ZM423.375 2.2H433.742V0.199997H423.375V2.2ZM432.742 1.2V37.552H434.742V1.2H432.742ZM433.742 38.552H456.207V36.552H433.742V38.552ZM455.207 37.552V46H457.207V37.552H455.207ZM456.207 45H423.375V47H456.207V45ZM471.535 19.248V18.248H470.535V19.248H471.535ZM493.104 19.248H494.104V18.248H493.104V19.248ZM493.104 27.312V28.312H494.104V27.312H493.104ZM471.535 27.312H470.535V28.312H471.535V27.312ZM472.303 37.68H471.303V38.68H472.303V37.68ZM496.688 37.68H497.688V36.68H496.688V37.68ZM496.688 46V47H497.688V46H496.688ZM462 46H461V47H462V46ZM462 1.2V0.199997H461V1.2H462ZM495.855 1.2H496.855V0.199997H495.855V1.2ZM495.855 9.52V10.52H496.855V9.52H495.855ZM472.303 9.52V8.52H471.303V9.52H472.303ZM471.535 20.248H493.104V18.248H471.535V20.248ZM492.104 19.248V27.312H494.104V19.248H492.104ZM493.104 26.312H471.535V28.312H493.104V26.312ZM472.535 27.312V19.248H470.535V27.312H472.535ZM472.303 38.68H496.688V36.68H472.303V38.68ZM495.688 37.68V46H497.688V37.68H495.688ZM496.688 45H462V47H496.688V45ZM463 46V1.2H461V46H463ZM462 2.2H495.855V0.199997H462V2.2ZM494.855 1.2V9.52H496.855V1.2H494.855ZM495.855 8.52H472.303V10.52H495.855V8.52ZM471.303 9.52V37.68H473.303V9.52H471.303ZM527.478 45.36L527.192 46.3182L527.203 46.3215L527.478 45.36ZM519.542 41.584L518.63 41.173L518.305 41.8958L518.934 42.3779L519.542 41.584ZM523.062 33.776L523.642 32.961L522.65 32.2561L522.15 33.365L523.062 33.776ZM529.846 37.168L529.521 38.1135L529.53 38.1167L529.539 38.1197L529.846 37.168ZM542.774 37.872L543.07 38.8271L543.08 38.824L543.09 38.8207L542.774 37.872ZM545.59 36.144L544.818 35.5083L545.59 36.144ZM545.078 30.832L544.467 31.6233L544.478 31.6322L544.49 31.6407L545.078 30.832ZM541.366 29.104L541.074 30.0604L541.086 30.0641L541.098 30.0675L541.366 29.104ZM536.246 27.824L536.019 28.798L536.033 28.801L536.046 28.8037L536.246 27.824ZM530.678 26.288L530.368 27.2389L530.375 27.2409L530.678 26.288ZM525.622 23.984L525.101 24.8373L525.622 23.984ZM521.846 20.272L520.993 20.7934L520.998 20.802L521.003 20.8104L521.846 20.272ZM522.486 7.408L521.651 6.85715L521.649 6.86121L522.486 7.408ZM528.758 2.352L529.165 3.26525L529.172 3.26236L528.758 2.352ZM547.638 1.456L547.395 2.42614L547.403 2.42793L547.41 2.42961L547.638 1.456ZM554.87 4.4L555.796 4.77658L556.111 4.00197L555.405 3.55492L554.87 4.4ZM551.67 12.272L551.174 13.1402L552.166 13.7072L552.596 12.6486L551.67 12.272ZM545.398 9.648L545.123 10.6095L545.132 10.6121L545.142 10.6146L545.398 9.648ZM534.326 9.456L533.982 8.51712V8.51712L534.326 9.456ZM531.574 11.312L532.368 11.9194L532.377 11.9086L532.385 11.8975L531.574 11.312ZM532.15 16.688L531.539 17.4793L531.55 17.4882L531.562 17.4967L532.15 16.688ZM535.862 18.352L535.594 19.3155L535.862 18.352ZM540.918 19.632L540.691 20.606L540.696 20.6071L540.918 19.632ZM546.486 21.104L546.197 22.0612L546.203 22.063L546.486 21.104ZM551.606 23.344L552.127 22.4907L551.606 23.344ZM555.318 27.056L554.465 27.5774L554.47 27.586L554.475 27.5944L555.318 27.056ZM554.678 39.792L555.507 40.3506L554.678 39.792ZM548.342 44.848L547.928 43.9376L547.923 43.94L548.342 44.848ZM537.782 45.768C534.286 45.768 530.944 45.3104 527.753 44.3985L527.203 46.3215C530.582 47.2869 534.11 47.768 537.782 47.768V45.768ZM527.764 44.4018C524.556 43.4436 522.031 42.2311 520.15 40.7901L518.934 42.3779C521.063 44.0089 523.829 45.3137 527.192 46.3182L527.764 44.4018ZM520.454 41.995L523.974 34.187L522.15 33.365L518.63 41.173L520.454 41.995ZM522.482 34.591C524.492 36.0201 526.842 37.1915 529.521 38.1135L530.172 36.2225C527.645 35.3525 525.472 34.2625 523.642 32.961L522.482 34.591ZM529.539 38.1197C532.28 39.0039 535.05 39.448 537.846 39.448V37.448C535.266 37.448 532.703 37.0387 530.153 36.2163L529.539 38.1197ZM537.846 39.448C539.943 39.448 541.698 39.2529 543.07 38.8271L542.478 36.9169C541.375 37.2591 539.845 37.448 537.846 37.448V39.448ZM543.09 38.8207C544.475 38.3592 545.604 37.7002 546.362 36.7797L544.818 35.5083C544.381 36.0384 543.633 36.5315 542.458 36.9233L543.09 38.8207ZM546.362 36.7797C547.107 35.8755 547.486 34.8189 547.486 33.648H545.486C545.486 34.3545 545.268 34.9618 544.818 35.5083L546.362 36.7797ZM547.486 33.648C547.486 32.1445 546.872 30.9005 545.666 30.0233L544.49 31.6407C545.161 32.1288 545.486 32.7622 545.486 33.648H547.486ZM545.689 30.0407C544.62 29.2141 543.254 28.5906 541.634 28.1405L541.098 30.0675C542.55 30.4708 543.659 30.9992 544.467 31.6233L545.689 30.0407ZM541.658 28.1476C540.087 27.6675 538.349 27.2335 536.446 26.8443L536.046 28.8037C537.898 29.1825 539.573 29.6018 541.074 30.0604L541.658 28.1476ZM536.473 26.85C534.665 26.4296 532.834 25.9247 530.981 25.3351L530.375 27.2409C532.276 27.8459 534.158 28.3651 536.019 28.798L536.473 26.85ZM530.988 25.3371C529.222 24.7622 527.608 24.0259 526.143 23.1307L525.101 24.8373C526.708 25.8194 528.465 26.6191 530.368 27.2389L530.988 25.3371ZM526.143 23.1307C524.739 22.2723 523.589 21.1433 522.689 19.7336L521.003 20.8104C522.065 22.4727 523.433 23.8184 525.101 24.8373L526.143 23.1307ZM522.699 19.7505C521.883 18.415 521.438 16.6479 521.438 14.384H519.438C519.438 16.8987 519.932 19.057 520.993 20.7934L522.699 19.7505ZM521.438 14.384C521.438 12.013 522.067 9.87857 523.323 7.95479L521.649 6.86121C520.174 9.11876 519.438 11.635 519.438 14.384H521.438ZM523.321 7.95884C524.605 6.01234 526.533 4.43973 529.165 3.26523L528.351 1.43877C525.436 2.73893 523.183 4.53698 521.651 6.85715L523.321 7.95884ZM529.172 3.26236C531.82 2.05886 535.188 1.432 539.318 1.432V-0.568001C535 -0.568001 531.328 0.0851345 528.344 1.44163L529.172 3.26236ZM539.318 1.432C542.052 1.432 544.744 1.76331 547.395 2.42614L547.881 0.485855C545.07 -0.21665 542.216 -0.568001 539.318 -0.568001V1.432ZM547.41 2.42961C550.046 3.04752 552.351 3.98944 554.335 5.24508L555.405 3.55492C553.208 2.16522 550.691 1.14448 547.866 0.482382L547.41 2.42961ZM553.944 4.02342L550.744 11.8954L552.596 12.6486L555.796 4.77658L553.944 4.02342ZM552.166 11.4038C550.009 10.1709 547.838 9.26069 545.654 8.68144L545.142 10.6146C547.14 11.1446 549.15 11.9838 551.174 13.1402L552.166 11.4038ZM545.673 8.68648C543.5 8.06575 541.36 7.752 539.254 7.752V9.752C541.159 9.752 543.115 10.0356 545.123 10.6095L545.673 8.68648ZM539.254 7.752C537.181 7.752 535.411 7.99309 533.982 8.51712L534.67 10.3949C535.801 9.98024 537.316 9.752 539.254 9.752V7.752ZM533.982 8.51712C532.593 9.02633 531.476 9.74026 530.763 10.7265L532.385 11.8975C532.782 11.3477 533.499 10.8243 534.67 10.3949L533.982 8.51712ZM530.78 10.7045C530.081 11.6177 529.742 12.6886 529.742 13.872H531.742C531.742 13.0928 531.957 12.457 532.368 11.9194L530.78 10.7045ZM529.742 13.872C529.742 15.3443 530.363 16.5712 531.539 17.4793L532.761 15.8967C532.059 15.3542 531.742 14.7037 531.742 13.872H529.742ZM531.562 17.4967C532.626 18.2706 533.983 18.868 535.594 19.3155L536.13 17.3885C534.669 16.9827 533.551 16.4707 532.738 15.8793L531.562 17.4967ZM535.594 19.3155C537.146 19.7466 538.845 20.1767 540.691 20.606L541.145 18.658C539.321 18.234 537.65 17.8108 536.13 17.3885L535.594 19.3155ZM540.696 20.6071C542.551 21.0286 544.384 21.5133 546.197 22.0612L546.775 20.1468C544.918 19.5853 543.04 19.0887 541.14 18.6569L540.696 20.6071ZM546.203 22.063C548.004 22.5951 549.629 23.3079 551.085 24.1973L552.127 22.4907C550.511 21.5028 548.723 20.7222 546.769 20.145L546.203 22.063ZM551.085 24.1973C552.485 25.0532 553.609 26.1768 554.465 27.5774L556.171 26.5345C555.15 24.8632 553.799 23.5121 552.127 22.4907L551.085 24.1973ZM554.475 27.5944C555.328 28.9294 555.79 30.67 555.79 32.88H557.79C557.79 30.3967 557.27 28.2546 556.161 26.5176L554.475 27.5944ZM555.79 32.88C555.79 35.198 555.146 37.3076 553.849 39.2334L555.507 40.3506C557.026 38.0951 557.79 35.5966 557.79 32.88H555.79ZM553.849 39.2334C552.565 41.1392 550.614 42.7168 547.928 43.9376L548.756 45.7584C551.702 44.4192 553.975 42.6262 555.507 40.3506L553.849 39.2334ZM547.923 43.94C545.322 45.1403 541.958 45.768 537.782 45.768V47.768C542.14 47.768 545.815 47.1157 548.761 45.756L547.923 43.94ZM557.987 46L557.073 45.5929L556.446 47H557.987V46ZM577.955 1.2V0.199997H577.305L577.041 0.792891L577.955 1.2ZM588.195 1.2L589.107 0.791803L588.843 0.199997H588.195V1.2ZM608.227 46V47H609.769L609.139 45.5918L608.227 46ZM597.346 46L596.423 46.3827L596.678 47H597.346V46ZM580.963 6.448V5.448H579.466L580.039 6.8307L580.963 6.448ZM585.058 6.448L585.982 6.83198L586.557 5.448H585.058V6.448ZM568.61 46V47H569.278L569.534 46.384L568.61 46ZM567.971 36.4L567.027 36.07L566.562 37.4H567.971V36.4ZM570.722 28.528V27.528H570.013L569.779 28.198L570.722 28.528ZM593.763 28.528L594.704 28.1912L594.467 27.528H593.763V28.528ZM596.578 36.4V37.4H597.998L597.52 36.0632L596.578 36.4ZM558.9 46.4071L578.868 1.6071L577.041 0.792891L557.073 45.5929L558.9 46.4071ZM577.955 2.2H588.195V0.199997H577.955V2.2ZM587.282 1.60819L607.314 46.4082L609.139 45.5918L589.107 0.791803L587.282 1.60819ZM608.227 45H597.346V47H608.227V45ZM598.27 45.6173L581.886 6.06529L580.039 6.8307L596.423 46.3827L598.27 45.6173ZM580.963 7.448H585.058V5.448H580.963V7.448ZM584.135 6.06402L567.687 45.616L569.534 46.384L585.982 6.83198L584.135 6.06402ZM568.61 45H557.987V47H568.61V45ZM568.914 36.73L571.667 28.858L569.779 28.198L567.027 36.07L568.914 36.73ZM570.722 29.528H593.763V27.528H570.722V29.528ZM592.821 28.8648L595.637 36.7368L597.52 36.0632L594.704 28.1912L592.821 28.8648ZM596.578 35.4H567.971V37.4H596.578V35.4ZM621.26 46H620.26V47H621.26V46ZM621.26 27.696L622.196 27.3428L620.26 27.696H621.26ZM623.628 33.968L622.772 34.4835L624.564 33.6148L623.628 33.968ZM603.917 1.2V0.199997H602.148L603.06 1.71548L603.917 1.2ZM614.924 1.2L615.782 0.685181L615.49 0.199997H614.924V1.2ZM630.029 26.352V27.352H631.795L630.886 25.8372L630.029 26.352ZM623.693 26.352L622.836 25.8356L621.922 27.352H623.693V26.352ZM638.86 1.2V0.199997H638.296L638.004 0.68358L638.86 1.2ZM649.036 1.2L649.893 1.71548L650.805 0.199997H649.036V1.2ZM629.325 33.968L628.386 33.6232L630.181 34.4835L629.325 33.968ZM631.628 27.696H632.628L630.69 27.3512L631.628 27.696ZM631.628 46V47H632.628V46H631.628ZM622.26 46V27.696H620.26V46H622.26ZM620.325 28.0492L622.693 34.3212L624.564 33.6148L622.196 27.3428L620.325 28.0492ZM624.485 33.4525L604.773 0.684517L603.06 1.71548L622.772 34.4835L624.485 33.4525ZM603.917 2.2H614.924V0.199997H603.917V2.2ZM614.067 1.71481L629.171 26.8668L630.886 25.8372L615.782 0.685181L614.067 1.71481ZM630.029 25.352H623.693V27.352H630.029V25.352ZM624.549 26.8684L639.717 1.71641L638.004 0.68358L622.836 25.8356L624.549 26.8684ZM638.86 2.2H649.036V0.199997H638.86V2.2ZM648.18 0.684517L628.468 33.4525L630.181 34.4835L649.893 1.71548L648.18 0.684517ZM630.263 34.3128L632.567 28.0408L630.69 27.3512L628.386 33.6232L630.263 34.3128ZM630.628 27.696V46H632.628V27.696H630.628ZM631.628 45H621.26V47H631.628V45ZM665.612 46L664.698 45.5929L664.071 47H665.612V46ZM685.58 1.2V0.199997H684.93L684.666 0.792891L685.58 1.2ZM695.82 1.2L696.732 0.791803L696.468 0.199997H695.82V1.2ZM715.852 46V47H717.394L716.764 45.5918L715.852 46ZM704.971 46L704.048 46.3827L704.303 47H704.971V46ZM688.588 6.448V5.448H687.091L687.664 6.8307L688.588 6.448ZM692.683 6.448L693.607 6.83198L694.182 5.448H692.683V6.448ZM676.235 46V47H676.903L677.159 46.384L676.235 46ZM675.596 36.4L674.652 36.07L674.187 37.4H675.596V36.4ZM678.347 28.528V27.528H677.638L677.404 28.198L678.347 28.528ZM701.388 28.528L702.329 28.1912L702.092 27.528H701.388V28.528ZM704.203 36.4V37.4H705.623L705.145 36.0632L704.203 36.4ZM666.525 46.4071L686.493 1.6071L684.666 0.792891L664.698 45.5929L666.525 46.4071ZM685.58 2.2H695.82V0.199997H685.58V2.2ZM694.907 1.60819L714.939 46.4082L716.764 45.5918L696.732 0.791803L694.907 1.60819ZM715.852 45H704.971V47H715.852V45ZM705.895 45.6173L689.511 6.06529L687.664 6.8307L704.048 46.3827L705.895 45.6173ZM688.588 7.448H692.683V5.448H688.588V7.448ZM691.76 6.06402L675.312 45.616L677.159 46.384L693.607 6.83198L691.76 6.06402ZM676.235 45H665.612V47H676.235V45ZM676.539 36.73L679.292 28.858L677.404 28.198L674.652 36.07L676.539 36.73ZM678.347 29.528H701.388V27.528H678.347V29.528ZM700.446 28.8648L703.262 36.7368L705.145 36.0632L702.329 28.1912L700.446 28.8648ZM704.203 35.4H675.596V37.4H704.203V35.4ZM720.5 46H719.5V47H720.5V46ZM720.5 1.2V0.199997H719.5V1.2H720.5ZM755.06 4.4L754.456 5.19711L754.461 5.20143L755.06 4.4ZM757.62 18.992L758.448 19.5515L758.455 19.542L757.62 18.992ZM752.883 22.96L753.307 23.8657L752.883 22.96ZM745.971 24.368L745.064 23.9475L744.406 25.368H745.971V24.368ZM747.188 21.744V20.744H746.549L746.28 21.3235L747.188 21.744ZM754.675 23.152L754.279 24.0702L754.287 24.0735L754.295 24.0767L754.675 23.152ZM759.732 27.184L758.899 27.7387L758.904 27.7455L758.909 27.7522L759.732 27.184ZM757.044 42.8L757.619 43.6176L757.627 43.6122L757.044 42.8ZM730.804 38.192H729.804V39.192H730.804V38.192ZM748.979 36.912L749.51 37.76L749.516 37.7557L748.979 36.912ZM748.979 28.528L748.413 29.352L748.428 29.3621L748.443 29.3717L748.979 28.528ZM730.036 27.12H729.036V28.12H730.036V27.12ZM730.036 19.568V18.568H729.036V19.568H730.036ZM746.867 18.288L747.41 19.1283L747.416 19.124L746.867 18.288ZM746.867 10.352L746.307 11.1799L746.322 11.1902L746.338 11.2L746.867 10.352ZM730.804 9.008V8.008H729.804V9.008H730.804ZM721.5 46V1.2H719.5V46H721.5ZM720.5 2.2H742.388V0.199997H720.5V2.2ZM742.388 2.2C747.922 2.2 751.89 3.25314 754.456 5.19709L755.663 3.60291C752.597 1.28019 748.117 0.199997 742.388 0.199997V2.2ZM754.461 5.20143C757.073 7.15035 758.348 9.67212 758.348 12.848H760.348C760.348 9.02654 758.763 5.91631 755.658 3.59856L754.461 5.20143ZM758.348 12.848C758.348 15.0235 757.816 16.8752 756.784 18.442L758.455 19.542C759.727 17.6102 760.348 15.3658 760.348 12.848H758.348ZM756.791 18.4325C755.747 19.978 754.314 21.1863 752.46 22.0543L753.307 23.8657C755.464 22.8563 757.188 21.4193 758.448 19.5515L756.791 18.4325ZM752.46 22.0543C750.608 22.9209 748.453 23.368 745.971 23.368V25.368C748.695 25.368 751.148 24.8764 753.307 23.8657L752.46 22.0543ZM746.879 24.7885L748.095 22.1645L746.28 21.3235L745.064 23.9475L746.879 24.7885ZM747.188 22.744C749.893 22.744 752.25 23.1947 754.279 24.0702L755.072 22.2338C752.749 21.232 750.115 20.744 747.188 20.744V22.744ZM754.295 24.0767C756.305 24.9043 757.825 26.1275 758.899 27.7387L760.564 26.6293C759.248 24.6565 757.398 23.1917 755.056 22.2273L754.295 24.0767ZM758.909 27.7522C760.01 29.3467 760.588 31.3359 760.588 33.776H762.588C762.588 31.0108 761.928 28.6053 760.554 26.6158L758.909 27.7522ZM760.588 33.776C760.588 37.3053 759.219 40.0062 756.46 41.9878L757.627 43.6122C760.927 41.2418 762.588 37.9267 762.588 33.776H760.588ZM756.468 41.9824C753.68 43.9457 749.461 45 743.667 45V47C749.65 47 754.349 45.9209 757.619 43.6176L756.468 41.9824ZM743.667 45H720.5V47H743.667V45ZM730.804 39.192H742.899V37.192H730.804V39.192ZM742.899 39.192C745.663 39.192 747.911 38.7588 749.51 37.76L748.45 36.064C747.317 36.7719 745.512 37.192 742.899 37.192V39.192ZM749.516 37.7557C751.26 36.6459 752.091 34.8895 752.091 32.688H750.091C750.091 34.3265 749.515 35.3861 748.443 36.0683L749.516 37.7557ZM752.091 32.688C752.091 30.5193 751.253 28.7895 749.516 27.6843L748.443 29.3717C749.522 30.0585 750.091 31.1021 750.091 32.688H752.091ZM749.546 27.704C747.939 26.5994 745.675 26.12 742.899 26.12V28.12C745.5 28.12 747.289 28.5792 748.413 29.352L749.546 27.704ZM742.899 26.12H730.036V28.12H742.899V26.12ZM731.036 27.12V19.568H729.036V27.12H731.036ZM730.036 20.568H741.107V18.568H730.036V20.568ZM741.107 20.568C743.712 20.568 745.855 20.1311 747.41 19.1283L746.325 17.4477C745.234 18.1516 743.538 18.568 741.107 18.568V20.568ZM747.416 19.124C749.094 18.0229 749.916 16.3461 749.916 14.256H747.916C747.916 15.7499 747.372 16.7611 746.319 17.452L747.416 19.124ZM749.916 14.256C749.916 12.1976 749.084 10.5582 747.398 9.504L746.338 11.2C747.381 11.8524 747.916 12.8157 747.916 14.256H749.916ZM747.428 9.52408C745.87 8.4684 743.719 8.008 741.107 8.008V10.008C743.531 10.008 745.22 10.4436 746.307 11.1799L747.428 9.52408ZM741.107 8.008H730.804V10.008H741.107V8.008ZM729.804 9.008V38.192H731.804V9.008H729.804ZM781.341 45.04L780.981 45.973L780.986 45.9747L781.341 45.04ZM773.533 40.176L772.84 40.8971L772.847 40.9038L773.533 40.176ZM768.413 32.816L767.492 33.2066L767.497 33.2183L768.413 32.816ZM768.413 14.384L767.497 13.9817L767.492 13.9934L768.413 14.384ZM781.405 2.16L781.045 1.22699L781.405 2.16ZM800.861 2.16L800.497 3.09125L800.501 3.093L800.861 2.16ZM808.605 7.024L807.912 7.74514L807.919 7.75179L808.605 7.024ZM813.789 14.384L812.873 14.7863L812.876 14.7914L813.789 14.384ZM813.789 32.88L814.705 33.2823L814.707 33.2772L813.789 32.88ZM808.605 40.24L809.29 40.9682L809.291 40.9678L808.605 40.24ZM800.861 45.04L800.501 44.107L800.497 44.1088L800.861 45.04ZM796.637 36.912L796.266 35.9835L796.257 35.9868L796.637 36.912ZM801.117 33.968L800.41 33.2609V33.2609L801.117 33.968ZM804.061 29.424L803.137 29.041L803.133 29.0507L803.129 29.0605L804.061 29.424ZM804.061 17.776L803.129 18.1395L803.133 18.1493L803.137 18.159L804.061 17.776ZM801.117 13.232L800.398 13.927L800.404 13.9331L800.41 13.9391L801.117 13.232ZM796.701 10.288L796.33 11.2165L796.701 10.288ZM785.565 10.288L785.194 9.35949L785.185 9.36283L785.565 10.288ZM781.149 13.232L781.856 13.9391V13.9391L781.149 13.232ZM778.141 17.776L777.217 17.393L777.213 17.4027L777.209 17.4125L778.141 17.776ZM778.141 29.424L777.207 29.78L777.212 29.7936L777.217 29.807L778.141 29.424ZM781.085 33.968L780.366 34.663L780.372 34.6691L780.378 34.6751L781.085 33.968ZM785.565 36.912L785.194 37.8405L785.565 36.912ZM791.197 45.768C787.766 45.768 784.602 45.2103 781.696 44.1053L780.986 45.9747C784.138 47.1737 787.545 47.768 791.197 47.768V45.768ZM781.701 44.107C778.829 42.9993 776.338 41.4456 774.219 39.4482L772.847 40.9038C775.165 43.0877 777.88 44.7767 780.981 45.973L781.701 44.107ZM774.226 39.4549C772.146 37.4567 770.514 35.1123 769.328 32.4137L767.497 33.2183C768.786 36.1517 770.568 38.714 772.84 40.8971L774.226 39.4549ZM769.334 32.4254C768.196 29.7435 767.621 26.8057 767.621 23.6H765.621C765.621 27.0503 766.241 30.2565 767.492 33.2066L769.334 32.4254ZM767.621 23.6C767.621 20.3943 768.196 17.4565 769.334 14.7745L767.492 13.9934C766.241 16.9435 765.621 20.1497 765.621 23.6H767.621ZM769.328 14.7863C770.512 12.092 772.163 9.74961 774.283 7.75179L772.911 6.29621C770.594 8.47972 768.788 11.044 767.497 13.9817L769.328 14.7863ZM774.283 7.75179C776.402 5.75441 778.893 4.20073 781.765 3.093L781.045 1.22699C777.944 2.42326 775.229 4.11225 772.911 6.29621L774.283 7.75179ZM781.765 3.093C784.627 1.98923 787.746 1.432 791.133 1.432V-0.568001C787.523 -0.568001 784.157 0.0267658 781.045 1.22699L781.765 3.093ZM791.133 1.432C794.565 1.432 797.682 1.98982 800.497 3.09124L801.225 1.22875C798.152 0.0261803 794.784 -0.568001 791.133 -0.568001V1.432ZM800.501 3.093C803.371 4.20014 805.838 5.752 807.912 7.7451L809.298 6.30289C807.02 4.11466 804.324 2.42386 801.221 1.22699L800.501 3.093ZM807.919 7.75179C810.039 9.74961 811.69 12.092 812.873 14.7863L814.705 13.9817C813.414 11.044 811.608 8.47972 809.291 6.29621L807.919 7.75179ZM812.876 14.7914C814.05 17.4231 814.645 20.3542 814.645 23.6H816.645C816.645 20.1045 816.003 16.8916 814.702 13.9766L812.876 14.7914ZM814.645 23.6C814.645 26.8008 814.051 29.7579 812.871 32.4828L814.707 33.2772C816.002 30.2847 816.645 27.0552 816.645 23.6H814.645ZM812.873 32.4777C811.69 35.172 810.039 37.5144 807.919 39.5122L809.291 40.9678C811.608 38.7843 813.414 36.22 814.705 33.2823L812.873 32.4777ZM807.92 39.5118C805.844 41.4649 803.376 42.9982 800.501 44.107L801.221 45.973C804.32 44.7778 807.014 43.1111 809.29 40.9682L807.92 39.5118ZM800.497 44.1088C797.68 45.2107 794.584 45.768 791.197 45.768V47.768C794.807 47.768 798.154 47.1733 801.225 45.9712L800.497 44.1088ZM791.133 38.936C793.254 38.936 795.219 38.5746 797.017 37.8372L796.257 35.9868C794.727 36.6147 793.023 36.936 791.133 36.936V38.936ZM797.008 37.8405C798.839 37.1083 800.447 36.0524 801.824 34.6751L800.41 33.2609C799.227 34.4436 797.849 35.3504 796.266 35.9835L797.008 37.8405ZM801.824 34.6751C803.206 33.2937 804.262 31.6608 804.993 29.7875L803.129 29.0605C802.495 30.6859 801.588 32.0823 800.41 33.2609L801.824 34.6751ZM804.985 29.807C805.766 27.9218 806.149 25.8482 806.149 23.6H804.149C804.149 25.6185 803.806 27.4275 803.137 29.041L804.985 29.807ZM806.149 23.6C806.149 21.3518 805.766 19.2782 804.985 17.393L803.137 18.159C803.806 19.7725 804.149 21.5815 804.149 23.6H806.149ZM804.993 17.4125C804.262 15.5392 803.206 13.9063 801.824 12.5249L800.41 13.9391C801.588 15.1177 802.495 16.5141 803.129 18.1395L804.993 17.4125ZM801.836 12.537C800.497 11.1522 798.906 10.0929 797.072 9.35952L796.33 11.2165C797.91 11.8485 799.262 12.7518 800.398 13.927L801.836 12.537ZM797.072 9.35952C795.237 8.62547 793.254 8.264 791.133 8.264V10.264C793.023 10.264 794.751 10.5852 796.33 11.2165L797.072 9.35952ZM791.133 8.264C789.012 8.264 787.029 8.62547 785.194 9.35952L785.936 11.2165C787.515 10.5852 789.243 10.264 791.133 10.264V8.264ZM785.185 9.36283C783.398 10.0961 781.815 11.1518 780.442 12.5249L781.856 13.9391C783.043 12.7521 784.404 11.8452 785.945 11.2132L785.185 9.36283ZM780.442 12.5249C779.065 13.9019 777.99 15.5281 777.217 17.393L779.065 18.159C779.742 16.5252 780.673 15.1221 781.856 13.9391L780.442 12.5249ZM777.209 17.4125C776.476 19.2923 776.117 21.3591 776.117 23.6H778.117C778.117 21.5743 778.441 19.7583 779.073 18.1395L777.209 17.4125ZM776.117 23.6C776.117 25.8013 776.477 27.8645 777.207 29.78L779.076 29.068C778.44 27.3995 778.117 25.58 778.117 23.6H776.117ZM777.217 29.807C777.988 31.6648 779.036 33.2872 780.366 34.663L781.804 33.273C780.659 32.0888 779.745 30.6819 779.065 29.041L777.217 29.807ZM780.378 34.6751C781.755 36.0524 783.363 37.1083 785.194 37.8405L785.936 35.9835C784.353 35.3504 782.975 34.4436 781.792 33.2609L780.378 34.6751ZM785.194 37.8405C787.029 38.5745 789.012 38.936 791.133 38.936V36.936C789.243 36.936 787.515 36.6148 785.936 35.9835L785.194 37.8405ZM828.429 41.456L829.132 40.7447L828.429 41.456ZM823.053 1.2V0.199997H822.053V1.2H823.053ZM833.421 1.2H834.421V0.199997H833.421V1.2ZM836.045 35.12L835.313 35.8017V35.8017L836.045 35.12ZM850.765 35.12L851.497 35.8017V35.8017L850.765 35.12ZM853.389 1.2V0.199997H852.389V1.2H853.389ZM863.629 1.2H864.629V0.199997H863.629V1.2ZM858.253 41.456L858.956 42.1673L858.253 41.456ZM843.341 45.768C837.174 45.768 832.483 44.0557 829.132 40.7447L827.726 42.1673C831.543 45.9389 836.793 47.768 843.341 47.768V45.768ZM829.132 40.7447C825.791 37.4434 824.053 32.6762 824.053 26.288H822.053C822.053 33.0412 823.899 38.3859 827.726 42.1673L829.132 40.7447ZM824.053 26.288V1.2H822.053V26.288H824.053ZM823.053 2.2H833.421V0.199997H823.053V2.2ZM832.421 1.2V25.904H834.421V1.2H832.421ZM832.421 25.904C832.421 30.2666 833.308 33.6497 835.313 35.8017L836.777 34.4383C835.283 32.8356 834.421 30.0747 834.421 25.904H832.421ZM835.313 35.8017C837.294 37.9273 840.039 38.936 843.405 38.936V36.936C840.456 36.936 838.295 36.0673 836.777 34.4383L835.313 35.8017ZM843.405 38.936C846.771 38.936 849.516 37.9273 851.497 35.8017L850.033 34.4383C848.515 36.0673 846.354 36.936 843.405 36.936V38.936ZM851.497 35.8017C853.502 33.6497 854.389 30.2666 854.389 25.904H852.389C852.389 30.0747 851.527 32.8356 850.033 34.4383L851.497 35.8017ZM854.389 25.904V1.2H852.389V25.904H854.389ZM853.389 2.2H863.629V0.199997H853.389V2.2ZM862.629 1.2V26.288H864.629V1.2H862.629ZM862.629 26.288C862.629 32.6762 860.891 37.4434 857.55 40.7447L858.956 42.1673C862.783 38.3859 864.629 33.0412 864.629 26.288H862.629ZM857.55 40.7447C854.199 44.0557 849.508 45.768 843.341 45.768V47.768C849.889 47.768 855.139 45.9389 858.956 42.1673L857.55 40.7447ZM882.404 46H881.404V47H882.404V46ZM882.404 9.648H883.404V8.648H882.404V9.648ZM868.068 9.648H867.068V10.648H868.068V9.648ZM868.068 1.2V0.199997H867.068V1.2H868.068ZM907.109 1.2H908.109V0.199997H907.109V1.2ZM907.109 9.648V10.648H908.109V9.648H907.109ZM892.773 9.648V8.648H891.773V9.648H892.773ZM892.773 46V47H893.773V46H892.773ZM883.404 46V9.648H881.404V46H883.404ZM882.404 8.648H868.068V10.648H882.404V8.648ZM869.068 9.648V1.2H867.068V9.648H869.068ZM868.068 2.2H907.109V0.199997H868.068V2.2ZM906.109 1.2V9.648H908.109V1.2H906.109ZM907.109 8.648H892.773V10.648H907.109V8.648ZM891.773 9.648V46H893.773V9.648H891.773ZM892.773 45H882.404V47H892.773V45ZM935.804 41.456L936.507 40.7447L935.804 41.456ZM930.428 1.2V0.199997H929.428V1.2H930.428ZM940.796 1.2H941.796V0.199997H940.796V1.2ZM943.42 35.12L942.688 35.8017V35.8017L943.42 35.12ZM958.14 35.12L958.872 35.8017V35.8017L958.14 35.12ZM960.764 1.2V0.199997H959.764V1.2H960.764ZM971.004 1.2H972.004V0.199997H971.004V1.2ZM965.628 41.456L966.331 42.1673L965.628 41.456ZM950.716 45.768C944.549 45.768 939.858 44.0557 936.507 40.7447L935.101 42.1673C938.918 45.9389 944.168 47.768 950.716 47.768V45.768ZM936.507 40.7447C933.166 37.4434 931.428 32.6762 931.428 26.288H929.428C929.428 33.0412 931.274 38.3859 935.101 42.1673L936.507 40.7447ZM931.428 26.288V1.2H929.428V26.288H931.428ZM930.428 2.2H940.796V0.199997H930.428V2.2ZM939.796 1.2V25.904H941.796V1.2H939.796ZM939.796 25.904C939.796 30.2666 940.683 33.6497 942.688 35.8017L944.152 34.4383C942.658 32.8356 941.796 30.0747 941.796 25.904H939.796ZM942.688 35.8017C944.669 37.9273 947.414 38.936 950.78 38.936V36.936C947.831 36.936 945.67 36.0673 944.152 34.4383L942.688 35.8017ZM950.78 38.936C954.146 38.936 956.891 37.9273 958.872 35.8017L957.408 34.4383C955.89 36.0673 953.729 36.936 950.78 36.936V38.936ZM958.872 35.8017C960.877 33.6497 961.764 30.2666 961.764 25.904H959.764C959.764 30.0747 958.902 32.8356 957.408 34.4383L958.872 35.8017ZM961.764 25.904V1.2H959.764V25.904H961.764ZM960.764 2.2H971.004V0.199997H960.764V2.2ZM970.004 1.2V26.288H972.004V1.2H970.004ZM970.004 26.288C970.004 32.6762 968.266 37.4434 964.925 40.7447L966.331 42.1673C970.158 38.3859 972.004 33.0412 972.004 26.288H970.004ZM964.925 40.7447C961.574 44.0557 956.883 45.768 950.716 45.768V47.768C957.264 47.768 962.514 45.9389 966.331 42.1673L964.925 40.7447ZM985.666 45.36L985.379 46.3182L985.391 46.3215L985.666 45.36ZM977.729 41.584L976.818 41.173L976.492 41.8958L977.121 42.3779L977.729 41.584ZM981.25 33.776L981.829 32.961L980.838 32.2561L980.338 33.365L981.25 33.776ZM988.034 37.168L987.708 38.1135L987.717 38.1167L987.727 38.1197L988.034 37.168ZM1000.96 37.872L1001.26 38.8271L1001.27 38.824L1001.28 38.8207L1000.96 37.872ZM1003.78 36.144L1003.01 35.5083L1003.78 36.144ZM1003.27 30.832L1002.65 31.6233L1002.67 31.6322L1002.68 31.6407L1003.27 30.832ZM999.554 29.104L999.261 30.0604L999.273 30.0641L999.286 30.0675L999.554 29.104ZM994.433 27.824L994.207 28.798L994.22 28.801L994.233 28.8037L994.433 27.824ZM988.865 26.288L988.556 27.2389L988.562 27.2409L988.865 26.288ZM983.81 23.984L983.288 24.8373L983.81 23.984ZM980.034 20.272L979.18 20.7934L979.185 20.802L979.191 20.8104L980.034 20.272ZM980.674 7.408L979.839 6.85715L979.836 6.86121L980.674 7.408ZM986.945 2.352L987.353 3.26525L987.359 3.26236L986.945 2.352ZM1005.83 1.456L1005.58 2.42614L1005.59 2.42793L1005.6 2.42961L1005.83 1.456ZM1013.06 4.4L1013.98 4.77658L1014.3 4.00197L1013.59 3.55492L1013.06 4.4ZM1009.86 12.272L1009.36 13.1402L1010.35 13.7072L1010.78 12.6486L1009.86 12.272ZM1003.59 9.648L1003.31 10.6095L1003.32 10.6121L1003.33 10.6146L1003.59 9.648ZM992.513 9.456L992.169 8.51712V8.51712L992.513 9.456ZM989.761 11.312L990.556 11.9194L990.564 11.9086L990.572 11.8975L989.761 11.312ZM990.338 16.688L989.726 17.4793L989.738 17.4882L989.749 17.4967L990.338 16.688ZM994.049 18.352L993.782 19.3155L994.049 18.352ZM999.106 19.632L998.879 20.606L998.884 20.6071L999.106 19.632ZM1004.67 21.104L1004.38 22.0612L1004.39 22.063L1004.67 21.104ZM1009.79 23.344L1010.31 22.4907L1009.79 23.344ZM1013.51 27.056L1012.65 27.5774L1012.66 27.586L1012.66 27.5944L1013.51 27.056ZM1012.87 39.792L1013.69 40.3506L1012.87 39.792ZM1006.53 44.848L1006.12 43.9376L1006.11 43.94L1006.53 44.848ZM995.969 45.768C992.474 45.768 989.132 45.3104 985.94 44.3985L985.391 46.3215C988.77 47.2869 992.297 47.768 995.969 47.768V45.768ZM985.952 44.4018C982.744 43.4436 980.219 42.2311 978.338 40.7901L977.121 42.3779C979.251 44.0089 982.016 45.3137 985.379 46.3182L985.952 44.4018ZM978.641 41.995L982.161 34.187L980.338 33.365L976.818 41.173L978.641 41.995ZM980.67 34.591C982.68 36.0201 985.03 37.1915 987.708 38.1135L988.359 36.2225C985.832 35.3525 983.659 34.2625 981.829 32.961L980.67 34.591ZM987.727 38.1197C990.468 39.0039 993.238 39.448 996.034 39.448V37.448C993.453 37.448 990.89 37.0387 988.341 36.2163L987.727 38.1197ZM996.034 39.448C998.131 39.448 999.886 39.2529 1001.26 38.8271L1000.67 36.9169C999.563 37.2591 998.032 37.448 996.034 37.448V39.448ZM1001.28 38.8207C1002.66 38.3592 1003.79 37.7002 1004.55 36.7797L1003.01 35.5083C1002.57 36.0384 1001.82 36.5315 1000.65 36.9233L1001.28 38.8207ZM1004.55 36.7797C1005.29 35.8755 1005.67 34.8189 1005.67 33.648H1003.67C1003.67 34.3545 1003.46 34.9618 1003.01 35.5083L1004.55 36.7797ZM1005.67 33.648C1005.67 32.1445 1005.06 30.9005 1003.85 30.0233L1002.68 31.6407C1003.35 32.1288 1003.67 32.7622 1003.67 33.648H1005.67ZM1003.88 30.0407C1002.81 29.2141 1001.44 28.5906 999.821 28.1405L999.286 30.0675C1000.74 30.4708 1001.85 30.9992 1002.65 31.6233L1003.88 30.0407ZM999.846 28.1476C998.274 27.6675 996.536 27.2335 994.634 26.8443L994.233 28.8037C996.085 29.1825 997.761 29.6018 999.261 30.0604L999.846 28.1476ZM994.66 26.85C992.852 26.4296 991.022 25.9247 989.169 25.3351L988.562 27.2409C990.464 27.8459 992.345 28.3651 994.207 28.798L994.66 26.85ZM989.175 25.3371C987.409 24.7622 985.796 24.0259 984.331 23.1307L983.288 24.8373C984.895 25.8194 986.652 26.6191 988.556 27.2389L989.175 25.3371ZM984.331 23.1307C982.926 22.2723 981.777 21.1433 980.876 19.7336L979.191 20.8104C980.253 22.4727 981.621 23.8184 983.288 24.8373L984.331 23.1307ZM980.887 19.7505C980.071 18.415 979.625 16.6479 979.625 14.384H977.625C977.625 16.8987 978.119 19.057 979.18 20.7934L980.887 19.7505ZM979.625 14.384C979.625 12.013 980.254 9.87857 981.511 7.95479L979.836 6.86121C978.362 9.11876 977.625 11.635 977.625 14.384H979.625ZM981.508 7.95884C982.793 6.01234 984.72 4.43973 987.353 3.26523L986.538 1.43877C983.624 2.73893 981.37 4.53698 979.839 6.85715L981.508 7.95884ZM987.359 3.26236C990.007 2.05886 993.375 1.432 997.505 1.432V-0.568001C993.188 -0.568001 989.516 0.0851345 986.532 1.44163L987.359 3.26236ZM997.505 1.432C1000.24 1.432 1002.93 1.76331 1005.58 2.42614L1006.07 0.485855C1003.26 -0.21665 1000.4 -0.568001 997.505 -0.568001V1.432ZM1005.6 2.42961C1008.23 3.04752 1010.54 3.98944 1012.52 5.24508L1013.59 3.55492C1011.4 2.16522 1008.88 1.14448 1006.05 0.482382L1005.6 2.42961ZM1012.13 4.02342L1008.93 11.8954L1010.78 12.6486L1013.98 4.77658L1012.13 4.02342ZM1010.35 11.4038C1008.2 10.1709 1006.03 9.26069 1003.84 8.68144L1003.33 10.6146C1005.33 11.1446 1007.34 11.9838 1009.36 13.1402L1010.35 11.4038ZM1003.86 8.68648C1001.69 8.06575 999.547 7.752 997.442 7.752V9.752C999.346 9.752 1001.3 10.0356 1003.31 10.6095L1003.86 8.68648ZM997.442 7.752C995.369 7.752 993.598 7.99309 992.169 8.51712L992.858 10.3949C993.989 9.98024 995.503 9.752 997.442 9.752V7.752ZM992.169 8.51712C990.781 9.02633 989.663 9.74026 988.951 10.7265L990.572 11.8975C990.969 11.3477 991.687 10.8243 992.858 10.3949L992.169 8.51712ZM988.967 10.7045C988.269 11.6177 987.93 12.6886 987.93 13.872H989.93C989.93 13.0928 990.145 12.457 990.556 11.9194L988.967 10.7045ZM987.93 13.872C987.93 15.3443 988.551 16.5712 989.726 17.4793L990.949 15.8967C990.247 15.3542 989.93 14.7037 989.93 13.872H987.93ZM989.749 17.4967C990.813 18.2706 992.171 18.868 993.782 19.3155L994.317 17.3885C992.856 16.9827 991.739 16.4707 990.926 15.8793L989.749 17.4967ZM993.782 19.3155C995.334 19.7466 997.033 20.1767 998.879 20.606L999.332 18.658C997.509 18.234 995.837 17.8108 994.317 17.3885L993.782 19.3155ZM998.884 20.6071C1000.74 21.0286 1002.57 21.5133 1004.38 22.0612L1004.96 20.1468C1003.11 19.5853 1001.23 19.0887 999.327 18.6569L998.884 20.6071ZM1004.39 22.063C1006.19 22.5951 1007.82 23.3079 1009.27 24.1973L1010.31 22.4907C1008.7 21.5028 1006.91 20.7222 1004.96 20.145L1004.39 22.063ZM1009.27 24.1973C1010.67 25.0532 1011.8 26.1768 1012.65 27.5774L1014.36 26.5345C1013.34 24.8632 1011.99 23.5121 1010.31 22.4907L1009.27 24.1973ZM1012.66 27.5944C1013.52 28.9294 1013.98 30.67 1013.98 32.88H1015.98C1015.98 30.3967 1015.46 28.2546 1014.35 26.5176L1012.66 27.5944ZM1013.98 32.88C1013.98 35.198 1013.33 37.3076 1012.04 39.2334L1013.69 40.3506C1015.21 38.0951 1015.98 35.5966 1015.98 32.88H1013.98ZM1012.04 39.2334C1010.75 41.1392 1008.8 42.7168 1006.12 43.9376L1006.94 45.7584C1009.89 44.4192 1012.16 42.6262 1013.69 40.3506L1012.04 39.2334ZM1006.11 43.94C1003.51 45.1403 1000.15 45.768 995.969 45.768V47.768C1000.33 47.768 1004 47.1157 1006.95 45.756L1006.11 43.94Z" fill="url(#paint0_linear_35_90)"/>
</g>
<defs>
<filter id="filter0_b_35_90" x="-3.59198" y="-3.56812" width="1022.57" height="54.3362" filterUnits="userSpaceOnUse" color-interpolation-filters="sRGB">
<feFlood flood-opacity="0" result="BackgroundImageFix"/>
<feGaussianBlur in="BackgroundImageFix" stdDeviation="2"/>
<feComposite in2="SourceAlpha" operator="in" result="effect1_backgroundBlur_35_90"/>
<feBlend mode="normal" in="SourceGraphic" in2="effect1_backgroundBlur_35_90" result="shape"/>
</filter>
<linearGradient id="paint0_linear_35_90" x1="508" y1="-16" x2="508" y2="62" gradientUnits="userSpaceOnUse">
<stop stop-color="#F0F0F0"/>
<stop offset="1" stop-color="#F0F0F0" stop-opacity="0"/>
</linearGradient>
</defs>
</svg>
