<svg width="930" height="142" viewBox="0 0 930 142" fill="none" xmlns="http://www.w3.org/2000/svg">
<g filter="url(#filter0_d_35_33)">
<g filter="url(#filter1_b_35_33)">
<path d="M5 45.8V1H26.888C32.52 1 36.744 2.06667 39.56 4.2C42.4187 6.33333 43.848 9.14933 43.848 12.648C43.848 14.9947 43.272 17.0427 42.12 18.792C40.968 20.4987 39.3893 21.8213 37.384 22.76C35.3787 23.6987 33.0747 24.168 30.472 24.168L31.688 21.544C34.504 21.544 37 22.0133 39.176 22.952C41.352 23.848 43.0373 25.192 44.232 26.984C45.4693 28.776 46.088 30.9733 46.088 33.576C46.088 37.416 44.5733 40.424 41.544 42.6C38.5147 44.7333 34.056 45.8 28.168 45.8H5ZM15.304 37.992H27.4C30.088 37.992 32.1147 37.5653 33.48 36.712C34.888 35.816 35.592 34.408 35.592 32.488C35.592 30.6107 34.888 29.224 33.48 28.328C32.1147 27.3893 30.088 26.92 27.4 26.92H14.536V19.368H25.608C28.1253 19.368 30.0453 18.9413 31.368 18.088C32.7333 17.192 33.416 15.848 33.416 14.056C33.416 12.3067 32.7333 11.0053 31.368 10.152C30.0453 9.256 28.1253 8.808 25.608 8.808H15.304V37.992Z" fill="url(#paint0_linear_35_33)"/>
<path d="M53.9375 45.8V1H73.3295C77.3402 1 80.7962 1.66133 83.6975 2.984C86.5988 4.264 88.8388 6.12 90.4175 8.552C91.9962 10.984 92.7855 13.8853 92.7855 17.256C92.7855 20.584 91.9962 23.464 90.4175 25.896C88.8388 28.2853 86.5988 30.12 83.6975 31.4C80.7962 32.68 77.3402 33.32 73.3295 33.32H59.6975L64.3055 28.776V45.8H53.9375ZM82.4175 45.8L71.2175 29.544H82.2895L93.6175 45.8H82.4175ZM64.3055 29.928L59.6975 25.064H72.7535C75.9535 25.064 78.3428 24.3813 79.9215 23.016C81.5002 21.608 82.2895 19.688 82.2895 17.256C82.2895 14.7813 81.5002 12.8613 79.9215 11.496C78.3428 10.1307 75.9535 9.448 72.7535 9.448H59.6975L64.3055 4.52V29.928Z" fill="url(#paint1_linear_35_33)"/>
<path d="M110.536 19.048H132.104V27.112H110.536V19.048ZM111.304 37.48H135.688V45.8H101V1H134.856V9.32H111.304V37.48Z" fill="url(#paint2_linear_35_33)"/>
<path d="M138.049 45.8L158.018 1H168.258L188.29 45.8H177.41L161.025 6.248H165.122L148.673 45.8H138.049ZM148.033 36.2L150.786 28.328H173.826L176.642 36.2H148.033Z" fill="url(#paint3_linear_35_33)"/>
<path d="M202.217 35.56L201.641 23.592L223.081 1H234.602L215.273 21.8L209.514 27.944L202.217 35.56ZM192.938 45.8V1H203.242V45.8H192.938ZM223.594 45.8L207.658 26.28L214.441 18.92L235.689 45.8H223.594Z" fill="url(#paint4_linear_35_33)"/>
<path d="M4.5 45.8V46.3H5H28.168C34.1031 46.3 38.6819 45.2271 41.8319 43.0088L41.8357 43.0061C45.0003 40.7329 46.588 37.5714 46.588 33.576C46.588 30.8936 45.9497 28.5932 44.6457 26.7031C43.3916 24.8236 41.626 23.4208 39.3702 22.4912C39.2848 22.4544 39.1989 22.4183 39.1126 22.3829C40.4949 21.5039 41.6376 20.4004 42.5344 19.0717L42.5345 19.0718L42.5376 19.067C43.7497 17.2264 44.348 15.0802 44.348 12.648C44.348 8.98856 42.8418 6.02583 39.8606 3.80041C36.9196 1.5731 32.568 0.5 26.888 0.5H5H4.5V1V45.8ZM27.4 37.492H15.804V27.42H27.4C30.0443 27.42 31.952 27.8843 33.1967 28.74L33.2041 28.7451L33.2116 28.7498C34.4553 29.5413 35.092 30.7564 35.092 32.488C35.092 34.2663 34.4522 35.4998 33.2135 36.2889C31.9645 37.0689 30.0492 37.492 27.4 37.492ZM25.608 18.868H15.804V9.308H25.608C28.0784 9.308 29.8828 9.7498 31.0876 10.566L31.0952 10.5711L31.103 10.576C32.3076 11.3289 32.916 12.4612 32.916 14.056C32.916 15.6982 32.3032 16.8755 31.0953 17.6689C29.8885 18.4468 28.0806 18.868 25.608 18.868ZM53.4375 45.8V46.3H53.9375H64.3055H64.8055V45.8V33.82H73.3295C73.4052 33.82 73.4806 33.8198 73.5559 33.8193L82.0058 46.0837L82.1548 46.3H82.4175H93.6175H94.5753L94.0277 45.5141L84.3634 31.6455C87.1204 30.3425 89.2836 28.5193 90.8347 26.1716L90.8369 26.1682C92.4756 23.6437 93.2855 20.666 93.2855 17.256C93.2855 13.8048 92.4763 10.8053 90.8369 8.27977C89.2008 5.75934 86.8824 3.84316 83.9021 2.52777C80.9217 1.16966 77.3926 0.5 73.3295 0.5H53.9375H53.4375V1V45.8ZM72.7535 24.564H64.8055V9.948H72.7535C75.8948 9.948 78.1442 10.62 79.5944 11.8742C81.0427 13.1267 81.7895 14.8969 81.7895 17.256C81.7895 19.5675 81.0456 21.342 79.5916 22.6403C78.1413 23.8929 75.8928 24.564 72.7535 24.564ZM111.804 36.98V27.612H132.104H132.604V27.112V19.048V18.548H132.104H111.804V9.82H134.856H135.356V9.32V1V0.5H134.856H101H100.5V1V45.8V46.3H101H135.688H136.188V45.8V37.48V36.98H135.688H111.804ZM137.593 45.5965L137.279 46.3H138.049H148.673H149.007L149.135 45.992L152.999 36.7H173.099L176.948 45.9914L177.075 46.3H177.41H188.29H189.061L188.746 45.5959L168.714 0.795903L168.582 0.5H168.258H158.018H157.693L157.561 0.796447L137.593 45.5965ZM163.069 12.4867L169.424 27.828H156.689L163.069 12.4867ZM203.742 20.6528V1V0.5H203.242H192.938H192.438V1V45.8V46.3H192.938H203.242H203.742V45.8V34.6919L209.215 28.9784L223.206 46.1162L223.356 46.3H223.594H235.689H236.722L236.082 45.4899L216.712 20.9863L234.968 1.34036L235.749 0.5H234.602H223.081H222.867L222.719 0.655814L203.742 20.6528Z" stroke="url(#paint5_linear_35_33)"/>
</g>
<g filter="url(#filter2_b_35_33)">
<path d="M273.29 21.16H294.794V29.48H273.29V21.16ZM274.058 45.8H263.69V1H297.546V9.32H274.058V45.8Z" fill="url(#paint6_linear_35_33)"/>
<path d="M304.565 45.8V1H323.957C327.967 1 331.423 1.66133 334.325 2.984C337.226 4.264 339.466 6.12 341.045 8.552C342.623 10.984 343.413 13.8853 343.413 17.256C343.413 20.584 342.623 23.464 341.045 25.896C339.466 28.2853 337.226 30.12 334.325 31.4C331.423 32.68 327.967 33.32 323.957 33.32H310.325L314.933 28.776V45.8H304.565ZM333.045 45.8L321.845 29.544H332.917L344.245 45.8H333.045ZM314.933 29.928L310.325 25.064H323.381C326.581 25.064 328.97 24.3813 330.549 23.016C332.127 21.608 332.917 19.688 332.917 17.256C332.917 14.7813 332.127 12.8613 330.549 11.496C328.97 10.1307 326.581 9.448 323.381 9.448H310.325L314.933 4.52V29.928Z" fill="url(#paint7_linear_35_33)"/>
<path d="M361.163 19.048H382.731V27.112H361.163V19.048ZM361.931 37.48H386.315V45.8H351.627V1H385.483V9.32H361.931V37.48Z" fill="url(#paint8_linear_35_33)"/>
<path d="M404.101 19.048H425.669V27.112H404.101V19.048ZM404.869 37.48H429.253V45.8H394.565V1H428.421V9.32H404.869V37.48Z" fill="url(#paint9_linear_35_33)"/>
<path d="M274.558 45.8V29.98H294.794H295.294V29.48V21.16V20.66H294.794H274.558V9.82H297.546H298.046V9.32V1V0.5H297.546H263.69H263.19V1V45.8V46.3H263.69H274.058H274.558V45.8ZM304.065 45.8V46.3H304.565H314.933H315.433V45.8V33.82H323.957C324.032 33.82 324.108 33.8198 324.183 33.8193L332.633 46.0837L332.782 46.3H333.045H344.245H345.202L344.655 45.5141L334.99 31.6455C337.747 30.3425 339.911 28.5193 341.462 26.1716L341.464 26.1682C343.103 23.6437 343.913 20.666 343.913 17.256C343.913 13.8048 343.103 10.8053 341.464 8.27977C339.828 5.75934 337.509 3.84316 334.529 2.52777C331.549 1.16966 328.02 0.5 323.957 0.5H304.565H304.065V1V45.8ZM323.381 24.564H315.433V9.948H323.381C326.522 9.948 328.771 10.62 330.221 11.8742C331.67 13.1267 332.417 14.8969 332.417 17.256C332.417 19.5675 331.673 21.342 330.219 22.6403C328.768 23.8929 326.52 24.564 323.381 24.564ZM362.431 36.98V27.612H382.731H383.231V27.112V19.048V18.548H382.731H362.431V9.82H385.483H385.983V9.32V1V0.5H385.483H351.627H351.127V1V45.8V46.3H351.627H386.315H386.815V45.8V37.48V36.98H386.315H362.431ZM405.369 36.98V27.612H425.669H426.169V27.112V19.048V18.548H425.669H405.369V9.82H428.421H428.921V9.32V1V0.5H428.421H394.565H394.065V1V45.8V46.3H394.565H429.253H429.753V45.8V37.48V36.98H429.253H405.369Z" stroke="url(#paint10_linear_35_33)"/>
</g>
<path d="M466.853 21.928H488.357V30.248H466.853V21.928ZM467.621 46.568H457.253V1.768H491.109V10.088H467.621V46.568Z" fill="#F0F0F0"/>
<path d="M498.128 46.568V1.768H517.52C521.53 1.768 524.986 2.42933 527.888 3.752C530.789 5.032 533.029 6.888 534.608 9.32C536.186 11.752 536.976 14.6533 536.976 18.024C536.976 21.352 536.186 24.232 534.608 26.664C533.029 29.0533 530.789 30.888 527.888 32.168C524.986 33.448 521.53 34.088 517.52 34.088H503.888L508.496 29.544V46.568H498.128ZM526.607 46.568L515.408 30.312H526.48L537.808 46.568H526.607ZM508.496 30.696L503.888 25.832H516.944C520.144 25.832 522.533 25.1493 524.112 23.784C525.69 22.376 526.48 20.456 526.48 18.024C526.48 15.5493 525.69 13.6293 524.112 12.264C522.533 10.8987 520.144 10.216 516.944 10.216H503.888L508.496 5.288V30.696Z" fill="#F0F0F0"/>
<path d="M566.95 47.336C563.409 47.336 560.123 46.76 557.094 45.608C554.107 44.456 551.505 42.8347 549.286 40.744C547.11 38.6533 545.403 36.2 544.166 33.384C542.971 30.568 542.374 27.496 542.374 24.168C542.374 20.84 542.971 17.768 544.166 14.952C545.403 12.136 547.131 9.68267 549.35 7.592C551.569 5.50133 554.171 3.88 557.158 2.728C560.145 1.576 563.387 1 566.886 1C570.427 1 573.67 1.576 576.614 2.728C579.601 3.88 582.182 5.50133 584.358 7.592C586.577 9.68267 588.305 12.136 589.542 14.952C590.779 17.7253 591.398 20.7973 591.398 24.168C591.398 27.496 590.779 30.5893 589.542 33.448C588.305 36.264 586.577 38.7173 584.358 40.808C582.182 42.856 579.601 44.456 576.614 45.608C573.67 46.76 570.449 47.336 566.95 47.336ZM566.886 38.504C568.891 38.504 570.726 38.1627 572.39 37.48C574.097 36.7973 575.59 35.816 576.87 34.536C578.15 33.256 579.131 31.7413 579.814 29.992C580.539 28.2427 580.902 26.3013 580.902 24.168C580.902 22.0347 580.539 20.0933 579.814 18.344C579.131 16.5947 578.15 15.08 576.87 13.8C575.633 12.52 574.161 11.5387 572.454 10.856C570.747 10.1733 568.891 9.832 566.886 9.832C564.881 9.832 563.025 10.1733 561.318 10.856C559.654 11.5387 558.182 12.52 556.902 13.8C555.622 15.08 554.619 16.5947 553.894 18.344C553.211 20.0933 552.87 22.0347 552.87 24.168C552.87 26.2587 553.211 28.2 553.894 29.992C554.619 31.7413 555.601 33.256 556.838 34.536C558.118 35.816 559.611 36.7973 561.318 37.48C563.025 38.1627 564.881 38.504 566.886 38.504Z" fill="#F0F0F0"/>
<path d="M599.19 46.568V1.768H607.766L626.838 33.384H622.294L641.046 1.768H649.558L649.686 46.568H639.958L639.894 16.68H641.686L626.71 41.832H622.038L606.742 16.68H608.918V46.568H599.19Z" fill="#F0F0F0"/>
<path d="M677.686 46.568V1.768H686.262L712.694 34.024H708.534V1.768H718.774V46.568H710.262L683.766 14.312H687.926V46.568H677.686Z" fill="#F0F0F0"/>
<path d="M751.134 47.336C747.592 47.336 744.307 46.76 741.278 45.608C738.291 44.456 735.688 42.8347 733.47 40.744C731.294 38.6533 729.587 36.2 728.35 33.384C727.155 30.568 726.558 27.496 726.558 24.168C726.558 20.84 727.155 17.768 728.35 14.952C729.587 12.136 731.315 9.68267 733.534 7.592C735.752 5.50133 738.355 3.88 741.342 2.728C744.328 1.576 747.571 1 751.07 1C754.611 1 757.854 1.576 760.798 2.728C763.784 3.88 766.366 5.50133 768.542 7.592C770.76 9.68267 772.488 12.136 773.726 14.952C774.963 17.7253 775.582 20.7973 775.582 24.168C775.582 27.496 774.963 30.5893 773.726 33.448C772.488 36.264 770.76 38.7173 768.542 40.808C766.366 42.856 763.784 44.456 760.798 45.608C757.854 46.76 754.632 47.336 751.134 47.336ZM751.07 38.504C753.075 38.504 754.91 38.1627 756.574 37.48C758.28 36.7973 759.774 35.816 761.054 34.536C762.334 33.256 763.315 31.7413 763.998 29.992C764.723 28.2427 765.086 26.3013 765.086 24.168C765.086 22.0347 764.723 20.0933 763.998 18.344C763.315 16.5947 762.334 15.08 761.054 13.8C759.816 12.52 758.344 11.5387 756.638 10.856C754.931 10.1733 753.075 9.832 751.07 9.832C749.064 9.832 747.208 10.1733 745.502 10.856C743.838 11.5387 742.366 12.52 741.086 13.8C739.806 15.08 738.803 16.5947 738.078 18.344C737.395 20.0933 737.054 22.0347 737.054 24.168C737.054 26.2587 737.395 28.2 738.078 29.992C738.803 31.7413 739.784 33.256 741.022 34.536C742.302 35.816 743.795 36.7973 745.502 37.48C747.208 38.1627 749.064 38.504 751.07 38.504Z" fill="#F0F0F0"/>
<path d="M783.374 46.568V1.768H802.766C806.776 1.768 810.232 2.42933 813.134 3.752C816.035 5.032 818.275 6.888 819.854 9.32C821.432 11.752 822.222 14.6533 822.222 18.024C822.222 21.352 821.432 24.232 819.854 26.664C818.275 29.0533 816.035 30.888 813.134 32.168C810.232 33.448 806.776 34.088 802.766 34.088H789.134L793.742 29.544V46.568H783.374ZM811.854 46.568L800.654 30.312H811.726L823.054 46.568H811.854ZM793.742 30.696L789.134 25.832H802.19C805.39 25.832 807.779 25.1493 809.358 23.784C810.936 22.376 811.726 20.456 811.726 18.024C811.726 15.5493 810.936 13.6293 809.358 12.264C807.779 10.8987 805.39 10.216 802.19 10.216H789.134L793.742 5.288V30.696Z" fill="#F0F0F0"/>
<path d="M830.436 46.568V1.768H839.012L858.084 33.384H853.54L872.292 1.768H880.804L880.932 46.568H871.204L871.14 16.68H872.932L857.956 41.832H853.284L837.988 16.68H840.164V46.568H830.436Z" fill="#F0F0F0"/>
<path d="M906.281 47.336C902.697 47.336 899.262 46.8667 895.977 45.928C892.692 44.9467 890.046 43.688 888.041 42.152L891.561 34.344C893.481 35.7093 895.742 36.84 898.345 37.736C900.99 38.5893 903.657 39.016 906.345 39.016C908.393 39.016 910.036 38.824 911.273 38.44C912.553 38.0133 913.492 37.4373 914.089 36.712C914.686 35.9867 914.985 35.1547 914.985 34.216C914.985 33.0213 914.516 32.0827 913.577 31.4C912.638 30.6747 911.401 30.0987 909.865 29.672C908.329 29.2027 906.622 28.776 904.745 28.392C902.91 27.9653 901.054 27.4533 899.177 26.856C897.342 26.2587 895.657 25.4907 894.121 24.552C892.585 23.6133 891.326 22.376 890.345 20.84C889.406 19.304 888.937 17.3413 888.937 14.952C888.937 12.392 889.62 10.0667 890.985 7.976C892.393 5.84266 894.484 4.15733 897.257 2.92C900.073 1.64 903.593 1 907.817 1C910.633 1 913.406 1.34133 916.137 2.024C918.868 2.664 921.278 3.64533 923.369 4.968L920.169 12.84C918.078 11.6453 915.988 10.7707 913.897 10.216C911.806 9.61867 909.758 9.32 907.753 9.32C905.748 9.32 904.105 9.55467 902.825 10.024C901.545 10.4933 900.628 11.112 900.073 11.88C899.518 12.6053 899.241 13.4587 899.241 14.44C899.241 15.592 899.71 16.5307 900.649 17.256C901.588 17.9387 902.825 18.4933 904.361 18.92C905.897 19.3467 907.582 19.7733 909.417 20.2C911.294 20.6267 913.15 21.1173 914.985 21.672C916.862 22.2267 918.569 22.9733 920.105 23.912C921.641 24.8507 922.878 26.088 923.817 27.624C924.798 29.16 925.289 31.1013 925.289 33.448C925.289 35.9653 924.585 38.2693 923.177 40.36C921.769 42.4507 919.657 44.136 916.841 45.416C914.068 46.696 910.548 47.336 906.281 47.336Z" fill="#F0F0F0"/>
<path d="M170.742 121.136V84.7839H156.406V76.3359H195.446V84.7839H181.11V121.136H170.742Z" fill="#F0F0F0"/>
<path d="M231.744 76.3359H242.112V121.136H231.744V76.3359ZM211.392 121.136H201.024V76.3359H211.392V121.136ZM232.512 102.768H210.624V93.9999H232.512V102.768Z" fill="#F0F0F0"/>
<path d="M252.712 121.136V76.3359H272.104C276.114 76.3359 279.57 76.9973 282.472 78.3199C285.373 79.5999 287.613 81.4559 289.192 83.8879C290.77 86.3199 291.56 89.2213 291.56 92.5919C291.56 95.9199 290.77 98.7999 289.192 101.232C287.613 103.621 285.373 105.456 282.472 106.736C279.57 108.016 276.114 108.656 272.104 108.656H258.472L263.08 104.112V121.136H252.712ZM281.192 121.136L269.992 104.88H281.064L292.392 121.136H281.192ZM263.08 105.264L258.472 100.4H271.528C274.728 100.4 277.117 99.7173 278.696 98.3519C280.274 96.9439 281.064 95.0239 281.064 92.5919C281.064 90.1173 280.274 88.1973 278.696 86.8319C277.117 85.4666 274.728 84.7839 271.528 84.7839H258.472L263.08 79.8559V105.264Z" fill="#F0F0F0"/>
<path d="M299.774 121.136V76.3359H310.142V121.136H299.774Z" fill="#F0F0F0"/>
<path d="M334.027 121.136L314.699 76.3359H325.899L342.795 116.016H336.203L353.355 76.3359H363.659L344.267 121.136H334.027Z" fill="#F0F0F0"/>
<path d="M376.935 94.3839H398.503V102.448H376.935V94.3839ZM377.703 112.816H402.087V121.136H367.399V76.3359H401.255V84.6559H377.703V112.816Z" fill="#F0F0F0"/>
<g filter="url(#filter3_b_35_33)">
<mask id="path-8-outside-1_35_33" maskUnits="userSpaceOnUse" x="429.087" y="75.3359" width="347" height="58" fill="black">
<rect fill="white" x="429.087" y="75.3359" width="347" height="58"/>
<path d="M450.375 122.672C444.018 122.672 439.047 120.901 435.463 117.36C431.879 113.819 430.087 108.763 430.087 102.192V77.1039H440.455V101.808C440.455 106.075 441.33 109.147 443.079 111.024C444.829 112.901 447.282 113.84 450.439 113.84C453.597 113.84 456.05 112.901 457.799 111.024C459.549 109.147 460.423 106.075 460.423 101.808V77.1039H470.663V102.192C470.663 108.763 468.871 113.819 465.287 117.36C461.703 120.901 456.733 122.672 450.375 122.672Z"/>
<path d="M480.909 121.904V77.1039H489.485L515.917 109.36H511.757V77.1039H521.997V121.904H513.485L486.989 89.6479H491.149V121.904H480.909Z"/>
<path d="M532.596 121.904V77.1039H542.964V121.904H532.596Z"/>
<path d="M575.292 122.672C571.794 122.672 568.53 122.096 565.5 120.944C562.514 119.792 559.911 118.171 557.692 116.08C555.516 113.989 553.81 111.536 552.572 108.72C551.378 105.904 550.78 102.832 550.78 99.5039C550.78 96.1759 551.378 93.1039 552.572 90.2879C553.81 87.4719 555.538 85.0186 557.756 82.9279C559.975 80.8373 562.578 79.2159 565.564 78.0639C568.551 76.9119 571.794 76.3359 575.292 76.3359C578.834 76.3359 582.076 76.9119 585.02 78.0639C588.007 79.2159 590.588 80.8373 592.764 82.9279C594.983 84.9759 596.711 87.4079 597.948 90.2239C599.186 93.0399 599.804 96.1333 599.804 99.5039C599.804 102.832 599.186 105.925 597.948 108.784C596.711 111.6 594.983 114.053 592.764 116.144C590.588 118.192 588.007 119.792 585.02 120.944C582.076 122.096 578.834 122.672 575.292 122.672ZM589.948 132.208C588.199 132.208 586.535 132.016 584.956 131.632C583.42 131.248 581.884 130.629 580.348 129.776C578.855 128.923 577.276 127.771 575.612 126.32C573.991 124.869 572.22 123.077 570.3 120.944L581.18 118.192C582.332 119.771 583.399 121.029 584.38 121.968C585.362 122.907 586.3 123.568 587.196 123.952C588.135 124.336 589.116 124.528 590.14 124.528C592.871 124.528 595.303 123.419 597.436 121.2L602.044 126.704C599.015 130.373 594.983 132.208 589.948 132.208ZM575.292 113.84C577.298 113.84 579.132 113.499 580.796 112.816C582.503 112.133 583.996 111.152 585.276 109.872C586.556 108.592 587.538 107.077 588.22 105.328C588.946 103.536 589.308 101.595 589.308 99.5039C589.308 97.3706 588.946 95.4293 588.22 93.6799C587.538 91.9306 586.556 90.4159 585.276 89.1359C583.996 87.8559 582.503 86.8746 580.796 86.1919C579.132 85.5093 577.298 85.1679 575.292 85.1679C573.287 85.1679 571.431 85.5093 569.724 86.1919C568.018 86.8746 566.524 87.8559 565.244 89.1359C564.007 90.4159 563.026 91.9306 562.3 93.6799C561.618 95.4293 561.276 97.3706 561.276 99.5039C561.276 101.595 561.618 103.536 562.3 105.328C563.026 107.077 564.007 108.592 565.244 109.872C566.524 111.152 568.018 112.133 569.724 112.816C571.431 113.499 573.287 113.84 575.292 113.84Z"/>
<path d="M627.5 122.672C621.143 122.672 616.172 120.901 612.588 117.36C609.004 113.819 607.212 108.763 607.212 102.192V77.1039H617.58V101.808C617.58 106.075 618.455 109.147 620.204 111.024C621.954 112.901 624.407 113.84 627.564 113.84C630.722 113.84 633.175 112.901 634.924 111.024C636.674 109.147 637.548 106.075 637.548 101.808V77.1039H647.788V102.192C647.788 108.763 645.996 113.819 642.412 117.36C638.828 120.901 633.858 122.672 627.5 122.672Z"/>
<path d="M667.57 95.1519H689.138V103.216H667.57V95.1519ZM668.338 113.584H692.722V121.904H658.034V77.1039H691.89V85.4239H668.338V113.584Z"/>
<path d="M700.971 121.904V77.1039H711.339V113.456H733.803V121.904H700.971Z"/>
<path d="M746.107 121.904V103.6L748.475 109.872L728.763 77.1039H739.771L754.875 102.256H748.539L763.707 77.1039H773.883L754.171 109.872L756.475 103.6V121.904H746.107Z"/>
</mask>
<path d="M450.375 122.672C444.018 122.672 439.047 120.901 435.463 117.36C431.879 113.819 430.087 108.763 430.087 102.192V77.1039H440.455V101.808C440.455 106.075 441.33 109.147 443.079 111.024C444.829 112.901 447.282 113.84 450.439 113.84C453.597 113.84 456.05 112.901 457.799 111.024C459.549 109.147 460.423 106.075 460.423 101.808V77.1039H470.663V102.192C470.663 108.763 468.871 113.819 465.287 117.36C461.703 120.901 456.733 122.672 450.375 122.672Z" fill="url(#paint11_linear_35_33)" fill-opacity="0.6"/>
<path d="M480.909 121.904V77.1039H489.485L515.917 109.36H511.757V77.1039H521.997V121.904H513.485L486.989 89.6479H491.149V121.904H480.909Z" fill="url(#paint12_linear_35_33)" fill-opacity="0.6"/>
<path d="M532.596 121.904V77.1039H542.964V121.904H532.596Z" fill="url(#paint13_linear_35_33)" fill-opacity="0.6"/>
<path d="M575.292 122.672C571.794 122.672 568.53 122.096 565.5 120.944C562.514 119.792 559.911 118.171 557.692 116.08C555.516 113.989 553.81 111.536 552.572 108.72C551.378 105.904 550.78 102.832 550.78 99.5039C550.78 96.1759 551.378 93.1039 552.572 90.2879C553.81 87.4719 555.538 85.0186 557.756 82.9279C559.975 80.8373 562.578 79.2159 565.564 78.0639C568.551 76.9119 571.794 76.3359 575.292 76.3359C578.834 76.3359 582.076 76.9119 585.02 78.0639C588.007 79.2159 590.588 80.8373 592.764 82.9279C594.983 84.9759 596.711 87.4079 597.948 90.2239C599.186 93.0399 599.804 96.1333 599.804 99.5039C599.804 102.832 599.186 105.925 597.948 108.784C596.711 111.6 594.983 114.053 592.764 116.144C590.588 118.192 588.007 119.792 585.02 120.944C582.076 122.096 578.834 122.672 575.292 122.672ZM589.948 132.208C588.199 132.208 586.535 132.016 584.956 131.632C583.42 131.248 581.884 130.629 580.348 129.776C578.855 128.923 577.276 127.771 575.612 126.32C573.991 124.869 572.22 123.077 570.3 120.944L581.18 118.192C582.332 119.771 583.399 121.029 584.38 121.968C585.362 122.907 586.3 123.568 587.196 123.952C588.135 124.336 589.116 124.528 590.14 124.528C592.871 124.528 595.303 123.419 597.436 121.2L602.044 126.704C599.015 130.373 594.983 132.208 589.948 132.208ZM575.292 113.84C577.298 113.84 579.132 113.499 580.796 112.816C582.503 112.133 583.996 111.152 585.276 109.872C586.556 108.592 587.538 107.077 588.22 105.328C588.946 103.536 589.308 101.595 589.308 99.5039C589.308 97.3706 588.946 95.4293 588.22 93.6799C587.538 91.9306 586.556 90.4159 585.276 89.1359C583.996 87.8559 582.503 86.8746 580.796 86.1919C579.132 85.5093 577.298 85.1679 575.292 85.1679C573.287 85.1679 571.431 85.5093 569.724 86.1919C568.018 86.8746 566.524 87.8559 565.244 89.1359C564.007 90.4159 563.026 91.9306 562.3 93.6799C561.618 95.4293 561.276 97.3706 561.276 99.5039C561.276 101.595 561.618 103.536 562.3 105.328C563.026 107.077 564.007 108.592 565.244 109.872C566.524 111.152 568.018 112.133 569.724 112.816C571.431 113.499 573.287 113.84 575.292 113.84Z" fill="url(#paint14_linear_35_33)" fill-opacity="0.6"/>
<path d="M627.5 122.672C621.143 122.672 616.172 120.901 612.588 117.36C609.004 113.819 607.212 108.763 607.212 102.192V77.1039H617.58V101.808C617.58 106.075 618.455 109.147 620.204 111.024C621.954 112.901 624.407 113.84 627.564 113.84C630.722 113.84 633.175 112.901 634.924 111.024C636.674 109.147 637.548 106.075 637.548 101.808V77.1039H647.788V102.192C647.788 108.763 645.996 113.819 642.412 117.36C638.828 120.901 633.858 122.672 627.5 122.672Z" fill="url(#paint15_linear_35_33)" fill-opacity="0.6"/>
<path d="M667.57 95.1519H689.138V103.216H667.57V95.1519ZM668.338 113.584H692.722V121.904H658.034V77.1039H691.89V85.4239H668.338V113.584Z" fill="url(#paint16_linear_35_33)" fill-opacity="0.6"/>
<path d="M700.971 121.904V77.1039H711.339V113.456H733.803V121.904H700.971Z" fill="url(#paint17_linear_35_33)" fill-opacity="0.6"/>
<path d="M746.107 121.904V103.6L748.475 109.872L728.763 77.1039H739.771L754.875 102.256H748.539L763.707 77.1039H773.883L754.171 109.872L756.475 103.6V121.904H746.107Z" fill="url(#paint18_linear_35_33)" fill-opacity="0.6"/>
<path d="M450.375 122.672C444.018 122.672 439.047 120.901 435.463 117.36C431.879 113.819 430.087 108.763 430.087 102.192V77.1039H440.455V101.808C440.455 106.075 441.33 109.147 443.079 111.024C444.829 112.901 447.282 113.84 450.439 113.84C453.597 113.84 456.05 112.901 457.799 111.024C459.549 109.147 460.423 106.075 460.423 101.808V77.1039H470.663V102.192C470.663 108.763 468.871 113.819 465.287 117.36C461.703 120.901 456.733 122.672 450.375 122.672Z" stroke="url(#paint19_linear_35_33)" stroke-width="2" mask="url(#path-8-outside-1_35_33)"/>
<path d="M480.909 121.904V77.1039H489.485L515.917 109.36H511.757V77.1039H521.997V121.904H513.485L486.989 89.6479H491.149V121.904H480.909Z" stroke="url(#paint20_linear_35_33)" stroke-width="2" mask="url(#path-8-outside-1_35_33)"/>
<path d="M532.596 121.904V77.1039H542.964V121.904H532.596Z" stroke="url(#paint21_linear_35_33)" stroke-width="2" mask="url(#path-8-outside-1_35_33)"/>
<path d="M575.292 122.672C571.794 122.672 568.53 122.096 565.5 120.944C562.514 119.792 559.911 118.171 557.692 116.08C555.516 113.989 553.81 111.536 552.572 108.72C551.378 105.904 550.78 102.832 550.78 99.5039C550.78 96.1759 551.378 93.1039 552.572 90.2879C553.81 87.4719 555.538 85.0186 557.756 82.9279C559.975 80.8373 562.578 79.2159 565.564 78.0639C568.551 76.9119 571.794 76.3359 575.292 76.3359C578.834 76.3359 582.076 76.9119 585.02 78.0639C588.007 79.2159 590.588 80.8373 592.764 82.9279C594.983 84.9759 596.711 87.4079 597.948 90.2239C599.186 93.0399 599.804 96.1333 599.804 99.5039C599.804 102.832 599.186 105.925 597.948 108.784C596.711 111.6 594.983 114.053 592.764 116.144C590.588 118.192 588.007 119.792 585.02 120.944C582.076 122.096 578.834 122.672 575.292 122.672ZM589.948 132.208C588.199 132.208 586.535 132.016 584.956 131.632C583.42 131.248 581.884 130.629 580.348 129.776C578.855 128.923 577.276 127.771 575.612 126.32C573.991 124.869 572.22 123.077 570.3 120.944L581.18 118.192C582.332 119.771 583.399 121.029 584.38 121.968C585.362 122.907 586.3 123.568 587.196 123.952C588.135 124.336 589.116 124.528 590.14 124.528C592.871 124.528 595.303 123.419 597.436 121.2L602.044 126.704C599.015 130.373 594.983 132.208 589.948 132.208ZM575.292 113.84C577.298 113.84 579.132 113.499 580.796 112.816C582.503 112.133 583.996 111.152 585.276 109.872C586.556 108.592 587.538 107.077 588.22 105.328C588.946 103.536 589.308 101.595 589.308 99.5039C589.308 97.3706 588.946 95.4293 588.22 93.6799C587.538 91.9306 586.556 90.4159 585.276 89.1359C583.996 87.8559 582.503 86.8746 580.796 86.1919C579.132 85.5093 577.298 85.1679 575.292 85.1679C573.287 85.1679 571.431 85.5093 569.724 86.1919C568.018 86.8746 566.524 87.8559 565.244 89.1359C564.007 90.4159 563.026 91.9306 562.3 93.6799C561.618 95.4293 561.276 97.3706 561.276 99.5039C561.276 101.595 561.618 103.536 562.3 105.328C563.026 107.077 564.007 108.592 565.244 109.872C566.524 111.152 568.018 112.133 569.724 112.816C571.431 113.499 573.287 113.84 575.292 113.84Z" stroke="url(#paint22_linear_35_33)" stroke-width="2" mask="url(#path-8-outside-1_35_33)"/>
<path d="M627.5 122.672C621.143 122.672 616.172 120.901 612.588 117.36C609.004 113.819 607.212 108.763 607.212 102.192V77.1039H617.58V101.808C617.58 106.075 618.455 109.147 620.204 111.024C621.954 112.901 624.407 113.84 627.564 113.84C630.722 113.84 633.175 112.901 634.924 111.024C636.674 109.147 637.548 106.075 637.548 101.808V77.1039H647.788V102.192C647.788 108.763 645.996 113.819 642.412 117.36C638.828 120.901 633.858 122.672 627.5 122.672Z" stroke="url(#paint23_linear_35_33)" stroke-width="2" mask="url(#path-8-outside-1_35_33)"/>
<path d="M667.57 95.1519H689.138V103.216H667.57V95.1519ZM668.338 113.584H692.722V121.904H658.034V77.1039H691.89V85.4239H668.338V113.584Z" stroke="url(#paint24_linear_35_33)" stroke-width="2" mask="url(#path-8-outside-1_35_33)"/>
<path d="M700.971 121.904V77.1039H711.339V113.456H733.803V121.904H700.971Z" stroke="url(#paint25_linear_35_33)" stroke-width="2" mask="url(#path-8-outside-1_35_33)"/>
<path d="M746.107 121.904V103.6L748.475 109.872L728.763 77.1039H739.771L754.875 102.256H748.539L763.707 77.1039H773.883L754.171 109.872L756.475 103.6V121.904H746.107Z" stroke="url(#paint26_linear_35_33)" stroke-width="2" mask="url(#path-8-outside-1_35_33)"/>
</g>
</g>
<defs>
<filter id="filter0_d_35_33" x="0" y="0" width="929.289" height="141.208" filterUnits="userSpaceOnUse" color-interpolation-filters="sRGB">
<feFlood flood-opacity="0" result="BackgroundImageFix"/>
<feColorMatrix in="SourceAlpha" type="matrix" values="0 0 0 0 0 0 0 0 0 0 0 0 0 0 0 0 0 0 127 0" result="hardAlpha"/>
<feOffset dy="4"/>
<feGaussianBlur stdDeviation="2"/>
<feComposite in2="hardAlpha" operator="out"/>
<feColorMatrix type="matrix" values="0 0 0 0 0 0 0 0 0 0 0 0 0 0 0 0 0 0 0.25 0"/>
<feBlend mode="normal" in2="BackgroundImageFix" result="effect1_dropShadow_35_33"/>
<feBlend mode="normal" in="SourceGraphic" in2="effect1_dropShadow_35_33" result="shape"/>
</filter>
<filter id="filter1_b_35_33" x="0" y="-4" width="241.755" height="54.8" filterUnits="userSpaceOnUse" color-interpolation-filters="sRGB">
<feFlood flood-opacity="0" result="BackgroundImageFix"/>
<feGaussianBlur in="BackgroundImageFix" stdDeviation="2"/>
<feComposite in2="SourceAlpha" operator="in" result="effect1_backgroundBlur_35_33"/>
<feBlend mode="normal" in="SourceGraphic" in2="effect1_backgroundBlur_35_33" result="shape"/>
</filter>
<filter id="filter2_b_35_33" x="260.69" y="-2" width="171.563" height="50.8" filterUnits="userSpaceOnUse" color-interpolation-filters="sRGB">
<feFlood flood-opacity="0" result="BackgroundImageFix"/>
<feGaussianBlur in="BackgroundImageFix" stdDeviation="1"/>
<feComposite in2="SourceAlpha" operator="in" result="effect1_backgroundBlur_35_33"/>
<feBlend mode="normal" in="SourceGraphic" in2="effect1_backgroundBlur_35_33" result="shape"/>
</filter>
<filter id="filter3_b_35_33" x="427.087" y="73.3359" width="350.565" height="61.8721" filterUnits="userSpaceOnUse" color-interpolation-filters="sRGB">
<feFlood flood-opacity="0" result="BackgroundImageFix"/>
<feGaussianBlur in="BackgroundImageFix" stdDeviation="1"/>
<feComposite in2="SourceAlpha" operator="in" result="effect1_backgroundBlur_35_33"/>
<feBlend mode="normal" in="SourceGraphic" in2="effect1_backgroundBlur_35_33" result="shape"/>
</filter>
<linearGradient id="paint0_linear_35_33" x1="120.345" y1="1" x2="120" y2="46" gradientUnits="userSpaceOnUse">
<stop stop-color="#512888"/>
<stop offset="1" stop-color="#512888" stop-opacity="0"/>
</linearGradient>
<linearGradient id="paint1_linear_35_33" x1="120.345" y1="1" x2="120" y2="46" gradientUnits="userSpaceOnUse">
<stop stop-color="#512888"/>
<stop offset="1" stop-color="#512888" stop-opacity="0"/>
</linearGradient>
<linearGradient id="paint2_linear_35_33" x1="120.345" y1="1" x2="120" y2="46" gradientUnits="userSpaceOnUse">
<stop stop-color="#512888"/>
<stop offset="1" stop-color="#512888" stop-opacity="0"/>
</linearGradient>
<linearGradient id="paint3_linear_35_33" x1="120.345" y1="1" x2="120" y2="46" gradientUnits="userSpaceOnUse">
<stop stop-color="#512888"/>
<stop offset="1" stop-color="#512888" stop-opacity="0"/>
</linearGradient>
<linearGradient id="paint4_linear_35_33" x1="120.345" y1="1" x2="120" y2="46" gradientUnits="userSpaceOnUse">
<stop stop-color="#512888"/>
<stop offset="1" stop-color="#512888" stop-opacity="0"/>
</linearGradient>
<linearGradient id="paint5_linear_35_33" x1="124.5" y1="-16.5" x2="120" y2="57" gradientUnits="userSpaceOnUse">
<stop stop-color="#F0F0F0"/>
<stop offset="1" stop-color="#F0F0F0" stop-opacity="0"/>
</linearGradient>
<linearGradient id="paint6_linear_35_33" x1="346.471" y1="1" x2="346.471" y2="45.8" gradientUnits="userSpaceOnUse">
<stop stop-color="#512888"/>
<stop offset="0.0001" stop-color="#512888"/>
<stop offset="1" stop-color="#512888" stop-opacity="0"/>
</linearGradient>
<linearGradient id="paint7_linear_35_33" x1="346.471" y1="1" x2="346.471" y2="45.8" gradientUnits="userSpaceOnUse">
<stop stop-color="#512888"/>
<stop offset="0.0001" stop-color="#512888"/>
<stop offset="1" stop-color="#512888" stop-opacity="0"/>
</linearGradient>
<linearGradient id="paint8_linear_35_33" x1="346.471" y1="1" x2="346.471" y2="45.8" gradientUnits="userSpaceOnUse">
<stop stop-color="#512888"/>
<stop offset="0.0001" stop-color="#512888"/>
<stop offset="1" stop-color="#512888" stop-opacity="0"/>
</linearGradient>
<linearGradient id="paint9_linear_35_33" x1="346.471" y1="1" x2="346.471" y2="45.8" gradientUnits="userSpaceOnUse">
<stop stop-color="#512888"/>
<stop offset="0.0001" stop-color="#512888"/>
<stop offset="1" stop-color="#512888" stop-opacity="0"/>
</linearGradient>
<linearGradient id="paint10_linear_35_33" x1="346" y1="-21" x2="341" y2="65.5" gradientUnits="userSpaceOnUse">
<stop stop-color="#F0F0F0"/>
<stop offset="1" stop-color="#F0F0F0" stop-opacity="0"/>
</linearGradient>
<linearGradient id="paint11_linear_35_33" x1="601.985" y1="76.3359" x2="601.985" y2="132.208" gradientUnits="userSpaceOnUse">
<stop stop-color="#650095"/>
<stop offset="1" stop-color="#650095" stop-opacity="0"/>
</linearGradient>
<linearGradient id="paint12_linear_35_33" x1="601.985" y1="76.3359" x2="601.985" y2="132.208" gradientUnits="userSpaceOnUse">
<stop stop-color="#650095"/>
<stop offset="1" stop-color="#650095" stop-opacity="0"/>
</linearGradient>
<linearGradient id="paint13_linear_35_33" x1="601.985" y1="76.3359" x2="601.985" y2="132.208" gradientUnits="userSpaceOnUse">
<stop stop-color="#650095"/>
<stop offset="1" stop-color="#650095" stop-opacity="0"/>
</linearGradient>
<linearGradient id="paint14_linear_35_33" x1="601.985" y1="76.3359" x2="601.985" y2="132.208" gradientUnits="userSpaceOnUse">
<stop stop-color="#650095"/>
<stop offset="1" stop-color="#650095" stop-opacity="0"/>
</linearGradient>
<linearGradient id="paint15_linear_35_33" x1="601.985" y1="76.3359" x2="601.985" y2="132.208" gradientUnits="userSpaceOnUse">
<stop stop-color="#650095"/>
<stop offset="1" stop-color="#650095" stop-opacity="0"/>
</linearGradient>
<linearGradient id="paint16_linear_35_33" x1="601.985" y1="76.3359" x2="601.985" y2="132.208" gradientUnits="userSpaceOnUse">
<stop stop-color="#650095"/>
<stop offset="1" stop-color="#650095" stop-opacity="0"/>
</linearGradient>
<linearGradient id="paint17_linear_35_33" x1="601.985" y1="76.3359" x2="601.985" y2="132.208" gradientUnits="userSpaceOnUse">
<stop stop-color="#650095"/>
<stop offset="1" stop-color="#650095" stop-opacity="0"/>
</linearGradient>
<linearGradient id="paint18_linear_35_33" x1="601.985" y1="76.3359" x2="601.985" y2="132.208" gradientUnits="userSpaceOnUse">
<stop stop-color="#650095"/>
<stop offset="1" stop-color="#650095" stop-opacity="0"/>
</linearGradient>
<linearGradient id="paint19_linear_35_33" x1="601.985" y1="76.3359" x2="601.985" y2="132.208" gradientUnits="userSpaceOnUse">
<stop stop-color="#F0F0F0"/>
<stop offset="1" stop-color="#F0F0F0" stop-opacity="0"/>
</linearGradient>
<linearGradient id="paint20_linear_35_33" x1="601.985" y1="76.3359" x2="601.985" y2="132.208" gradientUnits="userSpaceOnUse">
<stop stop-color="#F0F0F0"/>
<stop offset="1" stop-color="#F0F0F0" stop-opacity="0"/>
</linearGradient>
<linearGradient id="paint21_linear_35_33" x1="601.985" y1="76.3359" x2="601.985" y2="132.208" gradientUnits="userSpaceOnUse">
<stop stop-color="#F0F0F0"/>
<stop offset="1" stop-color="#F0F0F0" stop-opacity="0"/>
</linearGradient>
<linearGradient id="paint22_linear_35_33" x1="601.985" y1="76.3359" x2="601.985" y2="132.208" gradientUnits="userSpaceOnUse">
<stop stop-color="#F0F0F0"/>
<stop offset="1" stop-color="#F0F0F0" stop-opacity="0"/>
</linearGradient>
<linearGradient id="paint23_linear_35_33" x1="601.985" y1="76.3359" x2="601.985" y2="132.208" gradientUnits="userSpaceOnUse">
<stop stop-color="#F0F0F0"/>
<stop offset="1" stop-color="#F0F0F0" stop-opacity="0"/>
</linearGradient>
<linearGradient id="paint24_linear_35_33" x1="601.985" y1="76.3359" x2="601.985" y2="132.208" gradientUnits="userSpaceOnUse">
<stop stop-color="#F0F0F0"/>
<stop offset="1" stop-color="#F0F0F0" stop-opacity="0"/>
</linearGradient>
<linearGradient id="paint25_linear_35_33" x1="601.985" y1="76.3359" x2="601.985" y2="132.208" gradientUnits="userSpaceOnUse">
<stop stop-color="#F0F0F0"/>
<stop offset="1" stop-color="#F0F0F0" stop-opacity="0"/>
</linearGradient>
<linearGradient id="paint26_linear_35_33" x1="601.985" y1="76.3359" x2="601.985" y2="132.208" gradientUnits="userSpaceOnUse">
<stop stop-color="#F0F0F0"/>
<stop offset="1" stop-color="#F0F0F0" stop-opacity="0"/>
</linearGradient>
</defs>
</svg>
