<svg width="599" height="47" viewBox="0 0 599 47" fill="none" xmlns="http://www.w3.org/2000/svg">
<g filter="url(#filter0_b_132_1356)">
<path d="M14.592 46V9.648H0.256V1.2H39.296V9.648H24.96V46H14.592ZM75.5945 1.2H85.9625V46H75.5945V1.2ZM55.2425 46H44.8745V1.2H55.2425V46ZM76.3625 27.632H54.4745V18.864H76.3625V27.632ZM106.098 19.248H127.666V27.312H106.098V19.248ZM106.866 37.68H131.25V46H96.562V1.2H130.418V9.52H106.866V37.68ZM179.385 46.768C175.843 46.768 172.558 46.192 169.529 45.04C166.542 43.888 163.939 42.2667 161.72 40.176C159.545 38.0853 157.838 35.632 156.601 32.816C155.406 30 154.809 26.928 154.809 23.6C154.809 20.272 155.406 17.2 156.601 14.384C157.838 11.568 159.566 9.11467 161.785 7.024C164.003 4.93333 166.606 3.312 169.593 2.16C172.579 1.008 175.822 0.431999 179.321 0.431999C182.862 0.431999 186.104 1.008 189.049 2.16C192.035 3.312 194.617 4.93333 196.793 7.024C199.011 9.11467 200.739 11.568 201.977 14.384C203.214 17.1573 203.833 20.2293 203.833 23.6C203.833 26.928 203.214 30.0213 201.977 32.88C200.739 35.696 199.011 38.1493 196.793 40.24C194.617 42.288 192.035 43.888 189.049 45.04C186.104 46.192 182.883 46.768 179.385 46.768ZM179.321 37.936C181.326 37.936 183.161 37.5947 184.825 36.912C186.531 36.2293 188.025 35.248 189.305 33.968C190.585 32.688 191.566 31.1733 192.249 29.424C192.974 27.6747 193.337 25.7333 193.337 23.6C193.337 21.4667 192.974 19.5253 192.249 17.776C191.566 16.0267 190.585 14.512 189.305 13.232C188.067 11.952 186.595 10.9707 184.889 10.288C183.182 9.60533 181.326 9.264 179.321 9.264C177.315 9.264 175.459 9.60533 173.753 10.288C172.089 10.9707 170.617 11.952 169.337 13.232C168.057 14.512 167.054 16.0267 166.329 17.776C165.646 19.5253 165.305 21.4667 165.305 23.6C165.305 25.6907 165.646 27.632 166.329 29.424C167.054 31.1733 168.035 32.688 169.273 33.968C170.553 35.248 172.046 36.2293 173.753 36.912C175.459 37.5947 177.315 37.936 179.321 37.936ZM231.529 46.768C225.171 46.768 220.201 44.9973 216.617 41.456C213.033 37.9147 211.241 32.8587 211.241 26.288V1.2H221.609V25.904C221.609 30.1707 222.483 33.2427 224.233 35.12C225.982 36.9973 228.435 37.936 231.593 37.936C234.75 37.936 237.203 36.9973 238.953 35.12C240.702 33.2427 241.576 30.1707 241.576 25.904V1.2H251.817V26.288C251.817 32.8587 250.025 37.9147 246.441 41.456C242.857 44.9973 237.886 46.768 231.529 46.768ZM270.592 46V9.648H256.256V1.2H295.296V9.648H280.96V46H270.592ZM321.69 46.768C318.234 46.768 315.012 46.2133 312.026 45.104C309.082 43.952 306.522 42.3307 304.345 40.24C302.17 38.1493 300.463 35.696 299.226 32.88C298.031 30.064 297.434 26.9707 297.434 23.6C297.434 20.2293 298.031 17.136 299.226 14.32C300.463 11.504 302.17 9.05066 304.345 6.96C306.564 4.86933 309.146 3.26933 312.09 2.16C315.034 1.008 318.255 0.431999 321.754 0.431999C325.636 0.431999 329.135 1.11467 332.25 2.48C335.407 3.80266 338.052 5.76533 340.186 8.368L333.53 14.512C331.994 12.7627 330.287 11.4613 328.41 10.608C326.532 9.712 324.484 9.264 322.266 9.264C320.175 9.264 318.255 9.60533 316.506 10.288C314.756 10.9707 313.242 11.952 311.962 13.232C310.682 14.512 309.679 16.0267 308.954 17.776C308.271 19.5253 307.93 21.4667 307.93 23.6C307.93 25.7333 308.271 27.6747 308.954 29.424C309.679 31.1733 310.682 32.688 311.962 33.968C313.242 35.248 314.756 36.2293 316.506 36.912C318.255 37.5947 320.175 37.936 322.266 37.936C324.484 37.936 326.532 37.5093 328.41 36.656C330.287 35.76 331.994 34.416 333.53 32.624L340.186 38.768C338.052 41.3707 335.407 43.3547 332.25 44.72C329.135 46.0853 325.615 46.768 321.69 46.768ZM340.486 46L360.455 1.2H370.695L390.727 46H379.847L363.463 6.448H367.559L351.111 46H340.486ZM350.47 36.4L353.223 28.528H376.263L379.079 36.4H350.47ZM410.095 46.768C406.511 46.768 403.076 46.2987 399.791 45.36C396.505 44.3787 393.86 43.12 391.855 41.584L395.375 33.776C397.295 35.1413 399.556 36.272 402.159 37.168C404.804 38.0213 407.471 38.448 410.159 38.448C412.207 38.448 413.849 38.256 415.087 37.872C416.367 37.4453 417.305 36.8693 417.903 36.144C418.5 35.4187 418.799 34.5867 418.799 33.648C418.799 32.4533 418.329 31.5147 417.391 30.832C416.452 30.1067 415.215 29.5307 413.679 29.104C412.143 28.6347 410.436 28.208 408.559 27.824C406.724 27.3973 404.868 26.8853 402.991 26.288C401.156 25.6907 399.471 24.9227 397.935 23.984C396.399 23.0453 395.14 21.808 394.159 20.272C393.22 18.736 392.751 16.7733 392.751 14.384C392.751 11.824 393.433 9.49866 394.799 7.408C396.207 5.27466 398.297 3.58933 401.071 2.352C403.887 1.072 407.407 0.431999 411.631 0.431999C414.447 0.431999 417.22 0.773332 419.951 1.456C422.681 2.096 425.092 3.07733 427.183 4.4L423.983 12.272C421.892 11.0773 419.801 10.2027 417.711 9.648C415.62 9.05067 413.572 8.752 411.567 8.752C409.561 8.752 407.919 8.98667 406.639 9.456C405.359 9.92533 404.441 10.544 403.887 11.312C403.332 12.0373 403.055 12.8907 403.055 13.872C403.055 15.024 403.524 15.9627 404.463 16.688C405.401 17.3707 406.639 17.9253 408.175 18.352C409.711 18.7787 411.396 19.2053 413.231 19.632C415.108 20.0587 416.964 20.5493 418.799 21.104C420.676 21.6587 422.383 22.4053 423.919 23.344C425.455 24.2827 426.692 25.52 427.631 27.056C428.612 28.592 429.103 30.5333 429.103 32.88C429.103 35.3973 428.399 37.7013 426.991 39.792C425.583 41.8827 423.471 43.568 420.655 44.848C417.881 46.128 414.361 46.768 410.095 46.768ZM444.842 46V9.648H430.506V1.2H469.546V9.648H455.21V46H444.842ZM484.661 19.248H506.229V27.312H484.661V19.248ZM485.429 37.68H509.812V46H475.125V1.2H508.981V9.52H485.429V37.68ZM518.062 46V1.2H537.454C541.465 1.2 544.921 1.86133 547.822 3.184C550.723 4.464 552.963 6.32 554.542 8.752C556.121 11.184 556.91 14.0853 556.91 17.456C556.91 20.784 556.121 23.664 554.542 26.096C552.963 28.4853 550.723 30.32 547.822 31.6C544.921 32.88 541.465 33.52 537.454 33.52H523.822L528.43 28.976V46H518.062ZM546.542 46L535.342 29.744H546.414L557.742 46H546.542ZM528.43 30.128L523.822 25.264H536.878C540.078 25.264 542.467 24.5813 544.046 23.216C545.625 21.808 546.414 19.888 546.414 17.456C546.414 14.9813 545.625 13.0613 544.046 11.696C542.467 10.3307 540.078 9.648 536.878 9.648H523.822L528.43 4.72V30.128ZM579.845 46.768C576.261 46.768 572.826 46.2987 569.541 45.36C566.255 44.3787 563.61 43.12 561.605 41.584L565.125 33.776C567.045 35.1413 569.306 36.272 571.909 37.168C574.554 38.0213 577.221 38.448 579.909 38.448C581.957 38.448 583.599 38.256 584.837 37.872C586.117 37.4453 587.055 36.8693 587.653 36.144C588.25 35.4187 588.549 34.5867 588.549 33.648C588.549 32.4533 588.079 31.5147 587.141 30.832C586.202 30.1067 584.965 29.5307 583.429 29.104C581.893 28.6347 580.186 28.208 578.309 27.824C576.474 27.3973 574.618 26.8853 572.741 26.288C570.906 25.6907 569.221 24.9227 567.685 23.984C566.149 23.0453 564.89 21.808 563.909 20.272C562.97 18.736 562.501 16.7733 562.501 14.384C562.501 11.824 563.183 9.49866 564.549 7.408C565.957 5.27466 568.047 3.58933 570.821 2.352C573.637 1.072 577.157 0.431999 581.381 0.431999C584.197 0.431999 586.97 0.773332 589.701 1.456C592.431 2.096 594.842 3.07733 596.933 4.4L593.733 12.272C591.642 11.0773 589.551 10.2027 587.461 9.648C585.37 9.05067 583.322 8.752 581.317 8.752C579.311 8.752 577.669 8.98667 576.389 9.456C575.109 9.92533 574.191 10.544 573.637 11.312C573.082 12.0373 572.805 12.8907 572.805 13.872C572.805 15.024 573.274 15.9627 574.213 16.688C575.151 17.3707 576.389 17.9253 577.925 18.352C579.461 18.7787 581.146 19.2053 582.981 19.632C584.858 20.0587 586.714 20.5493 588.549 21.104C590.426 21.6587 592.133 22.4053 593.669 23.344C595.205 24.2827 596.442 25.52 597.381 27.056C598.362 28.592 598.853 30.5333 598.853 32.88C598.853 35.3973 598.149 37.7013 596.741 39.792C595.333 41.8827 593.221 43.568 590.405 44.848C587.631 46.128 584.111 46.768 579.845 46.768Z" fill="#F0F0F0" fill-opacity="0.05"/>
<path d="M14.592 46H13.592V47H14.592V46ZM14.592 9.648H15.592V8.648H14.592V9.648ZM0.256 9.648H-0.744V10.648H0.256V9.648ZM0.256 1.2V0.199997H-0.744V1.2H0.256ZM39.296 1.2H40.296V0.199997H39.296V1.2ZM39.296 9.648V10.648H40.296V9.648H39.296ZM24.96 9.648V8.648H23.96V9.648H24.96ZM24.96 46V47H25.96V46H24.96ZM15.592 46V9.648H13.592V46H15.592ZM14.592 8.648H0.256V10.648H14.592V8.648ZM1.256 9.648V1.2H-0.744V9.648H1.256ZM0.256 2.2H39.296V0.199997H0.256V2.2ZM38.296 1.2V9.648H40.296V1.2H38.296ZM39.296 8.648H24.96V10.648H39.296V8.648ZM23.96 9.648V46H25.96V9.648H23.96ZM24.96 45H14.592V47H24.96V45ZM75.5945 1.2V0.199997H74.5945V1.2H75.5945ZM85.9625 1.2H86.9625V0.199997H85.9625V1.2ZM85.9625 46V47H86.9625V46H85.9625ZM75.5945 46H74.5945V47H75.5945V46ZM55.2425 46V47H56.2425V46H55.2425ZM44.8745 46H43.8745V47H44.8745V46ZM44.8745 1.2V0.199997H43.8745V1.2H44.8745ZM55.2425 1.2H56.2425V0.199997H55.2425V1.2ZM76.3625 27.632V28.632H77.3625V27.632H76.3625ZM54.4745 27.632H53.4745V28.632H54.4745V27.632ZM54.4745 18.864V17.864H53.4745V18.864H54.4745ZM76.3625 18.864H77.3625V17.864H76.3625V18.864ZM75.5945 2.2H85.9625V0.199997H75.5945V2.2ZM84.9625 1.2V46H86.9625V1.2H84.9625ZM85.9625 45H75.5945V47H85.9625V45ZM76.5945 46V1.2H74.5945V46H76.5945ZM55.2425 45H44.8745V47H55.2425V45ZM45.8745 46V1.2H43.8745V46H45.8745ZM44.8745 2.2H55.2425V0.199997H44.8745V2.2ZM54.2425 1.2V46H56.2425V1.2H54.2425ZM76.3625 26.632H54.4745V28.632H76.3625V26.632ZM55.4745 27.632V18.864H53.4745V27.632H55.4745ZM54.4745 19.864H76.3625V17.864H54.4745V19.864ZM75.3625 18.864V27.632H77.3625V18.864H75.3625ZM106.098 19.248V18.248H105.098V19.248H106.098ZM127.666 19.248H128.666V18.248H127.666V19.248ZM127.666 27.312V28.312H128.666V27.312H127.666ZM106.098 27.312H105.098V28.312H106.098V27.312ZM106.866 37.68H105.866V38.68H106.866V37.68ZM131.25 37.68H132.25V36.68H131.25V37.68ZM131.25 46V47H132.25V46H131.25ZM96.562 46H95.562V47H96.562V46ZM96.562 1.2V0.199997H95.562V1.2H96.562ZM130.418 1.2H131.418V0.199997H130.418V1.2ZM130.418 9.52V10.52H131.418V9.52H130.418ZM106.866 9.52V8.52H105.866V9.52H106.866ZM106.098 20.248H127.666V18.248H106.098V20.248ZM126.666 19.248V27.312H128.666V19.248H126.666ZM127.666 26.312H106.098V28.312H127.666V26.312ZM107.098 27.312V19.248H105.098V27.312H107.098ZM106.866 38.68H131.25V36.68H106.866V38.68ZM130.25 37.68V46H132.25V37.68H130.25ZM131.25 45H96.562V47H131.25V45ZM97.562 46V1.2H95.562V46H97.562ZM96.562 2.2H130.418V0.199997H96.562V2.2ZM129.418 1.2V9.52H131.418V1.2H129.418ZM130.418 8.52H106.866V10.52H130.418V8.52ZM105.866 9.52V37.68H107.866V9.52H105.866ZM169.529 45.04L169.169 45.973L169.173 45.9747L169.529 45.04ZM161.721 40.176L161.028 40.8971L161.035 40.9038L161.721 40.176ZM156.6 32.816L155.68 33.2066L155.685 33.2183L156.6 32.816ZM156.6 14.384L155.685 13.9817L155.68 13.9934L156.6 14.384ZM169.592 2.16L169.233 1.22699L169.592 2.16ZM189.048 2.16L188.684 3.09125L188.689 3.093L189.048 2.16ZM196.793 7.024L196.1 7.74514L196.107 7.75179L196.793 7.024ZM201.977 14.384L201.061 14.7863L201.063 14.7914L201.977 14.384ZM201.977 32.88L202.892 33.2823L202.894 33.2772L201.977 32.88ZM196.793 40.24L197.478 40.9682L197.478 40.9678L196.793 40.24ZM189.048 45.04L188.689 44.107L188.684 44.1088L189.048 45.04ZM184.824 36.912L184.453 35.9835L184.445 35.9868L184.824 36.912ZM189.305 33.968L188.597 33.2609V33.2609L189.305 33.968ZM192.249 29.424L191.325 29.041L191.321 29.0507L191.317 29.0605L192.249 29.424ZM192.249 17.776L191.317 18.1395L191.321 18.1493L191.325 18.159L192.249 17.776ZM189.305 13.232L188.586 13.927L188.591 13.9331L188.597 13.9391L189.305 13.232ZM184.889 10.288L184.517 11.2165L184.889 10.288ZM173.753 10.288L173.381 9.35949L173.373 9.36283L173.753 10.288ZM169.337 13.232L170.044 13.9391V13.9391L169.337 13.232ZM166.329 17.776L165.405 17.393L165.401 17.4027L165.397 17.4125L166.329 17.776ZM166.329 29.424L165.394 29.78L165.399 29.7936L165.405 29.807L166.329 29.424ZM169.273 33.968L168.554 34.663L168.559 34.6691L168.565 34.6751L169.273 33.968ZM173.753 36.912L173.381 37.8405L173.753 36.912ZM179.385 45.768C175.953 45.768 172.79 45.2103 169.884 44.1053L169.173 45.9747C172.326 47.1737 175.733 47.768 179.385 47.768V45.768ZM169.888 44.107C167.016 42.9993 164.526 41.4456 162.406 39.4482L161.035 40.9038C163.352 43.0877 166.067 44.7767 169.169 45.973L169.888 44.107ZM162.413 39.4549C160.334 37.4567 158.702 35.1123 157.516 32.4137L155.685 33.2183C156.974 36.1517 158.755 38.714 161.028 40.8971L162.413 39.4549ZM157.521 32.4254C156.383 29.7435 155.809 26.8057 155.809 23.6H153.809C153.809 27.0503 154.428 30.2565 155.68 33.2066L157.521 32.4254ZM155.809 23.6C155.809 20.3943 156.383 17.4565 157.521 14.7745L155.68 13.9934C154.428 16.9435 153.809 20.1497 153.809 23.6H155.809ZM157.516 14.7863C158.7 12.092 160.35 9.74961 162.47 7.75179L161.099 6.29621C158.782 8.47972 156.976 11.044 155.685 13.9817L157.516 14.7863ZM162.47 7.75179C164.59 5.75441 167.08 4.20073 169.952 3.093L169.233 1.22699C166.131 2.42326 163.416 4.11225 161.099 6.29621L162.47 7.75179ZM169.952 3.093C172.814 1.98923 175.933 1.432 179.32 1.432V-0.568001C175.71 -0.568001 172.344 0.0267658 169.233 1.22699L169.952 3.093ZM179.32 1.432C182.752 1.432 185.869 1.98982 188.684 3.09124L189.413 1.22875C186.34 0.0261803 182.972 -0.568001 179.32 -0.568001V1.432ZM188.689 3.093C191.559 4.20014 194.025 5.752 196.1 7.7451L197.485 6.30289C195.208 4.11466 192.511 2.42386 189.408 1.22699L188.689 3.093ZM196.107 7.75179C198.227 9.74961 199.877 12.092 201.061 14.7863L202.892 13.9817C201.601 11.044 199.796 8.47972 197.478 6.29621L196.107 7.75179ZM201.063 14.7914C202.237 17.4231 202.833 20.3542 202.833 23.6H204.833C204.833 20.1045 204.19 16.8916 202.89 13.9766L201.063 14.7914ZM202.833 23.6C202.833 26.8008 202.238 29.7579 201.059 32.4828L202.894 33.2772C204.189 30.2847 204.833 27.0552 204.833 23.6H202.833ZM201.061 32.4777C199.877 35.172 198.227 37.5144 196.107 39.5122L197.478 40.9678C199.796 38.7843 201.601 36.22 202.892 33.2823L201.061 32.4777ZM196.107 39.5118C194.032 41.4649 191.563 42.9982 188.689 44.107L189.408 45.973C192.507 44.7778 195.201 43.1111 197.478 40.9682L196.107 39.5118ZM188.684 44.1088C185.868 45.2107 182.772 45.768 179.385 45.768V47.768C182.995 47.768 186.341 47.1733 189.413 45.9712L188.684 44.1088ZM179.32 38.936C181.441 38.936 183.407 38.5746 185.204 37.8372L184.445 35.9868C182.914 36.6147 181.211 36.936 179.32 36.936V38.936ZM185.196 37.8405C187.026 37.1083 188.634 36.0524 190.012 34.6751L188.597 33.2609C187.415 34.4436 186.036 35.3504 184.453 35.9835L185.196 37.8405ZM190.012 34.6751C191.393 33.2937 192.449 31.6608 193.18 29.7875L191.317 29.0605C190.683 30.6859 189.776 32.0823 188.597 33.2609L190.012 34.6751ZM193.172 29.807C193.954 27.9218 194.337 25.8482 194.337 23.6H192.337C192.337 25.6185 191.994 27.4275 191.325 29.041L193.172 29.807ZM194.337 23.6C194.337 21.3518 193.954 19.2782 193.172 17.393L191.325 18.159C191.994 19.7725 192.337 21.5815 192.337 23.6H194.337ZM193.18 17.4125C192.449 15.5392 191.393 13.9063 190.012 12.5249L188.597 13.9391C189.776 15.1177 190.683 16.5141 191.317 18.1395L193.18 17.4125ZM190.023 12.537C188.685 11.1522 187.093 10.0929 185.26 9.35952L184.517 11.2165C186.097 11.8485 187.449 12.7518 188.586 13.927L190.023 12.537ZM185.26 9.35952C183.425 8.62547 181.441 8.264 179.32 8.264V10.264C181.21 10.264 182.939 10.5852 184.517 11.2165L185.26 9.35952ZM179.32 8.264C177.2 8.264 175.216 8.62547 173.381 9.35952L174.124 11.2165C175.702 10.5852 177.431 10.264 179.32 10.264V8.264ZM173.373 9.36283C171.586 10.0961 170.002 11.1518 168.629 12.5249L170.044 13.9391C171.231 12.7521 172.591 11.8452 174.132 11.2132L173.373 9.36283ZM168.629 12.5249C167.252 13.9019 166.178 15.5281 165.405 17.393L167.252 18.159C167.93 16.5252 168.861 15.1221 170.044 13.9391L168.629 12.5249ZM165.397 17.4125C164.663 19.2923 164.305 21.3591 164.305 23.6H166.305C166.305 21.5743 166.628 19.7583 167.26 18.1395L165.397 17.4125ZM164.305 23.6C164.305 25.8013 164.664 27.8645 165.394 29.78L167.263 29.068C166.627 27.3995 166.305 25.58 166.305 23.6H164.305ZM165.405 29.807C166.175 31.6648 167.224 33.2872 168.554 34.663L169.991 33.273C168.847 32.0888 167.933 30.6819 167.252 29.041L165.405 29.807ZM168.565 34.6751C169.943 36.0524 171.551 37.1083 173.381 37.8405L174.124 35.9835C172.541 35.3504 171.162 34.4436 169.98 33.2609L168.565 34.6751ZM173.381 37.8405C175.216 38.5745 177.2 38.936 179.32 38.936V36.936C177.431 36.936 175.702 36.6148 174.124 35.9835L173.381 37.8405ZM216.617 41.456L217.319 40.7447L216.617 41.456ZM211.24 1.2V0.199997H210.24V1.2H211.24ZM221.609 1.2H222.609V0.199997H221.609V1.2ZM224.232 35.12L223.501 35.8017V35.8017L224.232 35.12ZM238.952 35.12L239.684 35.8017V35.8017L238.952 35.12ZM241.577 1.2V0.199997H240.577V1.2H241.577ZM251.816 1.2H252.816V0.199997H251.816V1.2ZM246.441 41.456L247.143 42.1673L246.441 41.456ZM231.529 45.768C225.362 45.768 220.67 44.0557 217.319 40.7447L215.914 42.1673C219.731 45.9389 224.98 47.768 231.529 47.768V45.768ZM217.319 40.7447C213.978 37.4434 212.24 32.6762 212.24 26.288H210.24C210.24 33.0412 212.087 38.3859 215.914 42.1673L217.319 40.7447ZM212.24 26.288V1.2H210.24V26.288H212.24ZM211.24 2.2H221.609V0.199997H211.24V2.2ZM220.609 1.2V25.904H222.609V1.2H220.609ZM220.609 25.904C220.609 30.2666 221.496 33.6497 223.501 35.8017L224.964 34.4383C223.471 32.8356 222.609 30.0747 222.609 25.904H220.609ZM223.501 35.8017C225.482 37.9273 228.226 38.936 231.592 38.936V36.936C228.644 36.936 226.482 36.0673 224.964 34.4383L223.501 35.8017ZM231.592 38.936C234.959 38.936 237.703 37.9273 239.684 35.8017L238.221 34.4383C236.703 36.0673 234.541 36.936 231.592 36.936V38.936ZM239.684 35.8017C241.689 33.6497 242.577 30.2666 242.577 25.904H240.577C240.577 30.0747 239.714 32.8356 238.221 34.4383L239.684 35.8017ZM242.577 25.904V1.2H240.577V25.904H242.577ZM241.577 2.2H251.816V0.199997H241.577V2.2ZM250.816 1.2V26.288H252.816V1.2H250.816ZM250.816 26.288C250.816 32.6762 249.079 37.4434 245.738 40.7447L247.143 42.1673C250.97 38.3859 252.816 33.0412 252.816 26.288H250.816ZM245.738 40.7447C242.387 44.0557 237.695 45.768 231.529 45.768V47.768C238.077 47.768 243.326 45.9389 247.143 42.1673L245.738 40.7447ZM270.592 46H269.592V47H270.592V46ZM270.592 9.648H271.592V8.648H270.592V9.648ZM256.256 9.648H255.256V10.648H256.256V9.648ZM256.256 1.2V0.199997H255.256V1.2H256.256ZM295.296 1.2H296.296V0.199997H295.296V1.2ZM295.296 9.648V10.648H296.296V9.648H295.296ZM280.96 9.648V8.648H279.96V9.648H280.96ZM280.96 46V47H281.96V46H280.96ZM271.592 46V9.648H269.592V46H271.592ZM270.592 8.648H256.256V10.648H270.592V8.648ZM257.256 9.648V1.2H255.256V9.648H257.256ZM256.256 2.2H295.296V0.199997H256.256V2.2ZM294.296 1.2V9.648H296.296V1.2H294.296ZM295.296 8.648H280.96V10.648H295.296V8.648ZM279.96 9.648V46H281.96V9.648H279.96ZM280.96 45H270.592V47H280.96V45ZM312.026 45.104L311.661 46.0352L311.669 46.0384L311.677 46.0414L312.026 45.104ZM304.345 40.24L303.653 40.9611L304.345 40.24ZM299.225 32.88L298.305 33.2706L298.31 33.2823L299.225 32.88ZM299.225 14.32L298.31 13.9177L298.305 13.9294L299.225 14.32ZM304.345 6.96L303.66 6.23218L303.653 6.23889L304.345 6.96ZM312.09 2.16L312.442 3.09584L312.454 3.09124L312.09 2.16ZM332.25 2.48L331.848 3.39587L331.856 3.39916L331.863 3.40234L332.25 2.48ZM340.185 8.368L340.864 9.1028L341.557 8.46328L340.959 7.73407L340.185 8.368ZM333.53 14.512L332.778 15.1718L333.454 15.9422L334.208 15.2468L333.53 14.512ZM328.409 10.608L327.979 11.5105L327.987 11.5145L327.996 11.5184L328.409 10.608ZM311.961 13.232L312.669 13.9391V13.9391L311.961 13.232ZM308.953 17.776L308.03 17.393L308.026 17.4027L308.022 17.4125L308.953 17.776ZM308.953 29.424L308.022 29.7875L308.026 29.7973L308.03 29.807L308.953 29.424ZM311.961 33.968L311.254 34.6751L311.961 33.968ZM328.409 36.656L328.823 37.5664L328.832 37.5625L328.84 37.5585L328.409 36.656ZM333.53 32.624L334.208 31.8892L333.445 31.1855L332.77 31.9732L333.53 32.624ZM340.185 38.768L340.959 39.4019L341.557 38.6727L340.864 38.0332L340.185 38.768ZM332.25 44.72L331.853 43.8021L331.848 43.8041L332.25 44.72ZM321.69 45.768C318.342 45.768 315.24 45.2311 312.374 44.1666L311.677 46.0414C314.784 47.1955 318.125 47.768 321.69 47.768V45.768ZM312.39 44.1728C309.562 43.0663 307.115 41.5143 305.038 39.5189L303.653 40.9611C305.928 43.147 308.601 44.8377 311.661 46.0352L312.39 44.1728ZM305.038 39.5189C302.959 37.5207 301.327 35.1763 300.141 32.4777L298.31 33.2823C299.599 36.2157 301.38 38.778 303.653 40.9611L305.038 39.5189ZM300.146 32.4894C299.009 29.809 298.434 26.8502 298.434 23.6H296.434C296.434 27.0911 297.053 30.319 298.305 33.2705L300.146 32.4894ZM298.434 23.6C298.434 20.3498 299.009 17.391 300.146 14.7105L298.305 13.9294C297.053 16.881 296.434 20.1089 296.434 23.6H298.434ZM300.141 14.7223C301.327 12.0237 302.959 9.67931 305.038 7.6811L303.653 6.23889C301.38 8.42202 299.599 10.9843 298.31 13.9177L300.141 14.7223ZM305.031 7.68779C307.151 5.69071 309.618 4.16001 312.442 3.09577L311.737 1.22423C308.673 2.37865 305.978 4.04795 303.66 6.23221L305.031 7.68779ZM312.454 3.09124C315.27 1.98928 318.366 1.432 321.754 1.432V-0.568001C318.143 -0.568001 314.797 0.0267124 311.725 1.22875L312.454 3.09124ZM321.754 1.432C325.517 1.432 328.877 2.09335 331.848 3.39587L332.651 1.56413C329.393 0.135981 325.755 -0.568001 321.754 -0.568001V1.432ZM331.863 3.40234C334.873 4.66304 337.384 6.5278 339.412 9.00193L340.959 7.73407C338.72 5.00286 335.941 2.94229 332.636 1.55766L331.863 3.40234ZM339.507 7.6332L332.851 13.7772L334.208 15.2468L340.864 9.1028L339.507 7.6332ZM334.281 13.8522C332.663 12.0101 330.845 10.6167 328.823 9.69763L327.996 11.5184C329.728 12.3059 331.324 13.5152 332.778 15.1718L334.281 13.8522ZM328.84 9.70552C326.82 8.74109 324.623 8.264 322.266 8.264V10.264C324.345 10.264 326.245 10.6829 327.979 11.5105L328.84 9.70552ZM322.266 8.264C320.065 8.264 318.02 8.62369 316.142 9.35642L316.869 11.2196C318.49 10.587 320.285 10.264 322.266 10.264V8.264ZM316.142 9.35642C314.269 10.0874 312.636 11.1434 311.254 12.5249L312.669 13.9391C313.847 12.7605 315.244 11.8539 316.869 11.2196L316.142 9.35642ZM311.254 12.5249C309.877 13.9019 308.803 15.5281 308.03 17.393L309.877 18.159C310.555 16.5252 311.486 15.1221 312.669 13.9391L311.254 12.5249ZM308.022 17.4125C307.288 19.2923 306.93 21.3591 306.93 23.6H308.93C308.93 21.5743 309.253 19.7583 309.885 18.1395L308.022 17.4125ZM306.93 23.6C306.93 25.8409 307.288 27.9077 308.022 29.7875L309.885 29.0605C309.253 27.4417 308.93 25.6257 308.93 23.6H306.93ZM308.03 29.807C308.803 31.6719 309.877 33.2981 311.254 34.6751L312.669 33.2609C311.486 32.0779 310.555 30.6748 309.877 29.041L308.03 29.807ZM311.254 34.6751C312.636 36.0565 314.269 37.1126 316.142 37.8436L316.869 35.9804C315.244 35.3461 313.847 34.4395 312.669 33.2609L311.254 34.6751ZM316.142 37.8436C318.02 38.5763 320.065 38.936 322.266 38.936V36.936C320.285 36.936 318.49 36.613 316.869 35.9804L316.142 37.8436ZM322.266 38.936C324.616 38.936 326.806 38.4832 328.823 37.5664L327.996 35.7456C326.258 36.5355 324.352 36.936 322.266 36.936V38.936ZM328.84 37.5585C330.859 36.5948 332.674 35.1584 334.289 33.2748L332.77 31.9732C331.313 33.6736 329.714 34.9252 327.979 35.7535L328.84 37.5585ZM332.851 33.3588L339.507 39.5028L340.864 38.0332L334.208 31.8892L332.851 33.3588ZM339.412 38.1341C337.382 40.6106 334.867 42.4986 331.853 43.8021L332.646 45.6379C335.947 44.2107 338.722 42.1307 340.959 39.4019L339.412 38.1341ZM331.848 43.8041C328.878 45.1061 325.498 45.768 321.69 45.768V47.768C325.732 47.768 329.392 47.0646 332.651 45.6359L331.848 43.8041ZM340.487 46L339.573 45.5929L338.946 47H340.487V46ZM360.454 1.2V0.199997H359.805L359.541 0.792891L360.454 1.2ZM370.694 1.2L371.607 0.791803L371.343 0.199997H370.694V1.2ZM390.727 46V47H392.269L391.639 45.5918L390.727 46ZM379.846 46L378.923 46.3827L379.178 47H379.846V46ZM363.462 6.448V5.448H361.966L362.539 6.8307L363.462 6.448ZM367.559 6.448L368.482 6.83198L369.057 5.448H367.559V6.448ZM351.111 46V47H351.778L352.034 46.384L351.111 46ZM350.47 36.4L349.527 36.07L349.062 37.4H350.47V36.4ZM353.223 28.528V27.528H352.513L352.279 28.198L353.223 28.528ZM376.263 28.528L377.204 28.1912L376.967 27.528H376.263V28.528ZM379.078 36.4V37.4H380.498L380.02 36.0632L379.078 36.4ZM341.4 46.4071L361.368 1.6071L359.541 0.792891L339.573 45.5929L341.4 46.4071ZM360.454 2.2H370.694V0.199997H360.454V2.2ZM369.782 1.60819L389.814 46.4082L391.639 45.5918L371.607 0.791803L369.782 1.60819ZM390.727 45H379.846V47H390.727V45ZM380.77 45.6173L364.386 6.06529L362.539 6.8307L378.923 46.3827L380.77 45.6173ZM363.462 7.448H367.559V5.448H363.462V7.448ZM366.635 6.06402L350.187 45.616L352.034 46.384L368.482 6.83198L366.635 6.06402ZM351.111 45H340.487V47H351.111V45ZM351.414 36.73L354.166 28.858L352.279 28.198L349.527 36.07L351.414 36.73ZM353.223 29.528H376.263V27.528H353.223V29.528ZM375.321 28.8648L378.137 36.7368L380.02 36.0632L377.204 28.1912L375.321 28.8648ZM379.078 35.4H350.47V37.4H379.078V35.4ZM399.79 45.36L399.504 46.3182L399.516 46.3215L399.79 45.36ZM391.854 41.584L390.943 41.173L390.617 41.8958L391.246 42.3779L391.854 41.584ZM395.375 33.776L395.954 32.961L394.963 32.2561L394.463 33.365L395.375 33.776ZM402.159 37.168L401.833 38.1135L401.842 38.1167L401.852 38.1197L402.159 37.168ZM415.086 37.872L415.383 38.8271L415.393 38.824L415.403 38.8207L415.086 37.872ZM417.902 36.144L417.131 35.5083L417.902 36.144ZM417.391 30.832L416.779 31.6233L416.791 31.6322L416.802 31.6407L417.391 30.832ZM413.678 29.104L413.386 30.0604L413.399 30.0641L413.411 30.0675L413.678 29.104ZM408.559 27.824L408.332 28.798L408.345 28.801L408.358 28.8037L408.559 27.824ZM402.991 26.288L402.681 27.2389L402.687 27.2409L402.991 26.288ZM397.935 23.984L397.413 24.8373L397.935 23.984ZM394.159 20.272L393.305 20.7934L393.31 20.802L393.316 20.8104L394.159 20.272ZM394.798 7.408L393.964 6.85715L393.961 6.86121L394.798 7.408ZM401.07 2.352L401.478 3.26525L401.484 3.26236L401.07 2.352ZM419.951 1.456L419.708 2.42614L419.715 2.42793L419.722 2.42961L419.951 1.456ZM427.182 4.4L428.109 4.77658L428.424 4.00197L427.717 3.55492L427.182 4.4ZM423.983 12.272L423.486 13.1402L424.479 13.7072L424.909 12.6486L423.983 12.272ZM417.711 9.648L417.436 10.6095L417.445 10.6121L417.454 10.6146L417.711 9.648ZM406.638 9.456L406.294 8.51712V8.51712L406.638 9.456ZM403.887 11.312L404.681 11.9194L404.689 11.9086L404.697 11.8975L403.887 11.312ZM404.462 16.688L403.851 17.4793L403.863 17.4882L403.874 17.4967L404.462 16.688ZM408.174 18.352L407.907 19.3155L408.174 18.352ZM413.23 19.632L413.004 20.606L413.009 20.6071L413.23 19.632ZM418.798 21.104L418.509 22.0612L418.515 22.063L418.798 21.104ZM423.919 23.344L424.44 22.4907L423.919 23.344ZM427.63 27.056L426.777 27.5774L426.782 27.586L426.788 27.5944L427.63 27.056ZM426.991 39.792L427.82 40.3506L426.991 39.792ZM420.655 44.848L420.241 43.9376L420.235 43.94L420.655 44.848ZM410.095 45.768C406.599 45.768 403.257 45.3104 400.065 44.3985L399.516 46.3215C402.895 47.2869 406.422 47.768 410.095 47.768V45.768ZM400.077 44.4018C396.869 43.4436 394.344 42.2311 392.463 40.7901L391.246 42.3779C393.376 44.0089 396.141 45.3137 399.504 46.3182L400.077 44.4018ZM392.766 41.995L396.286 34.187L394.463 33.365L390.943 41.173L392.766 41.995ZM394.795 34.591C396.805 36.0201 399.155 37.1915 401.833 38.1135L402.484 36.2225C399.957 35.3525 397.784 34.2625 395.954 32.961L394.795 34.591ZM401.852 38.1197C404.593 39.0039 407.363 39.448 410.159 39.448V37.448C407.578 37.448 405.015 37.0387 402.466 36.2163L401.852 38.1197ZM410.159 39.448C412.256 39.448 414.011 39.2529 415.383 38.8271L414.79 36.9169C413.688 37.2591 412.157 37.448 410.159 37.448V39.448ZM415.403 38.8207C416.787 38.3592 417.916 37.7002 418.674 36.7797L417.131 35.5083C416.694 36.0384 415.946 36.5315 414.77 36.9233L415.403 38.8207ZM418.674 36.7797C419.419 35.8755 419.798 34.8189 419.798 33.648H417.798C417.798 34.3545 417.581 34.9618 417.131 35.5083L418.674 36.7797ZM419.798 33.648C419.798 32.1445 419.185 30.9005 417.979 30.0233L416.802 31.6407C417.473 32.1288 417.798 32.7622 417.798 33.648H419.798ZM418.002 30.0407C416.932 29.2141 415.566 28.5906 413.946 28.1405L413.411 30.0675C414.863 30.4708 415.971 30.9992 416.779 31.6233L418.002 30.0407ZM413.971 28.1476C412.399 27.6675 410.661 27.2335 408.759 26.8443L408.358 28.8037C410.21 29.1825 411.886 29.6018 413.386 30.0604L413.971 28.1476ZM408.785 26.85C406.977 26.4296 405.147 25.9247 403.294 25.3351L402.687 27.2409C404.589 27.8459 406.47 28.3651 408.332 28.798L408.785 26.85ZM403.3 25.3371C401.534 24.7622 399.921 24.0259 398.456 23.1307L397.413 24.8373C399.02 25.8194 400.777 26.6191 402.681 27.2389L403.3 25.3371ZM398.456 23.1307C397.051 22.2723 395.902 21.1433 395.001 19.7336L393.316 20.8104C394.378 22.4727 395.746 23.8184 397.413 24.8373L398.456 23.1307ZM395.012 19.7505C394.196 18.415 393.75 16.6479 393.75 14.384H391.75C391.75 16.8987 392.244 19.057 393.305 20.7934L395.012 19.7505ZM393.75 14.384C393.75 12.013 394.379 9.87857 395.636 7.95479L393.961 6.86121C392.487 9.11876 391.75 11.635 391.75 14.384H393.75ZM395.633 7.95884C396.918 6.01234 398.845 4.43973 401.478 3.26523L400.663 1.43877C397.749 2.73893 395.495 4.53698 393.964 6.85715L395.633 7.95884ZM401.484 3.26236C404.132 2.05886 407.5 1.432 411.63 1.432V-0.568001C407.313 -0.568001 403.641 0.0851345 400.657 1.44163L401.484 3.26236ZM411.63 1.432C414.365 1.432 417.057 1.76331 419.708 2.42614L420.193 0.485855C417.383 -0.21665 414.528 -0.568001 411.63 -0.568001V1.432ZM419.722 2.42961C422.359 3.04752 424.663 3.98944 426.648 5.24508L427.717 3.55492C425.521 2.16522 423.004 1.14448 420.179 0.482382L419.722 2.42961ZM426.256 4.02342L423.056 11.8954L424.909 12.6486L428.109 4.77658L426.256 4.02342ZM424.479 11.4038C422.321 10.1709 420.15 9.26069 417.967 8.68144L417.454 10.6146C419.452 11.1446 421.463 11.9838 423.486 13.1402L424.479 11.4038ZM417.985 8.68648C415.813 8.06575 413.672 7.752 411.566 7.752V9.752C413.471 9.752 415.427 10.0356 417.436 10.6095L417.985 8.68648ZM411.566 7.752C409.494 7.752 407.723 7.99309 406.294 8.51712L406.983 10.3949C408.114 9.98024 409.628 9.752 411.566 9.752V7.752ZM406.294 8.51712C404.905 9.02633 403.788 9.74026 403.076 10.7265L404.697 11.8975C405.094 11.3477 405.812 10.8243 406.983 10.3949L406.294 8.51712ZM403.092 10.7045C402.394 11.6177 402.055 12.6886 402.055 13.872H404.055C404.055 13.0928 404.27 12.457 404.681 11.9194L403.092 10.7045ZM402.055 13.872C402.055 15.3443 402.676 16.5712 403.851 17.4793L405.074 15.8967C404.372 15.3542 404.055 14.7037 404.055 13.872H402.055ZM403.874 17.4967C404.938 18.2706 406.296 18.868 407.907 19.3155L408.442 17.3885C406.981 16.9827 405.864 16.4707 405.051 15.8793L403.874 17.4967ZM407.907 19.3155C409.459 19.7466 411.158 20.1767 413.004 20.606L413.457 18.658C411.634 18.234 409.962 17.8108 408.442 17.3885L407.907 19.3155ZM413.009 20.6071C414.864 21.0286 416.697 21.5133 418.509 22.0612L419.088 20.1468C417.231 19.5853 415.352 19.0887 413.452 18.6569L413.009 20.6071ZM418.515 22.063C420.316 22.5951 421.942 23.3079 423.397 24.1973L424.44 22.4907C422.823 21.5028 421.036 20.7222 419.082 20.145L418.515 22.063ZM423.397 24.1973C424.798 25.0532 425.921 26.1768 426.777 27.5774L428.484 26.5345C427.462 24.8632 426.111 23.5121 424.44 22.4907L423.397 24.1973ZM426.788 27.5944C427.641 28.9294 428.103 30.67 428.103 32.88H430.103C430.103 30.3967 429.583 28.2546 428.473 26.5176L426.788 27.5944ZM428.103 32.88C428.103 35.198 427.458 37.3076 426.161 39.2334L427.82 40.3506C429.339 38.0951 430.103 35.5966 430.103 32.88H428.103ZM426.161 39.2334C424.878 41.1392 422.927 42.7168 420.241 43.9376L421.068 45.7584C424.014 44.4192 426.287 42.6262 427.82 40.3506L426.161 39.2334ZM420.235 43.94C417.635 45.1403 414.27 45.768 410.095 45.768V47.768C414.452 47.768 418.128 47.1157 421.074 45.756L420.235 43.94ZM444.842 46H443.842V47H444.842V46ZM444.842 9.648H445.842V8.648H444.842V9.648ZM430.506 9.648H429.506V10.648H430.506V9.648ZM430.506 1.2V0.199997H429.506V1.2H430.506ZM469.546 1.2H470.546V0.199997H469.546V1.2ZM469.546 9.648V10.648H470.546V9.648H469.546ZM455.21 9.648V8.648H454.21V9.648H455.21ZM455.21 46V47H456.21V46H455.21ZM445.842 46V9.648H443.842V46H445.842ZM444.842 8.648H430.506V10.648H444.842V8.648ZM431.506 9.648V1.2H429.506V9.648H431.506ZM430.506 2.2H469.546V0.199997H430.506V2.2ZM468.546 1.2V9.648H470.546V1.2H468.546ZM469.546 8.648H455.21V10.648H469.546V8.648ZM454.21 9.648V46H456.21V9.648H454.21ZM455.21 45H444.842V47H455.21V45ZM484.66 19.248V18.248H483.66V19.248H484.66ZM506.229 19.248H507.229V18.248H506.229V19.248ZM506.229 27.312V28.312H507.229V27.312H506.229ZM484.66 27.312H483.66V28.312H484.66V27.312ZM485.428 37.68H484.428V38.68H485.428V37.68ZM509.812 37.68H510.812V36.68H509.812V37.68ZM509.812 46V47H510.812V46H509.812ZM475.125 46H474.125V47H475.125V46ZM475.125 1.2V0.199997H474.125V1.2H475.125ZM508.98 1.2H509.98V0.199997H508.98V1.2ZM508.98 9.52V10.52H509.98V9.52H508.98ZM485.428 9.52V8.52H484.428V9.52H485.428ZM484.66 20.248H506.229V18.248H484.66V20.248ZM505.229 19.248V27.312H507.229V19.248H505.229ZM506.229 26.312H484.66V28.312H506.229V26.312ZM485.66 27.312V19.248H483.66V27.312H485.66ZM485.428 38.68H509.812V36.68H485.428V38.68ZM508.812 37.68V46H510.812V37.68H508.812ZM509.812 45H475.125V47H509.812V45ZM476.125 46V1.2H474.125V46H476.125ZM475.125 2.2H508.98V0.199997H475.125V2.2ZM507.98 1.2V9.52H509.98V1.2H507.98ZM508.98 8.52H485.428V10.52H508.98V8.52ZM484.428 9.52V37.68H486.428V9.52H484.428ZM518.062 46H517.062V47H518.062V46ZM518.062 1.2V0.199997H517.062V1.2H518.062ZM547.822 3.184L547.407 4.09397L547.418 4.09892L547.822 3.184ZM554.542 8.752L553.703 9.29647V9.29647L554.542 8.752ZM554.542 26.096L555.376 26.6473L555.381 26.6405L554.542 26.096ZM547.822 31.6L548.226 32.5149L547.822 31.6ZM523.822 33.52L523.12 32.808L521.384 34.52H523.822V33.52ZM528.43 28.976H529.43V26.5855L527.728 28.264L528.43 28.976ZM528.43 46V47H529.43V46H528.43ZM546.542 46L545.719 46.5674L546.017 47H546.542V46ZM535.342 29.744V28.744H533.439L534.519 30.3114L535.342 29.744ZM546.414 29.744L547.234 29.1723L546.936 28.744H546.414V29.744ZM557.742 46V47H559.658L558.562 45.4283L557.742 46ZM528.43 30.128L527.704 30.8157L529.43 32.6376V30.128H528.43ZM523.822 25.264V24.264H521.497L523.096 25.9517L523.822 25.264ZM544.046 23.216L544.7 23.9724L544.706 23.9674L544.712 23.9623L544.046 23.216ZM523.822 9.648L523.092 8.96501L521.518 10.648H523.822V9.648ZM528.43 4.72H529.43V2.18641L527.7 4.037L528.43 4.72ZM519.062 46V1.2H517.062V46H519.062ZM518.062 2.2H537.454V0.199997H518.062V2.2ZM537.454 2.2C541.357 2.2 544.665 2.84384 547.407 4.09391L548.237 2.27409C545.176 0.878822 541.572 0.199997 537.454 0.199997V2.2ZM547.418 4.09892C550.159 5.30805 552.24 7.04287 553.703 9.29647L555.381 8.20753C553.686 5.59712 551.288 3.61994 548.226 2.26908L547.418 4.09892ZM553.703 9.29647C555.16 11.5414 555.91 14.2465 555.91 17.456H557.91C557.91 13.9242 557.081 10.8266 555.381 8.20753L553.703 9.29647ZM555.91 17.456C555.91 20.62 555.162 23.3046 553.703 25.5515L555.381 26.6405C557.08 24.0234 557.91 20.948 557.91 17.456H555.91ZM553.708 25.5447C552.246 27.7572 550.164 29.4739 547.418 30.6851L548.226 32.5149C551.283 31.1661 553.681 29.2135 555.376 26.6473L553.708 25.5447ZM547.418 30.6851C544.673 31.8962 541.361 32.52 537.454 32.52V34.52C541.568 34.52 545.168 33.8638 548.226 32.5149L547.418 30.6851ZM537.454 32.52H523.822V34.52H537.454V32.52ZM524.524 34.232L529.132 29.688L527.728 28.264L523.12 32.808L524.524 34.232ZM527.43 28.976V46H529.43V28.976H527.43ZM528.43 45H518.062V47H528.43V45ZM547.365 45.4326L536.165 29.1766L534.519 30.3114L545.719 46.5674L547.365 45.4326ZM535.342 30.744H546.414V28.744H535.342V30.744ZM545.594 30.3157L556.922 46.5717L558.562 45.4283L547.234 29.1723L545.594 30.3157ZM557.742 45H546.542V47H557.742V45ZM529.156 29.4403L524.548 24.5763L523.096 25.9517L527.704 30.8157L529.156 29.4403ZM523.822 26.264H536.878V24.264H523.822V26.264ZM536.878 26.264C540.195 26.264 542.865 25.5599 544.7 23.9724L543.392 22.4596C542.07 23.6027 539.961 24.264 536.878 24.264V26.264ZM544.712 23.9623C546.536 22.3353 547.414 20.1259 547.414 17.456H545.414C545.414 19.6501 544.714 21.2807 543.38 22.4697L544.712 23.9623ZM547.414 17.456C547.414 14.7503 546.54 12.5306 544.7 10.9396L543.392 12.4524C544.71 13.5921 545.414 15.2124 545.414 17.456H547.414ZM544.7 10.9396C542.865 9.35206 540.195 8.648 536.878 8.648V10.648C539.961 10.648 542.07 11.3093 543.392 12.4524L544.7 10.9396ZM536.878 8.648H523.822V10.648H536.878V8.648ZM524.552 10.331L529.16 5.40299L527.7 4.037L523.092 8.96501L524.552 10.331ZM527.43 4.72V30.128H529.43V4.72H527.43ZM569.541 45.36L569.254 46.3182L569.266 46.3215L569.541 45.36ZM561.604 41.584L560.693 41.173L560.367 41.8958L560.996 42.3779L561.604 41.584ZM565.125 33.776L565.704 32.961L564.713 32.2561L564.213 33.365L565.125 33.776ZM571.909 37.168L571.583 38.1135L571.592 38.1167L571.602 38.1197L571.909 37.168ZM584.836 37.872L585.133 38.8271L585.143 38.824L585.153 38.8207L584.836 37.872ZM587.653 36.144L586.881 35.5083L587.653 36.144ZM587.141 30.832L586.529 31.6233L586.541 31.6322L586.552 31.6407L587.141 30.832ZM583.429 29.104L583.136 30.0604L583.148 30.0641L583.161 30.0675L583.429 29.104ZM578.308 27.824L578.082 28.798L578.095 28.801L578.108 28.8037L578.308 27.824ZM572.74 26.288L572.431 27.2389L572.437 27.2409L572.74 26.288ZM567.685 23.984L567.163 24.8373L567.685 23.984ZM563.909 20.272L563.055 20.7934L563.06 20.802L563.066 20.8104L563.909 20.272ZM564.549 7.408L563.714 6.85715L563.711 6.86121L564.549 7.408ZM570.82 2.352L571.228 3.26525L571.234 3.26236L570.82 2.352ZM589.701 1.456L589.458 2.42614L589.465 2.42793L589.472 2.42961L589.701 1.456ZM596.932 4.4L597.859 4.77658L598.174 4.00197L597.467 3.55492L596.932 4.4ZM593.732 12.272L593.236 13.1402L594.229 13.7072L594.659 12.6486L593.732 12.272ZM587.461 9.648L587.186 10.6095L587.195 10.6121L587.204 10.6146L587.461 9.648ZM576.388 9.456L576.044 8.51712V8.51712L576.388 9.456ZM573.636 11.312L574.431 11.9194L574.439 11.9086L574.447 11.8975L573.636 11.312ZM574.213 16.688L573.601 17.4793L573.613 17.4882L573.624 17.4967L574.213 16.688ZM577.924 18.352L577.657 19.3155L577.924 18.352ZM582.981 19.632L582.754 20.606L582.759 20.6071L582.981 19.632ZM588.549 21.104L588.259 22.0612L588.265 22.063L588.549 21.104ZM593.669 23.344L594.19 22.4907L593.669 23.344ZM597.38 27.056L596.527 27.5774L596.532 27.586L596.538 27.5944L597.38 27.056ZM596.74 39.792L597.57 40.3506L596.74 39.792ZM590.404 44.848L589.991 43.9376L589.985 43.94L590.404 44.848ZM579.844 45.768C576.349 45.768 573.007 45.3104 569.815 44.3985L569.266 46.3215C572.645 47.2869 576.172 47.768 579.844 47.768V45.768ZM569.827 44.4018C566.619 43.4436 564.094 42.2311 562.213 40.7901L560.996 42.3779C563.126 44.0089 565.891 45.3137 569.254 46.3182L569.827 44.4018ZM562.516 41.995L566.036 34.187L564.213 33.365L560.693 41.173L562.516 41.995ZM564.545 34.591C566.555 36.0201 568.905 37.1915 571.583 38.1135L572.234 36.2225C569.707 35.3525 567.534 34.2625 565.704 32.961L564.545 34.591ZM571.602 38.1197C574.343 39.0039 577.113 39.448 579.909 39.448V37.448C577.328 37.448 574.765 37.0387 572.216 36.2163L571.602 38.1197ZM579.909 39.448C582.006 39.448 583.761 39.2529 585.133 38.8271L584.54 36.9169C583.438 37.2591 581.907 37.448 579.909 37.448V39.448ZM585.153 38.8207C586.537 38.3592 587.666 37.7002 588.424 36.7797L586.881 35.5083C586.444 36.0384 585.696 36.5315 584.52 36.9233L585.153 38.8207ZM588.424 36.7797C589.169 35.8755 589.549 34.8189 589.549 33.648H587.549C587.549 34.3545 587.331 34.9618 586.881 35.5083L588.424 36.7797ZM589.549 33.648C589.549 32.1445 588.935 30.9005 587.729 30.0233L586.552 31.6407C587.223 32.1288 587.549 32.7622 587.549 33.648H589.549ZM587.752 30.0407C586.682 29.2141 585.316 28.5906 583.696 28.1405L583.161 30.0675C584.613 30.4708 585.721 30.9992 586.529 31.6233L587.752 30.0407ZM583.721 28.1476C582.149 27.6675 580.411 27.2335 578.509 26.8443L578.108 28.8037C579.96 29.1825 581.636 29.6018 583.136 30.0604L583.721 28.1476ZM578.535 26.85C576.727 26.4296 574.897 25.9247 573.044 25.3351L572.437 27.2409C574.339 27.8459 576.22 28.3651 578.082 28.798L578.535 26.85ZM573.05 25.3371C571.284 24.7622 569.671 24.0259 568.206 23.1307L567.163 24.8373C568.77 25.8194 570.527 26.6191 572.431 27.2389L573.05 25.3371ZM568.206 23.1307C566.801 22.2723 565.652 21.1433 564.751 19.7336L563.066 20.8104C564.128 22.4727 565.496 23.8184 567.163 24.8373L568.206 23.1307ZM564.762 19.7505C563.946 18.415 563.5 16.6479 563.5 14.384H561.5C561.5 16.8987 561.994 19.057 563.055 20.7934L564.762 19.7505ZM563.5 14.384C563.5 12.013 564.129 9.87857 565.386 7.95479L563.711 6.86121C562.237 9.11876 561.5 11.635 561.5 14.384H563.5ZM565.383 7.95884C566.668 6.01234 568.595 4.43973 571.228 3.26523L570.413 1.43877C567.499 2.73893 565.245 4.53698 563.714 6.85715L565.383 7.95884ZM571.234 3.26236C573.882 2.05886 577.25 1.432 581.38 1.432V-0.568001C577.063 -0.568001 573.391 0.0851345 570.407 1.44163L571.234 3.26236ZM581.38 1.432C584.115 1.432 586.807 1.76331 589.458 2.42614L589.943 0.485855C587.133 -0.21665 584.278 -0.568001 581.38 -0.568001V1.432ZM589.472 2.42961C592.109 3.04752 594.413 3.98944 596.398 5.24508L597.467 3.55492C595.271 2.16522 592.754 1.14448 589.929 0.482382L589.472 2.42961ZM596.006 4.02342L592.806 11.8954L594.659 12.6486L597.859 4.77658L596.006 4.02342ZM594.229 11.4038C592.071 10.1709 589.9 9.26069 587.717 8.68144L587.204 10.6146C589.202 11.1446 591.213 11.9838 593.236 13.1402L594.229 11.4038ZM587.735 8.68648C585.563 8.06575 583.422 7.752 581.317 7.752V9.752C583.221 9.752 585.177 10.0356 587.186 10.6095L587.735 8.68648ZM581.317 7.752C579.244 7.752 577.473 7.99309 576.044 8.51712L576.733 10.3949C577.864 9.98024 579.378 9.752 581.317 9.752V7.752ZM576.044 8.51712C574.656 9.02633 573.538 9.74026 572.826 10.7265L574.447 11.8975C574.844 11.3477 575.562 10.8243 576.733 10.3949L576.044 8.51712ZM572.842 10.7045C572.144 11.6177 571.805 12.6886 571.805 13.872H573.805C573.805 13.0928 574.02 12.457 574.431 11.9194L572.842 10.7045ZM571.805 13.872C571.805 15.3443 572.426 16.5712 573.601 17.4793L574.824 15.8967C574.122 15.3542 573.805 14.7037 573.805 13.872H571.805ZM573.624 17.4967C574.688 18.2706 576.046 18.868 577.657 19.3155L578.192 17.3885C576.731 16.9827 575.614 16.4707 574.801 15.8793L573.624 17.4967ZM577.657 19.3155C579.209 19.7466 580.908 20.1767 582.754 20.606L583.207 18.658C581.384 18.234 579.712 17.8108 578.192 17.3885L577.657 19.3155ZM582.759 20.6071C584.614 21.0286 586.447 21.5133 588.259 22.0612L588.838 20.1468C586.981 19.5853 585.102 19.0887 583.202 18.6569L582.759 20.6071ZM588.265 22.063C590.066 22.5951 591.692 23.3079 593.147 24.1973L594.19 22.4907C592.573 21.5028 590.786 20.7222 588.832 20.145L588.265 22.063ZM593.147 24.1973C594.548 25.0532 595.671 26.1768 596.527 27.5774L598.234 26.5345C597.212 24.8632 595.861 23.5121 594.19 22.4907L593.147 24.1973ZM596.538 27.5944C597.391 28.9294 597.852 30.67 597.852 32.88H599.852C599.852 30.3967 599.333 28.2546 598.223 26.5176L596.538 27.5944ZM597.852 32.88C597.852 35.198 597.208 37.3076 595.911 39.2334L597.57 40.3506C599.089 38.0951 599.852 35.5966 599.852 32.88H597.852ZM595.911 39.2334C594.628 41.1392 592.677 42.7168 589.991 43.9376L590.818 45.7584C593.764 44.4192 596.037 42.6262 597.57 40.3506L595.911 39.2334ZM589.985 43.94C587.385 45.1403 584.02 45.768 579.844 45.768V47.768C584.202 47.768 587.878 47.1157 590.824 45.756L589.985 43.94Z" fill="url(#paint0_linear_132_1356)"/>
</g>
<defs>
<filter id="filter0_b_132_1356" x="-3.74399" y="-3.56812" width="606.596" height="54.3362" filterUnits="userSpaceOnUse" color-interpolation-filters="sRGB">
<feFlood flood-opacity="0" result="BackgroundImageFix"/>
<feGaussianBlur in="BackgroundImageFix" stdDeviation="2"/>
<feComposite in2="SourceAlpha" operator="in" result="effect1_backgroundBlur_132_1356"/>
<feBlend mode="normal" in="SourceGraphic" in2="effect1_backgroundBlur_132_1356" result="shape"/>
</filter>
<linearGradient id="paint0_linear_132_1356" x1="300.5" y1="-16" x2="300.5" y2="62" gradientUnits="userSpaceOnUse">
<stop stop-color="#F0F0F0"/>
<stop offset="1" stop-color="#F0F0F0" stop-opacity="0"/>
</linearGradient>
</defs>
</svg>
